<svg xmlns="http://www.w3.org/2000/svg" viewBox="0 0 71.77 66.51"><defs><style>.cls-1{fill:#051d27;}.cls-2{fill:#fcfa14;}.cls-3{fill:#fdc402;}.cls-4{fill:#fdb901;}.cls-5{fill:#fddd02;}.cls-6{fill:#fcfa00;}.cls-7{fill:#fcfa51;}.cls-8{fill:#fffb93;}.cls-9{fill:#fde905;}</style></defs><title>2Artboard 380</title><g id="Layer_1" data-name="Layer 1"><polygon class="cls-1" points="35.7 0 14.28 2.25 0 24.42 35.7 66.51 71.77 24.42 57.11 2.25 35.7 0"/><path class="cls-2" d="M35.79,3.75C43.22,7.94,49,15.45,54,24.51c-12.68,4.07-24.85,4.44-36.34,0C20.45,15,26.18,7.76,35.79,3.75Z"/><path class="cls-3" d="M66.29,24.51l-30.5,35.7C38,46.3,42.58,33.66,54,24.51,57.17,21.43,61.57,22.42,66.29,24.51Z"/><path class="cls-4" d="M54,5.7a36.57,36.57,0,0,0,0,18.81H66.29Z"/><polygon class="cls-5" points="35.79 3.75 53.96 5.7 53.96 24.51 35.79 3.75"/><path class="cls-6" d="M5.29,24.51l30.5,35.7C32.92,46,28.14,33.12,17.62,24.51,13.92,20.22,9.74,21,5.29,24.51Z"/><path class="cls-7" d="M17.62,5.7a27,27,0,0,1,0,18.81H5.29Z"/><polygon class="cls-8" points="17.62 24.51 35.79 3.75 17.62 5.7 17.62 24.51"/><polygon class="cls-9" points="35.79 60.2 53.96 24.51 17.62 24.51 35.79 60.2"/></g></svg>