<svg xmlns="http://www.w3.org/2000/svg" viewBox="0 0 130 130" width="130" height="130" preserveAspectRatio="xMidYMid meet" style="width: 100%; height: 100%; transform: translate3d(0px, 0px, 0px);"><defs><clipPath id="__lottie_element_402"><rect width="130" height="130" x="0" y="0"></rect></clipPath></defs><g clip-path="url(#__lottie_element_402)"><g transform="matrix(0.125,0,0,0.125,29.950057983398438,13.187493324279785)" opacity="1" style="display: block;"><g opacity="1" transform="matrix(1,0,0,1,280.41900634765625,373.1809997558594)"><path fill="rgb(54,124,240)" fill-opacity="1" d=" M94.43000030517578,248.95700073242188 C94.43000030517578,248.95700073242188 -94.42900085449219,248.95700073242188 -94.42900085449219,248.95700073242188 C-122.6240005493164,220.76199340820312 -146.88299560546875,196.5030059814453 -175.0780029296875,168.30799865722656 C-175.0780029296875,168.30799865722656 -175.0780029296875,-168.30799865722656 -175.0780029296875,-168.30799865722656 C-175.0780029296875,-168.30799865722656 -94.42900085449219,-248.95700073242188 -94.42900085449219,-248.95700073242188 C-94.42900085449219,-248.95700073242188 94.43000030517578,-248.95700073242188 94.43000030517578,-248.95700073242188 C122.625,-220.76199340820312 146.88400268554688,-196.5030059814453 175.0780029296875,-168.30799865722656 C175.0780029296875,-168.30799865722656 175.0780029296875,168.30799865722656 175.0780029296875,168.30799865722656 C146.88400268554688,196.5030059814453 122.625,220.76199340820312 94.43000030517578,248.95700073242188z"></path></g><g opacity="1" transform="matrix(1,0,0,1,465.46600341796875,639.7839965820312)"><path fill="rgb(26,96,213)" fill-opacity="1" d=" M-18.32200050354004,-106.3270034790039 C-18.32200050354004,-106.3270034790039 45.957000732421875,-70.02799987792969 45.957000732421875,-70.02799987792969 C45.957000732421875,-70.02799987792969 95.1240005493164,-10.036999702453613 95.1240005493164,-10.036999702453613 C95.1240005493164,-10.036999702453613 -21.108999252319336,106.32099914550781 -21.108999252319336,106.32099914550781 C-21.108999252319336,106.32099914550781 -83.58599853515625,53.43299865722656 -83.58599853515625,53.43299865722656 C-83.58599853515625,53.43299865722656 -95.1240005493164,-29.527000427246094 -95.1240005493164,-29.527000427246094 C-95.1240005493164,-29.527000427246094 -18.32200050354004,-106.3270034790039 -18.32200050354004,-106.3270034790039z"></path></g><g opacity="1" transform="matrix(1,0,0,1,95.37300109863281,639.7839965820312)"><path fill="rgb(44,113,226)" fill-opacity="1" d=" M18.322999954223633,-106.3270034790039 C18.322999954223633,-106.3270034790039 -45.638999938964844,-65.14099884033203 -45.638999938964844,-65.14099884033203 C-45.638999938964844,-65.14099884033203 -95.12300109863281,-10.036999702453613 -95.12300109863281,-10.036999702453613 C-95.12300109863281,-10.036999702453613 21.240999221801758,106.3270034790039 21.240999221801758,106.3270034790039 C21.240999221801758,106.3270034790039 68.60299682617188,54.67100143432617 68.60299682617188,54.67100143432617 C68.60299682617188,54.67100143432617 95.12300109863281,-29.527000427246094 95.12300109863281,-29.527000427246094 C95.12300109863281,-29.527000427246094 18.322999954223633,-106.3270034790039 18.322999954223633,-106.3270034790039z"></path></g><g opacity="1" transform="matrix(1,0,0,1,280.4200134277344,678.1840209960938)"><path fill="rgb(15,85,196)" fill-opacity="1" d=" M-89.9229965209961,-67.927001953125 C-89.9229965209961,-67.927001953125 -163.80499267578125,67.927001953125 -163.80499267578125,67.927001953125 C-163.80499267578125,67.927001953125 163.80599975585938,67.927001953125 163.80599975585938,67.927001953125 C163.80599975585938,67.927001953125 89.9219970703125,-67.927001953125 89.9219970703125,-67.927001953125 C89.9219970703125,-67.927001953125 -89.9229965209961,-67.927001953125 -89.9229965209961,-67.927001953125z"></path></g><g opacity="1" transform="matrix(1,0,0,1,465.46600341796875,106.5770034790039)"><path fill="rgb(73,142,255)" fill-opacity="1" d=" M-21.239999771118164,-106.3280029296875 C-21.239999771118164,-106.3280029296875 95.1240005493164,10.03600025177002 95.1240005493164,10.03600025177002 C95.1240005493164,10.03600025177002 50.67900085449219,65.51399993896484 50.67900085449219,65.51399993896484 C50.67900085449219,65.51399993896484 -18.32200050354004,106.3280029296875 -18.32200050354004,106.3280029296875 C-18.32200050354004,106.3280029296875 -95.1240005493164,29.525999069213867 -95.1240005493164,29.525999069213867 C-95.1240005493164,29.525999069213867 -72.0250015258789,-41.38999938964844 -72.0250015258789,-41.38999938964844 C-72.0250015258789,-41.38999938964844 -21.239999771118164,-106.3280029296875 -21.239999771118164,-106.3280029296875z"></path></g><g opacity="1" transform="matrix(1,0,0,1,280.4200134277344,68.177001953125)"><path fill="rgb(115,166,249)" fill-opacity="1" d=" M163.80499267578125,-67.927001953125 C163.80499267578125,-67.927001953125 89.9219970703125,67.927001953125 89.9219970703125,67.927001953125 C89.9219970703125,67.927001953125 -89.92400360107422,67.927001953125 -89.92400360107422,67.927001953125 C-89.92400360107422,67.927001953125 -133.927001953125,16.547000885009766 -133.927001953125,16.547000885009766 C-133.927001953125,16.547000885009766 -163.80499267578125,-67.927001953125 -163.80499267578125,-67.927001953125 C-163.80499267578125,-67.927001953125 163.80499267578125,-67.927001953125 163.80499267578125,-67.927001953125z"></path></g><g opacity="1" transform="matrix(1,0,0,1,503.8659973144531,373.17999267578125)"><path fill="rgb(44,113,226)" fill-opacity="1" d=" M-56.722999572753906,-160.2760009765625 C-56.722999572753906,-160.2760009765625 56.722999572753906,-256.5660095214844 56.722999572753906,-256.5660095214844 C56.722999572753906,-256.5660095214844 56.722999572753906,256.5660095214844 56.722999572753906,256.5660095214844 C56.722999572753906,256.5660095214844 -56.722999572753906,160.2760009765625 -56.722999572753906,160.2760009765625 C-56.722999572753906,160.2760009765625 -56.722999572753906,-160.2760009765625 -56.722999572753906,-160.2760009765625z"></path></g><g opacity="1" transform="matrix(1,0,0,1,56.972999572753906,373.1809997558594)"><path fill="rgb(73,142,255)" fill-opacity="1" d=" M-56.722999572753906,-256.5660095214844 C-56.722999572753906,-256.5660095214844 23.825000762939453,-215.9739990234375 23.825000762939453,-215.9739990234375 C23.825000762939453,-215.9739990234375 56.722999572753906,-160.27499389648438 56.722999572753906,-160.27499389648438 C56.722999572753906,-160.27499389648438 56.722999572753906,160.2760009765625 56.722999572753906,160.2760009765625 C56.722999572753906,160.2760009765625 -56.722999572753906,256.5669860839844 -56.722999572753906,256.5669860839844 C-56.722999572753906,256.5669860839844 -56.722999572753906,-256.5660095214844 -56.722999572753906,-256.5660095214844z"></path></g><g opacity="1" transform="matrix(1,0,0,1,95.37300109863281,106.5770034790039)"><path fill="rgb(147,187,255)" fill-opacity="1" d=" M21.240999221801758,-106.3280029296875 C21.240999221801758,-106.3280029296875 95.12300109863281,29.525999069213867 95.12300109863281,29.525999069213867 C95.12300109863281,29.525999069213867 18.322999954223633,106.3280029296875 18.322999954223633,106.3280029296875 C18.322999954223633,106.3280029296875 -95.12300109863281,10.03600025177002 -95.12300109863281,10.03600025177002 C-95.12300109863281,10.03600025177002 21.240999221801758,-106.3280029296875 21.240999221801758,-106.3280029296875z"></path></g><g opacity="1" transform="matrix(1,0,0,1,280.41900634765625,373.17999267578125)"><path fill="rgb(44,113,226)" fill-opacity="1" d=" M57.047000885009766,157.70399475097656 C57.047000885009766,157.70399475097656 -57.047000885009766,157.70399475097656 -57.047000885009766,157.70399475097656 C-57.047000885009766,157.70399475097656 -87.35199737548828,127.39900207519531 -87.35199737548828,127.39900207519531 C-87.35199737548828,127.39900207519531 -87.35199737548828,-127.39900207519531 -87.35199737548828,-127.39900207519531 C-87.35199737548828,-127.39900207519531 -57.047000885009766,-157.70399475097656 -57.047000885009766,-157.70399475097656 C-57.047000885009766,-157.70399475097656 57.047000885009766,-157.70399475097656 57.047000885009766,-157.70399475097656 C57.047000885009766,-157.70399475097656 87.35199737548828,-127.39900207519531 87.35199737548828,-127.39900207519531 C87.35199737548828,-127.39900207519531 87.35199737548828,127.39900207519531 87.35199737548828,127.39900207519531 C87.35199737548828,127.39900207519531 57.047000885009766,157.70399475097656 57.047000885009766,157.70399475097656z M-55.321998596191406,153.53799438476562 C-55.321998596191406,153.53799438476562 55.321998596191406,153.53799438476562 55.321998596191406,153.53799438476562 C55.321998596191406,153.53799438476562 83.18599700927734,125.6729965209961 83.18599700927734,125.6729965209961 C83.18599700927734,125.6729965209961 83.18599700927734,-125.6729965209961 83.18599700927734,-125.6729965209961 C83.18599700927734,-125.6729965209961 55.321998596191406,-153.53799438476562 55.321998596191406,-153.53799438476562 C55.321998596191406,-153.53799438476562 -55.321998596191406,-153.53799438476562 -55.321998596191406,-153.53799438476562 C-55.321998596191406,-153.53799438476562 -83.18499755859375,-125.6729965209961 -83.18499755859375,-125.6729965209961 C-83.18499755859375,-125.6729965209961 -83.18499755859375,125.6729965209961 -83.18499755859375,125.6729965209961 C-83.18499755859375,125.6729965209961 -55.321998596191406,153.53799438476562 -55.321998596191406,153.53799438476562z"></path></g></g><g class="1" style="display: none;"><g><path></path></g></g><g style="display: none;"><g><path></path></g></g><g class="3" style="display: none;"><g><path></path></g></g><g transform="matrix(0.125,0,0,0.125,29.950057983398438,13.187493324279785)" opacity="1" style="display: block;"><g opacity="1" transform="matrix(1,0,0,1,280.41900634765625,373.17999267578125)"><path fill="rgb(44,113,226)" fill-opacity="1" d=" M57.047000885009766,157.70399475097656 C57.047000885009766,157.70399475097656 -57.047000885009766,157.70399475097656 -57.047000885009766,157.70399475097656 C-57.047000885009766,157.70399475097656 -87.35199737548828,127.39900207519531 -87.35199737548828,127.39900207519531 C-87.35199737548828,127.39900207519531 -87.35199737548828,-127.39900207519531 -87.35199737548828,-127.39900207519531 C-87.35199737548828,-127.39900207519531 -57.047000885009766,-157.70399475097656 -57.047000885009766,-157.70399475097656 C-57.047000885009766,-157.70399475097656 57.047000885009766,-157.70399475097656 57.047000885009766,-157.70399475097656 C57.047000885009766,-157.70399475097656 87.35199737548828,-127.39900207519531 87.35199737548828,-127.39900207519531 C87.35199737548828,-127.39900207519531 87.35199737548828,127.39900207519531 87.35199737548828,127.39900207519531 C87.35199737548828,127.39900207519531 57.047000885009766,157.70399475097656 57.047000885009766,157.70399475097656z M-55.321998596191406,153.53799438476562 C-55.321998596191406,153.53799438476562 55.321998596191406,153.53799438476562 55.321998596191406,153.53799438476562 C55.321998596191406,153.53799438476562 83.18599700927734,125.6729965209961 83.18599700927734,125.6729965209961 C83.18599700927734,125.6729965209961 83.18599700927734,-125.6729965209961 83.18599700927734,-125.6729965209961 C83.18599700927734,-125.6729965209961 55.321998596191406,-153.53799438476562 55.321998596191406,-153.53799438476562 C55.321998596191406,-153.53799438476562 -55.321998596191406,-153.53799438476562 -55.321998596191406,-153.53799438476562 C-55.321998596191406,-153.53799438476562 -83.18499755859375,-125.6729965209961 -83.18499755859375,-125.6729965209961 C-83.18499755859375,-125.6729965209961 -83.18499755859375,125.6729965209961 -83.18499755859375,125.6729965209961 C-83.18499755859375,125.6729965209961 -55.321998596191406,153.53799438476562 -55.321998596191406,153.53799438476562z"></path></g></g><g style="display: none;"><g><path></path></g></g><g style="display: none;"><g><path></path></g></g></g></svg>
