<svg xmlns="http://www.w3.org/2000/svg" viewBox="0 0 130 130" width="130" height="130" preserveAspectRatio="xMidYMid meet" style="width: 100%; height: 100%; transform: translate3d(0px, 0px, 0px);"><defs><clipPath id="__lottie_element_611"><rect width="130" height="130" x="0" y="0"></rect></clipPath></defs><g clip-path="url(#__lottie_element_611)"><g transform="matrix(0.11999543756246567,-0.0010471843415871263,0.0010471843415871263,0.11999543756246567,8.058653831481934,5.593029022216797)" opacity="1" style="display: block;"><g opacity="1" transform="matrix(1,0,0,1,470.072998046875,470.072998046875)"><path fill="rgb(0,199,2)" fill-opacity="1" d=" M77.00199890136719,-389.822998046875 C77.00199890136719,-389.822998046875 -77.00199890136719,-389.822998046875 -77.00199890136719,-389.822998046875 C-77.00199890136719,-389.822998046875 -389.822998046875,-77.00199890136719 -389.822998046875,-77.00199890136719 C-389.822998046875,-77.00199890136719 -389.822998046875,77.00199890136719 -389.822998046875,77.00199890136719 C-389.822998046875,77.00199890136719 -77.00199890136719,389.822998046875 -77.00199890136719,389.822998046875 C-77.00199890136719,389.822998046875 77.00199890136719,389.822998046875 77.00199890136719,389.822998046875 C77.00199890136719,389.822998046875 389.822998046875,77.00199890136719 389.822998046875,77.00199890136719 C389.822998046875,77.00199890136719 389.822998046875,-77.00199890136719 389.822998046875,-77.00199890136719 C389.822998046875,-77.00199890136719 77.00199890136719,-389.822998046875 77.00199890136719,-389.822998046875z"></path></g><g opacity="1" transform="matrix(1,0,0,1,799.3319702148438,470.0740051269531)"><path fill="rgb(26,211,27)" fill-opacity="1" d=" M-53.676998138427734,-55.82899856567383 C-53.676998138427734,-55.82899856567383 -60.356998443603516,76.13700103759766 -60.356998443603516,76.13700103759766 C-60.356998443603516,76.13700103759766 60.356998443603516,77.21099853515625 60.356998443603516,77.21099853515625 C60.356998443603516,77.21099853515625 60.356998443603516,-77.20999908447266 60.356998443603516,-77.20999908447266 C60.356998443603516,-77.20999908447266 -53.676998138427734,-55.82899856567383 -53.676998138427734,-55.82899856567383z"></path></g><g opacity="1" transform="matrix(1,0,0,1,677.64599609375,693.8140258789062)"><path fill="rgb(0,162,2)" fill-opacity="1" d=" M182.25100708007812,-156.11399841308594 C182.25100708007812,-156.11399841308594 66.37000274658203,-166.08200073242188 66.37000274658203,-166.08200073242188 C66.37000274658203,-166.08200073242188 -182.25100708007812,8.625 -182.25100708007812,8.625 C-182.25100708007812,8.625 -138.2760009765625,166.08200073242188 -138.2760009765625,166.08200073242188 C-138.2760009765625,166.08200073242188 -130.57000732421875,166.08200073242188 -130.57000732421875,166.08200073242188 C-130.57000732421875,166.08200073242188 182.25100708007812,-146.73899841308594 182.25100708007812,-146.73899841308594 C182.25100708007812,-146.73899841308594 182.25100708007812,-156.11399841308594 182.25100708007812,-156.11399841308594z"></path></g><g opacity="1" transform="matrix(1,0,0,1,470.072998046875,802.1820068359375)"><path fill="rgb(0,134,1)" fill-opacity="1" d=" M54.64099884033203,-57.71500015258789 C54.64099884033203,-57.71500015258789 -55.82899856567383,-56.52799987792969 -55.82899856567383,-56.52799987792969 C-55.82899856567383,-56.52799987792969 -77.00199890136719,57.71500015258789 -77.00199890136719,57.71500015258789 C-77.00199890136719,57.71500015258789 77.00199890136719,57.71500015258789 77.00199890136719,57.71500015258789 C77.00199890136719,57.71500015258789 54.64099884033203,-57.71500015258789 54.64099884033203,-57.71500015258789z"></path></g><g opacity="1" transform="matrix(1,0,0,1,470.072998046875,470.0740051269531)"><path fill="rgb(28,230,29)" fill-opacity="1" d=" M54.66600036621094,-276.7449951171875 C54.66600036621094,-276.7449951171875 -54.66600036621094,-276.7449951171875 -54.66600036621094,-276.7449951171875 C-54.66600036621094,-276.7449951171875 -276.7439880371094,-54.66600036621094 -276.7439880371094,-54.66600036621094 C-276.7439880371094,-54.66600036621094 -276.7439880371094,54.66600036621094 -276.7439880371094,54.66600036621094 C-276.7439880371094,54.66600036621094 -54.66600036621094,276.7449951171875 -54.66600036621094,276.7449951171875 C-54.66600036621094,276.7449951171875 54.66600036621094,276.7449951171875 54.66600036621094,276.7449951171875 C54.66600036621094,276.7449951171875 276.7449951171875,54.66600036621094 276.7449951171875,54.66600036621094 C276.7449951171875,54.66600036621094 276.7449951171875,-54.66600036621094 276.7449951171875,-54.66600036621094 C276.7449951171875,-54.66600036621094 54.66600036621094,-276.7449951171875 54.66600036621094,-276.7449951171875z"></path></g><g opacity="1" transform="matrix(1,0,0,1,470.072998046875,470.072998046875)"><path fill="rgb(0,199,2)" fill-opacity="1" d=" M18.687000274658203,178.71400451660156 C18.687000274658203,178.71400451660156 -18.687000274658203,178.71400451660156 -18.687000274658203,178.71400451660156 C-29.753999710083008,178.71400451660156 -40.15599822998047,174.40499877929688 -47.98099899291992,166.5800018310547 C-47.98099899291992,166.5800018310547 -166.5800018310547,47.981998443603516 -166.5800018310547,47.981998443603516 C-174.40499877929688,40.15700149536133 -178.71499633789062,29.753000259399414 -178.71499633789062,18.687999725341797 C-178.71499633789062,18.687999725341797 -178.71499633789062,-18.687000274658203 -178.71499633789062,-18.687000274658203 C-178.71499633789062,-29.753000259399414 -174.40499877929688,-40.15599822998047 -166.5800018310547,-47.98099899291992 C-166.5800018310547,-47.98099899291992 -47.98099899291992,-166.57899475097656 -47.98099899291992,-166.57899475097656 C-40.15599822998047,-174.4040069580078 -29.753999710083008,-178.71400451660156 -18.687000274658203,-178.71400451660156 C-18.687000274658203,-178.71400451660156 18.687000274658203,-178.71400451660156 18.687000274658203,-178.71400451660156 C29.753999710083008,-178.71400451660156 40.15599822998047,-174.4040069580078 47.98099899291992,-166.57899475097656 C47.98099899291992,-166.57899475097656 166.5800018310547,-47.98099899291992 166.5800018310547,-47.98099899291992 C174.40499877929688,-40.15599822998047 178.71499633789062,-29.753000259399414 178.71499633789062,-18.687000274658203 C178.71499633789062,-18.687000274658203 178.71499633789062,18.687999725341797 178.71499633789062,18.687999725341797 C178.71499633789062,29.753000259399414 174.40499877929688,40.15700149536133 166.5800018310547,47.981998443603516 C166.5800018310547,47.981998443603516 47.98099899291992,166.5800018310547 47.98099899291992,166.5800018310547 C40.15599822998047,174.40499877929688 29.753999710083008,178.71400451660156 18.687000274658203,178.71400451660156z M-18.687000274658203,-173.6739959716797 C-28.406999588012695,-173.6739959716797 -37.54499816894531,-169.88900756835938 -44.417999267578125,-163.01600646972656 C-44.417999267578125,-163.01600646972656 -163.01699829101562,-44.417999267578125 -163.01699829101562,-44.417999267578125 C-169.89100646972656,-37.54399871826172 -173.6750030517578,-28.4060001373291 -173.6750030517578,-18.687000274658203 C-173.6750030517578,-18.687000274658203 -173.6750030517578,18.687999725341797 -173.6750030517578,18.687999725341797 C-173.6750030517578,28.408000946044922 -169.89100646972656,37.54499816894531 -163.01699829101562,44.417999267578125 C-163.01699829101562,44.417999267578125 -44.417999267578125,163.01699829101562 -44.417999267578125,163.01699829101562 C-37.54499816894531,169.88999938964844 -28.406999588012695,173.6750030517578 -18.687000274658203,173.6750030517578 C-18.687000274658203,173.6750030517578 18.687000274658203,173.6750030517578 18.687000274658203,173.6750030517578 C28.406999588012695,173.6750030517578 37.54399871826172,169.88999938964844 44.417999267578125,163.01699829101562 C44.417999267578125,163.01699829101562 163.01699829101562,44.417999267578125 163.01699829101562,44.417999267578125 C169.89100646972656,37.54499816894531 173.6750030517578,28.408000946044922 173.6750030517578,18.687999725341797 C173.6750030517578,18.687999725341797 173.6750030517578,-18.687000274658203 173.6750030517578,-18.687000274658203 C173.6750030517578,-28.4060001373291 169.89100646972656,-37.54399871826172 163.01699829101562,-44.417999267578125 C163.01699829101562,-44.417999267578125 44.417999267578125,-163.01600646972656 44.417999267578125,-163.01600646972656 C37.54399871826172,-169.88900756835938 28.406999588012695,-173.6739959716797 18.687000274658203,-173.6739959716797 C18.687000274658203,-173.6739959716797 -18.687000274658203,-173.6739959716797 -18.687000274658203,-173.6739959716797z"></path></g><g opacity="1" transform="matrix(1,0,0,1,137.47500610351562,470.072998046875)"><path fill="rgb(0,162,2)" fill-opacity="1" d=" M-57.611000061035156,76.61599731445312 C-57.611000061035156,76.61599731445312 56.42300033569336,55.23500061035156 56.42300033569336,55.23500061035156 C56.42300033569336,55.23500061035156 57.611000061035156,-55.23500061035156 57.611000061035156,-55.23500061035156 C57.611000061035156,-55.23500061035156 -56.42300033569336,-76.61599731445312 -56.42300033569336,-76.61599731445312 C-56.42300033569336,-76.61599731445312 -57.611000061035156,76.61599731445312 -57.611000061035156,76.61599731445312z"></path></g><g opacity="1" transform="matrix(1,0,0,1,469.47900390625,138.06900024414062)"><path fill="rgb(54,255,54)" fill-opacity="1" d=" M-55.82899856567383,58.20399856567383 C-55.82899856567383,58.20399856567383 -77.20999908447266,-58.20399856567383 -77.20999908447266,-58.20399856567383 C-77.20999908447266,-58.20399856567383 77.20999908447266,-58.20399856567383 77.20999908447266,-58.20399856567383 C77.20999908447266,-58.20399856567383 55.82899856567383,55.827999114990234 55.82899856567383,55.827999114990234 C55.82899856567383,55.827999114990234 -55.82899856567383,58.20399856567383 -55.82899856567383,58.20399856567383z"></path></g></g><g style="display: none;"><g><path></path></g></g><g style="display: none;"><g><path></path></g></g><g style="display: none;"><g><path></path></g></g><g style="display: none;"><g><path></path></g></g><g transform="matrix(0.11999543756246567,-0.0010471843415871263,0.0010471843415871263,0.11999543756246567,8.058653831481934,5.593029022216797)" opacity="1" style="display: block;"><g opacity="1" transform="matrix(1,0,0,1,470.072998046875,470.072998046875)"><path fill="rgb(0,199,2)" fill-opacity="1" d=" M18.687000274658203,178.71400451660156 C18.687000274658203,178.71400451660156 -18.687000274658203,178.71400451660156 -18.687000274658203,178.71400451660156 C-29.753999710083008,178.71400451660156 -40.15599822998047,174.40499877929688 -47.98099899291992,166.5800018310547 C-47.98099899291992,166.5800018310547 -166.5800018310547,47.981998443603516 -166.5800018310547,47.981998443603516 C-174.40499877929688,40.15700149536133 -178.71499633789062,29.753000259399414 -178.71499633789062,18.687999725341797 C-178.71499633789062,18.687999725341797 -178.71499633789062,-18.687000274658203 -178.71499633789062,-18.687000274658203 C-178.71499633789062,-29.753000259399414 -174.40499877929688,-40.15599822998047 -166.5800018310547,-47.98099899291992 C-166.5800018310547,-47.98099899291992 -47.98099899291992,-166.57899475097656 -47.98099899291992,-166.57899475097656 C-40.15599822998047,-174.4040069580078 -29.753999710083008,-178.71400451660156 -18.687000274658203,-178.71400451660156 C-18.687000274658203,-178.71400451660156 18.687000274658203,-178.71400451660156 18.687000274658203,-178.71400451660156 C29.753999710083008,-178.71400451660156 40.15599822998047,-174.4040069580078 47.98099899291992,-166.57899475097656 C47.98099899291992,-166.57899475097656 166.5800018310547,-47.98099899291992 166.5800018310547,-47.98099899291992 C174.40499877929688,-40.15599822998047 178.71499633789062,-29.753000259399414 178.71499633789062,-18.687000274658203 C178.71499633789062,-18.687000274658203 178.71499633789062,18.687999725341797 178.71499633789062,18.687999725341797 C178.71499633789062,29.753000259399414 174.40499877929688,40.15700149536133 166.5800018310547,47.981998443603516 C166.5800018310547,47.981998443603516 47.98099899291992,166.5800018310547 47.98099899291992,166.5800018310547 C40.15599822998047,174.40499877929688 29.753999710083008,178.71400451660156 18.687000274658203,178.71400451660156z M-18.687000274658203,-173.6739959716797 C-28.406999588012695,-173.6739959716797 -37.54499816894531,-169.88900756835938 -44.417999267578125,-163.01600646972656 C-44.417999267578125,-163.01600646972656 -163.01699829101562,-44.417999267578125 -163.01699829101562,-44.417999267578125 C-169.89100646972656,-37.54399871826172 -173.6750030517578,-28.4060001373291 -173.6750030517578,-18.687000274658203 C-173.6750030517578,-18.687000274658203 -173.6750030517578,18.687999725341797 -173.6750030517578,18.687999725341797 C-173.6750030517578,28.408000946044922 -169.89100646972656,37.54499816894531 -163.01699829101562,44.417999267578125 C-163.01699829101562,44.417999267578125 -44.417999267578125,163.01699829101562 -44.417999267578125,163.01699829101562 C-37.54499816894531,169.88999938964844 -28.406999588012695,173.6750030517578 -18.687000274658203,173.6750030517578 C-18.687000274658203,173.6750030517578 18.687000274658203,173.6750030517578 18.687000274658203,173.6750030517578 C28.406999588012695,173.6750030517578 37.54399871826172,169.88999938964844 44.417999267578125,163.01699829101562 C44.417999267578125,163.01699829101562 163.01699829101562,44.417999267578125 163.01699829101562,44.417999267578125 C169.89100646972656,37.54499816894531 173.6750030517578,28.408000946044922 173.6750030517578,18.687999725341797 C173.6750030517578,18.687999725341797 173.6750030517578,-18.687000274658203 173.6750030517578,-18.687000274658203 C173.6750030517578,-28.4060001373291 169.89100646972656,-37.54399871826172 163.01699829101562,-44.417999267578125 C163.01699829101562,-44.417999267578125 44.417999267578125,-163.01600646972656 44.417999267578125,-163.01600646972656 C37.54399871826172,-169.88900756835938 28.406999588012695,-173.6739959716797 18.687000274658203,-173.6739959716797 C18.687000274658203,-173.6739959716797 -18.687000274658203,-173.6739959716797 -18.687000274658203,-173.6739959716797z"></path></g></g><g style="display: none;"><g><path></path></g></g><g style="display: none;"><g><path></path></g></g></g></svg>
