<svg xmlns="http://www.w3.org/2000/svg" viewBox="0 0 130 130" width="130" height="130" preserveAspectRatio="xMidYMid meet" style="width: 100%; height: 100%; transform: translate3d(0px, 0px, 0px);"><defs><clipPath id="__lottie_element_427"><rect width="130" height="130" x="0" y="0"></rect></clipPath></defs><g clip-path="url(#__lottie_element_427)"><g transform="matrix(0.13124500215053558,-0.0011453577317297459,0.0011453577317297459,0.13124500215053558,-0.06862279772758484,-2.588801145553589)" opacity="1" style="display: block;"><g opacity="1" transform="matrix(1,0,0,1,492.50799560546875,492.5090026855469)"><path fill="rgb(3,214,223)" fill-opacity="1" d=" M379.1210021972656,0 C379.1210021972656,0 379.1210021972656,0 379.1210021972656,0 C379.1210021972656,0 379.1080017089844,-0.013000000268220901 379.1080017089844,-0.013000000268220901 C379.1080017089844,-0.013000000268220901 379.10699462890625,-0.013000000268220901 379.10699462890625,-0.013000000268220901 C379.10699462890625,-0.013000000268220901 -0.0010000000474974513,-379.12200927734375 -0.0010000000474974513,-379.12200927734375 C-0.0010000000474974513,-379.12200927734375 -379.1210021972656,0 -379.1210021972656,0 C-379.1210021972656,0 -0.0010000000474974513,379.12200927734375 -0.0010000000474974513,379.12200927734375 C-0.0010000000474974513,379.12200927734375 379.10699462890625,0.013000000268220901 379.10699462890625,0.013000000268220901 C379.10699462890625,0.013000000268220901 379.1080017089844,0.014000000432133675 379.1080017089844,0.014000000432133675 C379.1080017089844,0.014000000432133675 379.1189880371094,0.0020000000949949026 379.1189880371094,0.0020000000949949026 C379.1189880371094,0.0020000000949949026 379.1210021972656,0 379.1210021972656,0z"></path></g><g opacity="1" transform="matrix(1,0,0,1,492.50799560546875,113.38700103759766)"><path fill="rgb(232,132,255)" fill-opacity="1" d=" M0,0 C0,0 0,0 0,0 C0,0 0,0 0,0 C0,0 0,0 0,0z"></path></g><g opacity="1" transform="matrix(1,0,0,1,871.6290283203125,492.510009765625)"><path fill="rgb(232,132,255)" fill-opacity="1" d=" M-0.0010000000474974513,0.0010000000474974513 C-0.0010000000474974513,0.0010000000474974513 0.0010000000474974513,-0.0010000000474974513 0.0010000000474974513,-0.0010000000474974513 C0.0010000000474974513,-0.0010000000474974513 -0.0010000000474974513,0.0010000000474974513 -0.0010000000474974513,0.0010000000474974513z M0.0010000000474974513,-0.0010000000474974513 C0.0010000000474974513,-0.0010000000474974513 0.0010000000474974513,-0.0020000000949949026 0.0010000000474974513,-0.0020000000949949026 C0.0010000000474974513,-0.0020000000949949026 0.0010000000474974513,-0.0010000000474974513 0.0010000000474974513,-0.0010000000474974513z"></path></g><g opacity="1" transform="matrix(1,0,0,1,176.572998046875,429.3219909667969)"><path fill="rgb(232,132,255)" fill-opacity="1" d=" M63.1870002746582,-63.1870002746582 C63.1870002746582,-63.1870002746582 -63.1870002746582,63.1870002746582 -63.1870002746582,63.1870002746582 C-63.1870002746582,63.1870002746582 63.1870002746582,-63.1870002746582 63.1870002746582,-63.1870002746582z"></path></g><g opacity="1" transform="matrix(1,0,0,1,750.614990234375,492.5090026855469)"><path fill="rgb(3,184,190)" fill-opacity="1" d=" M-120.97799682617188,136.7570037841797 C-120.97799682617188,136.7570037841797 120.97799682617188,0 120.97799682617188,0 C120.97799682617188,0 -120.97799682617188,-136.7570037841797 -120.97799682617188,-136.7570037841797 C-120.97799682617188,-136.7570037841797 -120.97799682617188,136.7570037841797 -120.97799682617188,136.7570037841797z"></path></g><g opacity="1" transform="matrix(1,0,0,1,302.9469909667969,682.0700073242188)"><path fill="rgb(232,132,255)" fill-opacity="1" d=" M-189.56100463867188,-189.56100463867188 C-189.56100463867188,-189.56100463867188 -189.56100463867188,-189.56100463867188 -189.56100463867188,-189.56100463867188 C-189.56100463867188,-189.56100463867188 189.56100463867188,189.55999755859375 189.56100463867188,189.55999755859375 C189.56100463867188,189.55999755859375 -189.56100463867188,-189.56100463867188 -189.56100463867188,-189.56100463867188z"></path></g><g opacity="1" transform="matrix(1,0,0,1,492.50799560546875,234.38299560546875)"><path fill="rgb(107,249,255)" fill-opacity="1" d=" M0.0010000000474974513,-120.99600219726562 C0.0010000000474974513,-120.99600219726562 0.0010000000474974513,-120.99600219726562 0.0010000000474974513,-120.99600219726562 C0.0010000000474974513,-120.99600219726562 -0.0010000000474974513,-120.99600219726562 -0.0010000000474974513,-120.99600219726562 C-0.0010000000474974513,-120.99600219726562 -136.7570037841797,120.99600219726562 -136.7570037841797,120.99600219726562 C-136.7570037841797,120.99600219726562 136.7570037841797,120.99600219726562 136.7570037841797,120.99600219726562 C136.7570037841797,120.99600219726562 0.0010000000474974513,-120.99600219726562 0.0010000000474974513,-120.99600219726562z"></path></g><g opacity="1" transform="matrix(1,0,0,1,808.4359741210938,429.31500244140625)"><path fill="rgb(232,132,255)" fill-opacity="1" d=" M63.18000030517578,63.18000030517578 C63.18000030517578,63.18000030517578 -63.18000030517578,-63.18000030517578 -63.18000030517578,-63.18000030517578 C-63.18000030517578,-63.18000030517578 63.18000030517578,63.18000030517578 63.18000030517578,63.18000030517578z"></path></g><g opacity="1" transform="matrix(1,0,0,1,682.06201171875,682.0759887695312)"><path fill="rgb(232,132,255)" fill-opacity="1" d=" M-189.55499267578125,189.5540008544922 C-189.55499267578125,189.5540008544922 189.55499267578125,-189.5540008544922 189.55499267578125,-189.5540008544922 C189.55499267578125,-189.5540008544922 189.55299377441406,-189.5540008544922 189.55299377441406,-189.5540008544922 C189.55299377441406,-189.5540008544922 -189.55499267578125,189.5540008544922 -189.55499267578125,189.5540008544922z"></path></g><g opacity="1" transform="matrix(1,0,0,1,492.50799560546875,750.6339721679688)"><path fill="rgb(3,184,190)" fill-opacity="1" d=" M-136.75799560546875,-120.99600219726562 C-136.75799560546875,-120.99600219726562 -0.0010000000474974513,120.99600219726562 -0.0010000000474974513,120.99600219726562 C-0.0010000000474974513,120.99600219726562 136.75799560546875,-120.99600219726562 136.75799560546875,-120.99600219726562 C136.75799560546875,-120.99600219726562 -136.75799560546875,-120.99600219726562 -136.75799560546875,-120.99600219726562z"></path></g><g opacity="1" transform="matrix(1,0,0,1,234.38299560546875,492.5090026855469)"><path fill="rgb(107,249,255)" fill-opacity="1" d=" M-120.99600219726562,0 C-120.99600219726562,0 120.99600219726562,136.7570037841797 120.99600219726562,136.7570037841797 C120.99600219726562,136.7570037841797 120.99600219726562,-136.7570037841797 120.99600219726562,-136.7570037841797 C120.99600219726562,-136.7570037841797 -120.99600219726562,0 -120.99600219726562,0z"></path></g><g opacity="1" transform="matrix(1,0,0,1,492.50799560546875,492.5090026855469)"><path fill="rgb(3,214,223)" fill-opacity="1" d=" M136.89199829101562,-136.89199829101562 C136.89199829101562,-136.89199829101562 136.7570037841797,-137.12899780273438 136.7570037841797,-137.12899780273438 C136.7570037841797,-137.12899780273438 -136.7570037841797,-137.12899780273438 -136.7570037841797,-137.12899780273438 C-136.7570037841797,-137.12899780273438 -136.89199829101562,-136.89199829101562 -136.89199829101562,-136.89199829101562 C-136.89199829101562,-136.89199829101562 -137.12899780273438,-136.7570037841797 -137.12899780273438,-136.7570037841797 C-137.12899780273438,-136.7570037841797 -137.12899780273438,136.75599670410156 -137.12899780273438,136.75599670410156 C-137.12899780273438,136.75599670410156 -136.89199829101562,136.89100646972656 -136.89199829101562,136.89100646972656 C-136.89199829101562,136.89100646972656 -136.7570037841797,137.1300048828125 -136.7570037841797,137.1300048828125 C-136.7570037841797,137.1300048828125 136.7570037841797,137.1300048828125 136.7570037841797,137.1300048828125 C136.7570037841797,137.1300048828125 136.89199829101562,136.89100646972656 136.89199829101562,136.89100646972656 C136.89199829101562,136.89100646972656 137.12899780273438,136.75599670410156 137.12899780273438,136.75599670410156 C137.12899780273438,136.75599670410156 137.12899780273438,-136.7570037841797 137.12899780273438,-136.7570037841797 C137.12899780273438,-136.7570037841797 136.89199829101562,-136.89199829101562 136.89199829101562,-136.89199829101562z"></path></g><g opacity="1" transform="matrix(1,0,0,1,366.1340026855469,239.76100158691406)"><path fill="rgb(245,204,255)" fill-opacity="1" d=" M126.3740005493164,-126.3740005493164 C126.3740005493164,-126.3740005493164 -126.3740005493164,126.3740005493164 -126.3740005493164,126.3740005493164 C-126.3740005493164,126.3740005493164 126.3740005493164,-126.3740005493164 126.3740005493164,-126.3740005493164z"></path></g><g opacity="1" transform="matrix(1,0,0,1,302.9469909667969,302.947998046875)"><path fill="rgb(58,231,236)" fill-opacity="1" d=" M-189.56100463867188,189.55999755859375 C-189.56100463867188,189.55999755859375 52.430999755859375,52.80400085449219 52.430999755859375,52.80400085449219 C52.430999755859375,52.80400085449219 52.430999755859375,52.43199920654297 52.430999755859375,52.43199920654297 C52.430999755859375,52.43199920654297 52.803001403808594,52.43199920654297 52.803001403808594,52.43199920654297 C52.803001403808594,52.43199920654297 189.55999755859375,-189.55999755859375 189.55999755859375,-189.55999755859375 C189.55999755859375,-189.55999755859375 -63.1870002746582,63.1870002746582 -63.1870002746582,63.1870002746582 C-63.1870002746582,63.1870002746582 -189.56100463867188,189.55999755859375 -189.56100463867188,189.55999755859375z"></path></g><g opacity="1" transform="matrix(1,0,0,1,0,0)"><path fill="rgb(245,204,255)" fill-opacity="1" d=" M113.38600158691406,492.5090026855469 C113.38600158691406,492.5090026855469 113.38600158691406,492.50799560546875 113.38600158691406,492.50799560546875 C113.38600158691406,492.50799560546875 113.38600158691406,492.5090026855469 113.38600158691406,492.5090026855469z"></path></g><g opacity="1" transform="matrix(1,0,0,1,355.56500244140625,355.5660095214844)"><path fill="rgb(245,204,255)" fill-opacity="1" d=" M-0.1860000044107437,-0.1860000044107437 C-0.1860000044107437,-0.1860000044107437 -0.1860000044107437,0.1860000044107437 -0.1860000044107437,0.1860000044107437 C-0.1860000044107437,0.1860000044107437 0.052000001072883606,0.052000001072883606 0.052000001072883606,0.052000001072883606 C0.052000001072883606,0.052000001072883606 0.1860000044107437,-0.1860000044107437 0.1860000044107437,-0.1860000044107437 C0.1860000044107437,-0.1860000044107437 -0.1860000044107437,-0.1860000044107437 -0.1860000044107437,-0.1860000044107437z"></path></g><g opacity="1" transform="matrix(1,0,0,1,618.8820190429688,239.76100158691406)"><path fill="rgb(245,204,255)" fill-opacity="1" d=" M126.3740005493164,126.3740005493164 C126.3740005493164,126.3740005493164 -126.3740005493164,-126.3740005493164 -126.3740005493164,-126.3740005493164 C-126.3740005493164,-126.3740005493164 -126.37300109863281,-126.3740005493164 -126.37300109863281,-126.3740005493164 C-126.37300109863281,-126.3740005493164 126.3740005493164,126.3740005493164 126.3740005493164,126.3740005493164z"></path></g><g opacity="1" transform="matrix(1,0,0,1,871.6220092773438,492.5159912109375)"><path fill="rgb(245,204,255)" fill-opacity="1" d=" M-0.004999999888241291,0.004999999888241291 C-0.004999999888241291,0.004999999888241291 0.004999999888241291,-0.004999999888241291 0.004999999888241291,-0.004999999888241291 C0.004999999888241291,-0.004999999888241291 -0.004999999888241291,0.004999999888241291 -0.004999999888241291,0.004999999888241291z"></path></g><g opacity="1" transform="matrix(1,0,0,1,682.06201171875,302.947998046875)"><path fill="rgb(58,231,236)" fill-opacity="1" d=" M-52.797000885009766,52.430999755859375 C-52.797000885009766,52.430999755859375 -52.42499923706055,52.430999755859375 -52.42499923706055,52.430999755859375 C-52.42499923706055,52.430999755859375 -52.42499923706055,52.803001403808594 -52.42499923706055,52.803001403808594 C-52.42499923706055,52.803001403808594 189.531005859375,189.55999755859375 189.531005859375,189.55999755859375 C189.531005859375,189.55999755859375 189.5540008544922,189.5469970703125 189.5540008544922,189.5469970703125 C189.5540008544922,189.5469970703125 63.19300079345703,63.18600082397461 63.19300079345703,63.18600082397461 C63.19300079345703,63.18600082397461 -189.5540008544922,-189.55999755859375 -189.5540008544922,-189.55999755859375 C-189.5540008544922,-189.55999755859375 -52.797000885009766,52.430999755859375 -52.797000885009766,52.430999755859375z"></path></g><g opacity="1" transform="matrix(1,0,0,1,871.6229858398438,492.5150146484375)"><path fill="rgb(245,204,255)" fill-opacity="1" d=" M-0.006000000052154064,0.006000000052154064 C-0.006000000052154064,0.006000000052154064 -0.004999999888241291,0.006000000052154064 -0.004999999888241291,0.006000000052154064 C-0.004999999888241291,0.006000000052154064 0.004999999888241291,-0.004999999888241291 0.004999999888241291,-0.004999999888241291 C0.004999999888241291,-0.004999999888241291 0.006000000052154064,-0.006000000052154064 0.006000000052154064,-0.006000000052154064 C0.006000000052154064,-0.006000000052154064 -0.006000000052154064,0.006000000052154064 -0.006000000052154064,0.006000000052154064z"></path></g><g opacity="1" transform="matrix(1,0,0,1,629.4520263671875,355.5660095214844)"><path fill="rgb(245,204,255)" fill-opacity="1" d=" M-0.1860000044107437,-0.1860000044107437 C-0.1860000044107437,-0.1860000044107437 -0.052000001072883606,0.052000001072883606 -0.052000001072883606,0.052000001072883606 C-0.052000001072883606,0.052000001072883606 0.18700000643730164,0.1860000044107437 0.18700000643730164,0.1860000044107437 C0.18700000643730164,0.1860000044107437 0.18700000643730164,-0.1860000044107437 0.18700000643730164,-0.1860000044107437 C0.18700000643730164,-0.1860000044107437 -0.1860000044107437,-0.1860000044107437 -0.1860000044107437,-0.1860000044107437z"></path></g><g opacity="1" transform="matrix(1,0,0,1,0.5,0.5)"><path fill="rgb(245,204,255)" fill-opacity="1" d="M0 0"></path></g><g opacity="1" transform="matrix(1,0,0,1,302.9469909667969,682.0689697265625)"><path fill="rgb(58,231,236)" fill-opacity="1" d=" M52.43199920654297,-52.430999755859375 C52.43199920654297,-52.430999755859375 52.43199920654297,-52.803001403808594 52.43199920654297,-52.803001403808594 C52.43199920654297,-52.803001403808594 -189.55999755859375,-189.55999755859375 -189.55999755859375,-189.55999755859375 C-189.55999755859375,-189.55999755859375 189.56100463867188,189.55999755859375 189.56100463867188,189.55999755859375 C189.56100463867188,189.55999755859375 52.803001403808594,-52.430999755859375 52.803001403808594,-52.430999755859375 C52.803001403808594,-52.430999755859375 52.43199920654297,-52.430999755859375 52.43199920654297,-52.430999755859375z"></path></g><g opacity="1" transform="matrix(1,0,0,1,0.5,0.5)"><path fill="rgb(245,204,255)" fill-opacity="1" d="M0 0"></path></g><g opacity="1" transform="matrix(1,0,0,1,355.56500244140625,629.4520263671875)"><path fill="rgb(245,204,255)" fill-opacity="1" d=" M-0.1860000044107437,0.1860000044107437 C-0.1860000044107437,0.1860000044107437 0.1860000044107437,0.1860000044107437 0.1860000044107437,0.1860000044107437 C0.1860000044107437,0.1860000044107437 0.052000001072883606,-0.050999999046325684 0.052000001072883606,-0.050999999046325684 C0.052000001072883606,-0.050999999046325684 -0.1860000044107437,-0.1860000044107437 -0.1860000044107437,-0.1860000044107437 C-0.1860000044107437,-0.1860000044107437 -0.1860000044107437,0.1860000044107437 -0.1860000044107437,0.1860000044107437z"></path></g><g opacity="1" transform="matrix(1,0,0,1,0,0)"><path fill="rgb(245,204,255)" fill-opacity="1" d=" M113.38600158691406,492.50799560546875 C113.38600158691406,492.50799560546875 113.38700103759766,492.50799560546875 113.38700103759766,492.50799560546875 C113.38700103759766,492.50799560546875 113.38600158691406,492.50799560546875 113.38600158691406,492.50799560546875z"></path></g><g opacity="1" transform="matrix(1,0,0,1,871.6229858398438,492.50201416015625)"><path fill="rgb(245,204,255)" fill-opacity="1" d=" M-0.006000000052154064,-0.007000000216066837 C-0.006000000052154064,-0.007000000216066837 0.006000000052154064,0.007000000216066837 0.006000000052154064,0.007000000216066837 C0.006000000052154064,0.007000000216066837 -0.004999999888241291,-0.007000000216066837 -0.004999999888241291,-0.007000000216066837 C-0.004999999888241291,-0.007000000216066837 -0.006000000052154064,-0.007000000216066837 -0.006000000052154064,-0.007000000216066837z"></path></g><g opacity="1" transform="matrix(1,0,0,1,682.06201171875,682.0700073242188)"><path fill="rgb(2,151,158)" fill-opacity="1" d=" M189.53199768066406,-189.56100463867188 C189.53199768066406,-189.56100463867188 -52.42399978637695,-52.80400085449219 -52.42399978637695,-52.80400085449219 C-52.42399978637695,-52.80400085449219 -52.42399978637695,-52.43199920654297 -52.42399978637695,-52.43199920654297 C-52.42399978637695,-52.43199920654297 -52.79600143432617,-52.43199920654297 -52.79600143432617,-52.43199920654297 C-52.79600143432617,-52.43199920654297 -189.55299377441406,189.56100463867188 -189.55299377441406,189.56100463867188 C-189.55299377441406,189.56100463867188 189.5540008544922,-189.54800415039062 189.5540008544922,-189.54800415039062 C189.5540008544922,-189.54800415039062 189.53199768066406,-189.56100463867188 189.53199768066406,-189.56100463867188z"></path></g><g opacity="1" transform="matrix(1,0,0,1,871.6229858398438,492.50201416015625)"><path fill="rgb(245,204,255)" fill-opacity="1" d=" M0.007000000216066837,0.006000000052154064 C0.007000000216066837,0.006000000052154064 -0.007000000216066837,-0.006000000052154064 -0.007000000216066837,-0.006000000052154064 C-0.007000000216066837,-0.006000000052154064 0.007000000216066837,0.006000000052154064 0.007000000216066837,0.006000000052154064z"></path></g><g opacity="1" transform="matrix(1,0,0,1,629.4509887695312,629.4520263671875)"><path fill="rgb(245,204,255)" fill-opacity="1" d=" M-0.052000001072883606,-0.050999999046325684 C-0.052000001072883606,-0.050999999046325684 -0.1860000044107437,0.1860000044107437 -0.1860000044107437,0.1860000044107437 C-0.1860000044107437,0.1860000044107437 0.1860000044107437,0.1860000044107437 0.1860000044107437,0.1860000044107437 C0.1860000044107437,0.1860000044107437 0.1860000044107437,-0.1860000044107437 0.1860000044107437,-0.1860000044107437 C0.1860000044107437,-0.1860000044107437 -0.052000001072883606,-0.050999999046325684 -0.052000001072883606,-0.050999999046325684z"></path></g><g opacity="1" transform="matrix(1,0,0,1,871.6119995117188,492.50799560546875)"><path fill="rgb(245,204,255)" fill-opacity="1" d=" M-0.017999999225139618,0 C-0.017999999225139618,0 0.004000000189989805,0.013000000268220901 0.004000000189989805,0.013000000268220901 C0.004000000189989805,0.013000000268220901 0.017999999225139618,0 0.017999999225139618,0 C0.017999999225139618,0 0.004000000189989805,-0.013000000268220901 0.004000000189989805,-0.013000000268220901 C0.004000000189989805,-0.013000000268220901 -0.017999999225139618,0 -0.017999999225139618,0z"></path></g></g><g class="1 1" style="display: none;"><g><path></path></g></g><g class="2 2" style="display: none;"><g><path></path></g></g><g class="5 5" style="display: none;"><g><path></path></g></g><g class="3 3" style="display: none;"><g><path></path></g></g><g class="4 4" style="display: none;"><g><path></path></g></g><g style="display: none;"><g><path></path></g></g><g style="display: none;"><g><path></path></g></g></g></svg>
