<svg xmlns="http://www.w3.org/2000/svg" viewBox="0 0 130 130" width="130" height="130" preserveAspectRatio="xMidYMid meet" style="width: 100%; height: 100%; transform: translate3d(0px, 0px, 0px);"><defs><clipPath id="__lottie_element_452"><rect width="130" height="130" x="0" y="0"></rect></clipPath></defs><g clip-path="url(#__lottie_element_452)"><g transform="matrix(0.12074539810419083,-0.0010537290945649147,0.0010537290945649147,0.12074539810419083,15.541756629943848,4.8063836097717285)" opacity="1" style="display: block;"><g opacity="1" transform="matrix(1,0,0,1,405.10198974609375,473.4530029296875)"><path fill="rgb(190,79,145)" fill-opacity="1" d=" M335.54400634765625,248.69700622558594 C335.54400634765625,248.69700622558594 335.54400634765625,-248.69700622558594 335.54400634765625,-248.69700622558594 C335.54400634765625,-248.69700622558594 0,-392.19500732421875 0,-392.19500732421875 C0,-392.19500732421875 -335.54400634765625,-248.69700622558594 -335.54400634765625,-248.69700622558594 C-335.54400634765625,-248.69700622558594 -335.54400634765625,248.69700622558594 -335.54400634765625,248.69700622558594 C-335.54400634765625,248.69700622558594 0,392.19500732421875 0,392.19500732421875 C0,392.19500732421875 335.54400634765625,248.69700622558594 335.54400634765625,248.69700622558594z"></path></g><g opacity="1" transform="matrix(1,0,0,1,549.666015625,214.87399291992188)"><path fill="rgb(255,130,204)" fill-opacity="1" d=" M-144.56399536132812,-133.61599731445312 C-173.97999572753906,-78.0199966430664 -190.97999572753906,-27.00200080871582 -143.32699584960938,0.17100000381469727 C-136.45799255371094,93.30599975585938 -78.60900115966797,133.61500549316406 62.02899932861328,88.13899993896484 C121.3239974975586,122.76599884033203 159.31199645996094,78.08200073242188 190.9810028076172,9.883999824523926 C190.9810028076172,9.883999824523926 -144.56399536132812,-133.61599731445312 -144.56399536132812,-133.61599731445312z"></path></g><g opacity="1" transform="matrix(1,0,0,1,572.8740234375,732.0330200195312)"><path fill="rgb(188,42,129)" fill-opacity="1" d=" M-167.77200317382812,133.61500549316406 C-167.77200317382812,133.61500549316406 -166.53500366210938,-0.17100000381469727 -166.53500366210938,-0.17100000381469727 C-159.66600036621094,-93.30599975585938 -101.81700134277344,-133.61500549316406 38.82099914550781,-88.13999938964844 C94.83399963378906,-130.0989990234375 134.3820037841797,-86.06900024414062 167.7729949951172,-9.883000373840332 C167.7729949951172,-9.883000373840332 -167.77200317382812,133.61500549316406 -167.77200317382812,133.61500549316406z"></path></g><g opacity="1" transform="matrix(1,0,0,1,579.7030029296875,473.4540100097656)"><path fill="rgb(255,145,210)" fill-opacity="1" d=" M31.993000030517578,-170.44000244140625 C-160.94400024414062,-170.44000244140625 -160.94400024414062,170.43899536132812 31.993000030517578,170.43899536132812 C31.993000030517578,170.43899536132812 160.94400024414062,248.6959991455078 160.94400024414062,248.6959991455078 C160.94400024414062,248.6959991455078 160.94400024414062,-248.6959991455078 160.94400024414062,-248.6959991455078 C160.94400024414062,-248.6959991455078 31.993000030517578,-170.44000244140625 31.993000030517578,-170.44000244140625z"></path></g><g opacity="1" transform="matrix(1,0,0,1,237.94900512695312,214.87399291992188)"><path fill="rgb(255,198,232)" fill-opacity="1" d=" M167.1540069580078,-133.61599731445312 C167.1540069580078,-133.61599731445312 168.39100646972656,7.500999927520752 168.39100646972656,7.500999927520752 C161.52200317382812,100.63600158691406 101.197998046875,133.61500549316406 -39.439998626708984,88.13899993896484 C-88.5260009765625,115.13800048828125 -128.69200134277344,64.53600311279297 -168.39100646972656,9.883999824523926 C-168.39100646972656,9.883999824523926 167.1540069580078,-133.61599731445312 167.1540069580078,-133.61599731445312z"></path></g><g opacity="1" transform="matrix(1,0,0,1,237.94900512695312,732.0330200195312)"><path fill="rgb(219,71,159)" fill-opacity="1" d=" M167.1540069580078,133.61500549316406 C167.1540069580078,133.61500549316406 168.39100646972656,-11.166999816894531 168.39100646972656,-11.166999816894531 C161.52200317382812,-104.302001953125 101.197998046875,-133.61500549316406 -39.439998626708984,-88.13999938964844 C-94.94999694824219,-129.6929931640625 -132.86000061035156,-76.20700073242188 -168.39100646972656,-9.883000373840332 C-168.39100646972656,-9.883000373840332 167.1540069580078,133.61500549316406 167.1540069580078,133.61500549316406z"></path></g><g opacity="1" transform="matrix(1,0,0,1,230.5019989013672,473.4540100097656)"><path fill="rgb(255,145,210)" fill-opacity="1" d=" M-31.993000030517578,-170.44000244140625 C160.94400024414062,-170.44000244140625 160.94400024414062,170.43899536132812 -31.993000030517578,170.43899536132812 C-31.993000030517578,170.43899536132812 -160.94400024414062,248.6959991455078 -160.94400024414062,248.6959991455078 C-160.94400024414062,248.6959991455078 -160.94400024414062,-248.6959991455078 -160.94400024414062,-248.6959991455078 C-160.94400024414062,-248.6959991455078 -31.993000030517578,-170.44000244140625 -31.993000030517578,-170.44000244140625z"></path></g><g opacity="1" transform="matrix(1,0,0,1,405.10198974609375,473.4540100097656)"><path fill="rgb(255,105,193)" fill-opacity="1" d=" M206.24600219726562,169.73399353027344 C206.24600219726562,169.73399353027344 206.24600219726562,-169.73399353027344 206.24600219726562,-169.73399353027344 C206.24600219726562,-169.73399353027344 0,-257.93701171875 0,-257.93701171875 C0,-257.93701171875 -206.24600219726562,-169.73399353027344 -206.24600219726562,-169.73399353027344 C-206.24600219726562,-169.73399353027344 -206.24600219726562,169.73399353027344 -206.24600219726562,169.73399353027344 C-206.24600219726562,169.73399353027344 0,257.93701171875 0,257.93701171875 C0,257.93701171875 206.24600219726562,169.73399353027344 206.24600219726562,169.73399353027344z"></path></g></g><g class="1 1" style="display: none;"><g><path></path></g></g><g class="4 4" style="display: none;"><g><path></path></g></g><g class="2 2" style="display: none;"><g><path></path></g></g><g class="3 3" style="display: none;"><g><path></path></g></g><g style="display: none;"><g><path></path></g></g><g style="display: none;"><g><path></path></g></g></g></svg>
