<svg xmlns="http://www.w3.org/2000/svg" viewBox="0 0 130 130" width="130" height="130" preserveAspectRatio="xMidYMid meet" style="width: 100%; height: 100%; transform: translate3d(0px, 0px, 0px);"><defs><clipPath id="__lottie_element_483"><rect width="130" height="130" x="0" y="0"></rect></clipPath></defs><g clip-path="url(#__lottie_element_483)"><g transform="matrix(0.11499562114477158,-0.0010035516461357474,0.0010035516461357474,0.11499562114477158,2.2420828342437744,6.147618770599365)" opacity="1" style="display: block;"><g opacity="1" transform="matrix(1,0,0,1,331.10198974609375,217.36000061035156)"><path fill="rgb(150,99,250)" fill-opacity="1" d=" M-32.8489990234375,-83.24700164794922 C-92.51899719238281,2.822999954223633 -119.68900299072266,74.41500091552734 -126.88400268554688,137.10899353027344 C-8.61299991607666,77.49099731445312 83.89900207519531,-46.56999969482422 126.88400268554688,-137.10899353027344 C126.88400268554688,-137.10899353027344 -32.8489990234375,-83.24700164794922 -32.8489990234375,-83.24700164794922z"></path></g><g opacity="1" transform="matrix(1,0,0,1,372.6830139160156,228.3820037841797)"><path fill="rgb(196,168,250)" fill-opacity="1" d=" M-168.46499633789062,126.08699798583984 C-56.154998779296875,148.5240020751953 56.154998779296875,148.5240020751953 168.46499633789062,126.08699798583984 C162.7010040283203,51.167999267578125 131.21200561523438,-76.28700256347656 85.30400085449219,-148.5240020751953 C85.30400085449219,-148.5240020751953 -168.46499633789062,126.08699798583984 -168.46499633789062,126.08699798583984z"></path></g><g opacity="1" transform="matrix(1,0,0,1,185.97799682617188,477.3349914550781)"><path fill="rgb(150,99,250)" fill-opacity="1" d=" M80.87699890136719,146.38999938964844 C86.04900360107422,80.52799987792969 55.46900177001953,-18.118999481201172 18.23900032043457,-122.86599731445312 C-12.10200023651123,-146.39100646972656 -47.41999816894531,-143.43499755859375 -86.04900360107422,-122.86599731445312 C-86.04900360107422,-122.86599731445312 80.87699890136719,146.38999938964844 80.87699890136719,146.38999938964844z"></path></g><g opacity="1" transform="matrix(1,0,0,1,404.45001220703125,744.9829711914062)"><path fill="rgb(91,26,217)" fill-opacity="1" d=" M12.029999732971191,-97.0790023803711 C12.029999732971191,-97.0790023803711 11.616999626159668,-97.64800262451172 11.616999626159668,-97.64800262451172 C11.616999626159668,-97.64800262451172 -47.74399948120117,-124.34100341796875 -47.74399948120117,-124.34100341796875 C-47.74399948120117,-124.34100341796875 -136.69700622558594,-120.46600341796875 -136.69700622558594,-120.46600341796875 C-136.69700622558594,-120.46600341796875 136.69700622558594,120.46600341796875 136.69700622558594,120.46600341796875 C117.89800262451172,38.25 81.92900085449219,-36.64699935913086 12.029999732971191,-97.0790023803711z"></path></g><g opacity="1" transform="matrix(1,0,0,1,372.6830139160156,501.18701171875)"><path fill="rgb(134,75,250)" fill-opacity="1" d=" M168.46499633789062,-146.7169952392578 C138.8699951171875,-30.336000442504883 100.54299926757812,72.48699951171875 43.797000885009766,146.7169952392578 C-43.084999084472656,72.74600219726562 -113.83899688720703,-25.06599998474121 -168.46499633789062,-146.7169952392578 C-168.46499633789062,-146.7169952392578 168.46499633789062,-146.7169952392578 168.46499633789062,-146.7169952392578z"></path></g><g opacity="1" transform="matrix(1,0,0,1,310.14300537109375,500.9020080566406)"><path fill="rgb(108,45,230)" fill-opacity="1" d=" M-105.92500305175781,-146.4320068359375 C-105.92500305175781,-146.4320068359375 -43.28900146484375,122.822998046875 -43.28900146484375,122.822998046875 C-43.28900146484375,122.822998046875 -42.38999938964844,123.61499786376953 -42.38999938964844,123.61499786376953 C-42.38999938964844,123.61499786376953 105.92500305175781,146.4320068359375 105.92500305175781,146.4320068359375 C105.92500305175781,146.4320068359375 -105.92500305175781,-146.4320068359375 -105.92500305175781,-146.4320068359375z"></path></g><g opacity="1" transform="matrix(1,0,0,1,751.1950073242188,217.36000061035156)"><path fill="rgb(171,131,250)" fill-opacity="1" d=" M32.849998474121094,-83.24700164794922 C88.96199798583984,6.302999973297119 120.30699920654297,79.75499725341797 126.88500213623047,137.10899353027344 C22.757999420166016,73.2750015258789 -64.79199981689453,-52.58100128173828 -126.88400268554688,-137.10899353027344 C-126.88400268554688,-137.10899353027344 32.849998474121094,-83.24700164794922 32.849998474121094,-83.24700164794922z"></path></g><g opacity="1" transform="matrix(1,0,0,1,709.614990234375,236.08299255371094)"><path fill="rgb(150,99,250)" fill-opacity="1" d=" M168.46600341796875,118.38600158691406 C52.95000076293945,151.7239990234375 -59.79399871826172,156.22500610351562 -168.46600341796875,118.38600158691406 C-157.63800048828125,34.939998626708984 -126.28099822998047,-90.61499786376953 -85.30500030517578,-156.22500610351562 C-85.30500030517578,-156.22500610351562 168.46600341796875,118.38600158691406 168.46600341796875,118.38600158691406z"></path></g><g opacity="1" transform="matrix(1,0,0,1,883.2059936523438,257.90899658203125)"><path fill="rgb(150,99,250)" fill-opacity="1" d=" M-99.16100311279297,-123.7959976196289 C-99.16100311279297,-123.7959976196289 -5.126999855041504,96.56099700927734 -5.126999855041504,96.56099700927734 C29.98900032043457,123.7959976196289 64.62899780273438,114.29000091552734 99.16100311279297,96.56099700927734 C99.16100311279297,96.56099700927734 -99.16100311279297,-123.7959976196289 -99.16100311279297,-123.7959976196289z"></path></g><g opacity="1" transform="matrix(1,0,0,1,199.09100341796875,244.29100036621094)"><path fill="rgb(196,168,250)" fill-opacity="1" d=" M99.16100311279297,-110.1780014038086 C99.16100311279297,-110.1780014038086 5.125999927520752,110.1780014038086 5.125999927520752,110.1780014038086 C5.125999927520752,110.1780014038086 -99.16200256347656,110.1780014038086 -99.16200256347656,110.1780014038086 C-99.16200256347656,110.1780014038086 99.16100311279297,-110.1780014038086 99.16100311279297,-110.1780014038086z"></path></g><g opacity="1" transform="matrix(1,0,0,1,888.8109741210938,489.09698486328125)"><path fill="rgb(134,75,250)" fill-opacity="1" d=" M-73.36799621582031,134.6280059814453 C-93.55699920654297,65.80599975585938 -63.25600051879883,-28.74799919128418 -10.729999542236328,-134.6280059814453 C-10.729999542236328,-134.6280059814453 93.55699920654297,-134.6280059814453 93.55699920654297,-134.6280059814453 C93.55699920654297,-134.6280059814453 -73.36799621582031,134.6280059814453 -73.36799621582031,134.6280059814453z"></path></g><g opacity="1" transform="matrix(1,0,0,1,709.614990234375,501.18701171875)"><path fill="rgb(134,75,250)" fill-opacity="1" d=" M-168.46600341796875,-146.7169952392578 C-145.1699981689453,-29.426000595092773 -108.322998046875,73.40899658203125 -43.79800033569336,146.7169952392578 C37.178001403808594,86.0739974975586 105.56199645996094,-20.356000900268555 168.46499633789062,-146.7169952392578 C168.46499633789062,-146.7169952392578 -168.46600341796875,-146.7169952392578 -168.46600341796875,-146.7169952392578z"></path></g><g opacity="1" transform="matrix(1,0,0,1,678.3209838867188,737.3150024414062)"><path fill="rgb(91,26,217)" fill-opacity="1" d=" M-137.1719970703125,128.13400268554688 C-137.1719970703125,128.13400268554688 137.12100219726562,-113.58899688720703 137.12100219726562,-113.58899688720703 C137.12100219726562,-113.58899688720703 137.1719970703125,-113.80400085449219 137.1719970703125,-113.80400085449219 C97.11599731445312,-127.98600006103516 50.685001373291016,-128.13299560546875 -14.149999618530273,-87.75800323486328 C-75.37200164794922,-26.722999572753906 -114.87899780273438,46.05099868774414 -137.1719970703125,128.13400268554688z"></path></g><g opacity="1" transform="matrix(1,0,0,1,771.1259765625,502.01300048828125)"><path fill="rgb(108,45,230)" fill-opacity="1" d=" M-105.30799865722656,145.89100646972656 C-105.86299896240234,146.43800354003906 -106.40299987792969,146.99400329589844 -106.95500183105469,147.54299926757812 C-106.95500183105469,147.54299926757812 44.367000579833984,121.49600219726562 44.367000579833984,121.49600219726562 C44.367000579833984,121.49600219726562 106.95500183105469,-147.54299926757812 106.95500183105469,-147.54299926757812 C106.95500183105469,-147.54299926757812 -105.30799865722656,145.89100646972656 -105.30799865722656,145.89100646972656z"></path></g><g opacity="1" transform="matrix(1,0,0,1,541.1489868164062,217.36000061035156)"><path fill="rgb(171,131,250)" fill-opacity="1" d=" M-83.16100311279297,-137.10899353027344 C-83.16100311279297,-137.10899353027344 -0.0010000000474974513,137.10899353027344 -0.0010000000474974513,137.10899353027344 C-0.0010000000474974513,137.10899353027344 83.16100311279297,-137.10899353027344 83.16100311279297,-137.10899353027344 C83.16100311279297,-137.10899353027344 -83.16100311279297,-137.10899353027344 -83.16100311279297,-137.10899353027344z"></path></g><g opacity="1" transform="matrix(1,0,0,1,541.1489868164062,730.6279907226562)"><path fill="rgb(108,45,230)" fill-opacity="1" d=" M124.3499984741211,-82.16699981689453 C37.08599853515625,-134.82000732421875 -45.595001220703125,-132.18600463867188 -124.3499984741211,-82.16699981689453 C-124.3499984741211,-82.16699981689453 0,134.82000732421875 0,134.82000732421875 C0,134.82000732421875 124.3499984741211,-82.16699981689453 124.3499984741211,-82.16699981689453z"></path></g><g opacity="1" transform="matrix(1,0,0,1,541.1489868164062,501.4649963378906)"><path fill="rgb(150,99,250)" fill-opacity="1" d=" M124.66899871826172,146.43800354003906 C124.66899871826172,146.43800354003906 0,-146.99600219726562 0,-146.99600219726562 C0,-146.99600219726562 -124.66899871826172,146.43800354003906 -124.66899871826172,146.43800354003906 C-124.66899871826172,146.43800354003906 -124.35099792480469,146.99600219726562 -124.35099792480469,146.99600219726562 C-124.35099792480469,146.99600219726562 124.3499984741211,146.99600219726562 124.3499984741211,146.99600219726562 C124.3499984741211,146.99600219726562 124.66899871826172,146.43800354003906 124.66899871826172,146.43800354003906z"></path></g></g><g class="1" transform="matrix(0.09999987483024597,-0.00016057024186011404,0.00016057024186011404,0.09999987483024597,65.00493621826172,64.58663940429688)" opacity="1" style="display: block;"><g opacity="1" transform="matrix(1,0,0,1,0,0)"><path fill="rgb(239,231,254)" fill-opacity="1" d=" M-439.25,-257.5 C-439.25,-257.5 -486.802001953125,-203.64100646972656 -486.802001953125,-203.64100646972656 C-486.802001953125,-203.64100646972656 -509,-178.5 -509,-178.5 C-509,-178.5 -474.75,-178.75 -474.75,-178.75 C-474.75,-178.75 -439.25,-257.5 -439.25,-257.5z"></path></g></g><g class="2" style="display: none;"><g><path></path></g></g><g style="display: none;"><g><path></path></g></g><g style="display: none;"><g><path></path></g></g><g style="display: none;"><g><path></path></g></g><g style="display: none;"><g><path></path></g></g><g style="display: none;"><g><path></path></g></g><g style="display: none;"><g><path></path></g></g></g></svg>
