<svg xmlns="http://www.w3.org/2000/svg" viewBox="0 0 130 130" width="130" height="130" preserveAspectRatio="xMidYMid meet" style="width: 100%; height: 100%; transform: translate3d(0px, 0px, 0px);"><defs><clipPath id="__lottie_element_452"><rect width="130" height="130" x="0" y="0"></rect></clipPath></defs><g clip-path="url(#__lottie_element_452)"><g transform="matrix(0.12499524652957916,-0.001090817037038505,0.001090817037038505,0.12499524652957916,8.89213752746582,6.412090301513672)" opacity="1" style="display: block;"><g opacity="1" transform="matrix(1,0,0,1,444.8210144042969,444.8210144042969)"><path fill="rgb(248,106,102)" fill-opacity="1" d=" M364.5710144042969,0 C364.5710144042969,201.3470001220703 201.3470001220703,364.5710144042969 0,364.5710144042969 C-201.3470001220703,364.5710144042969 -364.5710144042969,201.3470001220703 -364.5710144042969,0 C-364.5710144042969,-201.3470001220703 -201.3470001220703,-364.5710144042969 0,-364.5710144042969 C201.3470001220703,-364.5710144042969 364.5710144042969,-201.3470001220703 364.5710144042969,0z"></path></g><g opacity="1" transform="matrix(1,0,0,1,268.50799560546875,158.531005859375)"><path fill="rgb(255,145,164)" fill-opacity="1" d=" M79.38600158691406,50.81700134277344 C79.38600158691406,50.81700134277344 37.28799819946289,-50.81700134277344 37.28799819946289,-50.81700134277344 C-6.565000057220459,-32.71099853515625 -46.10100173950195,-6.289000034332275 -79.38600158691406,26.465999603271484 C-79.38600158691406,26.465999603271484 79.38600158691406,50.81700134277344 79.38600158691406,50.81700134277344z"></path></g><g opacity="1" transform="matrix(1,0,0,1,159.62899780273438,267.0299987792969)"><path fill="rgb(255,145,164)" fill-opacity="1" d=" M26.834999084472656,-79.39399719238281 C-6.160999774932861,-46.25299835205078 -32.83300018310547,-6.811999797821045 -51.1879997253418,36.987998962402344 C-51.1879997253418,36.987998962402344 51.1879997253418,79.39399719238281 51.1879997253418,79.39399719238281 C51.1879997253418,79.39399719238281 26.834999084472656,-79.39399719238281 26.834999084472656,-79.39399719238281z"></path></g><g opacity="1" transform="matrix(1,0,0,1,0.5,0.5)"><path fill="rgb(248,106,102)" fill-opacity="1" d="M0 0"></path></g><g opacity="1" transform="matrix(1,0,0,1,315.6419982910156,314.17401123046875)"><path fill="rgb(255,83,113)" fill-opacity="1" d=" M32.250999450683594,-104.82599639892578 C32.250999450683594,-104.82599639892578 -126.52100372314453,-129.177001953125 -126.52100372314453,-129.177001953125 C-127.41100311279297,-128.30099487304688 -128.29600524902344,-127.4219970703125 -129.17799377441406,-126.53700256347656 C-129.17799377441406,-126.53700256347656 -104.82499694824219,32.25 -104.82499694824219,32.25 C-104.82499694824219,32.25 129.17799377441406,129.177001953125 129.17799377441406,129.177001953125 C129.17799377441406,129.177001953125 32.250999450683594,-104.82599639892578 32.250999450683594,-104.82599639892578z"></path></g><g opacity="1" transform="matrix(1,0,0,1,0,0)"><path fill="rgb(248,106,102)" fill-opacity="1" d=" M210.8179931640625,346.42401123046875 C210.8179931640625,346.42401123046875 210.8179931640625,346.42401123046875 210.8179931640625,346.42401123046875z"></path></g><g opacity="1" transform="matrix(1,0,0,1,262.53399658203125,443.35101318359375)"><path fill="rgb(255,54,88)" fill-opacity="1" d=" M-51.715999603271484,-96.927001953125 C-51.715999603271484,-96.927001953125 -51.715999603271484,-96.927001953125 -51.715999603271484,-96.927001953125 C-51.715999603271484,-96.927001953125 -182.25900268554688,-1.1030000448226929 -182.25900268554688,-1.1030000448226929 C-182.26400756835938,-0.37299999594688416 -182.28599548339844,0.35199999809265137 -182.28700256347656,1.0829999446868896 C-182.28700256347656,1.0829999446868896 -51.715999603271484,96.927001953125 -51.715999603271484,96.927001953125 C-51.715999603271484,96.927001953125 182.28700256347656,0 182.28700256347656,0 C182.28700256347656,0 -51.715999603271484,-96.927001953125 -51.715999603271484,-96.927001953125z"></path></g><g opacity="1" transform="matrix(1,0,0,1,145.54600524902344,373.13299560546875)"><path fill="rgb(255,83,113)" fill-opacity="1" d=" M65.27100372314453,-26.709999084472656 C65.27100372314453,-26.709999084472656 -37.10599899291992,-69.11499786376953 -37.10599899291992,-69.11499786376953 C-54.95000076293945,-26.538999557495117 -64.93199920654297,20.141000747680664 -65.27100372314453,69.11499786376953 C-65.27100372314453,69.11499786376953 65.27100372314453,-26.709999084472656 65.27100372314453,-26.709999084472656z"></path></g><g opacity="1" transform="matrix(1,0,0,1,145.52999877929688,513.77197265625)"><path fill="rgb(255,83,113)" fill-opacity="1" d=" M65.28800201416016,26.506000518798828 C65.28800201416016,26.506000518798828 -65.28299713134766,-69.33799743652344 -65.28299713134766,-69.33799743652344 C-65.28299713134766,-69.20899963378906 -65.28800201416016,-69.08100128173828 -65.28800201416016,-68.95099639892578 C-65.28800201416016,-19.99799919128418 -55.6150016784668,26.690000534057617 -38.117000579833984,69.33799743652344 C-38.117000579833984,69.33799743652344 65.28800201416016,26.506000518798828 65.28800201416016,26.506000518798828z"></path></g><g opacity="1" transform="matrix(1,0,0,1,0.5,0.5)"><path fill="rgb(248,106,102)" fill-opacity="1" d="M0 0"></path></g><g opacity="1" transform="matrix(1,0,0,1,515.4219970703125,144.8090057373047)"><path fill="rgb(255,83,113)" fill-opacity="1" d=" M68.42400360107422,-37.095001220703125 C26.211000442504883,-54.52299880981445 -19.983999252319336,-64.25499725341797 -68.42400360107422,-64.53900146484375 C-68.42400360107422,-64.53900146484375 26.326000213623047,64.53900146484375 26.326000213623047,64.53900146484375 C26.326000213623047,64.53900146484375 68.42400360107422,-37.095001220703125 68.42400360107422,-37.095001220703125z"></path></g><g opacity="1" transform="matrix(1,0,0,1,444.8210144042969,261.7969970703125)"><path fill="rgb(255,54,88)" fill-opacity="1" d=" M2.177999973297119,-181.52699279785156 C1.4500000476837158,-181.531005859375 0.7279999852180481,-181.5540008544922 0,-181.5540008544922 C-0.7289999723434448,-181.5540008544922 -1.4509999752044678,-181.531005859375 -2.177999973297119,-181.52699279785156 C-2.177999973297119,-181.52699279785156 -96.927001953125,-52.44900131225586 -96.927001953125,-52.44900131225586 C-96.927001953125,-52.44900131225586 0,181.5540008544922 0,181.5540008544922 C0,181.5540008544922 96.927001953125,-52.44900131225586 96.927001953125,-52.44900131225586 C96.927001953125,-52.44900131225586 2.177999973297119,-181.52699279785156 2.177999973297119,-181.52699279785156z"></path></g><g opacity="1" transform="matrix(1,0,0,1,374.218994140625,144.8090057373047)"><path fill="rgb(255,83,113)" fill-opacity="1" d=" M68.42400360107422,-64.53900146484375 C19.985000610351562,-64.25499725341797 -26.209999084472656,-54.52299880981445 -68.4229965209961,-37.095001220703125 C-68.4229965209961,-37.095001220703125 -26.326000213623047,64.53900146484375 -26.326000213623047,64.53900146484375 C-26.326000213623047,64.53900146484375 68.42400360107422,-64.53900146484375 68.42400360107422,-64.53900146484375z"></path></g><g opacity="1" transform="matrix(1,0,0,1,621.1339721679688,158.531005859375)"><path fill="rgb(255,54,88)" fill-opacity="1" d=" M-79.38500213623047,50.81700134277344 C-79.38500213623047,50.81700134277344 79.38500213623047,26.465999603271484 79.38500213623047,26.465999603271484 C46.10100173950195,-6.289000034332275 6.565000057220459,-32.71099853515625 -37.28799819946289,-50.81700134277344 C-37.28799819946289,-50.81700134277344 -79.38500213623047,50.81700134277344 -79.38500213623047,50.81700134277344z"></path></g><g opacity="1" transform="matrix(1,0,0,1,730.0120239257812,267.0299987792969)"><path fill="rgb(255,54,88)" fill-opacity="1" d=" M51.18899917602539,36.98699951171875 C32.83399963378906,-6.813000202178955 6.160999774932861,-46.25299835205078 -26.833999633789062,-79.39399719238281 C-26.833999633789062,-79.39399719238281 -51.18899917602539,79.39299774169922 -51.18899917602539,79.39299774169922 C-51.18899917602539,79.39299774169922 51.18899917602539,36.98699951171875 51.18899917602539,36.98699951171875z"></path></g><g opacity="1" transform="matrix(1,0,0,1,573.9990234375,314.17401123046875)"><path fill="rgb(255,83,113)" fill-opacity="1" d=" M126.52100372314453,-129.177001953125 C126.52100372314453,-129.177001953125 -32.25,-104.82599639892578 -32.25,-104.82599639892578 C-32.25,-104.82599639892578 -129.17799377441406,129.177001953125 -129.17799377441406,129.177001953125 C-129.17799377441406,129.177001953125 104.82499694824219,32.25 104.82499694824219,32.25 C104.82499694824219,32.25 129.1790008544922,-126.53700256347656 129.1790008544922,-126.53700256347656 C128.2969970703125,-127.4219970703125 127.41200256347656,-128.30099487304688 126.52100372314453,-129.177001953125z"></path></g><g opacity="1" transform="matrix(1,0,0,1,0.5,0.5)"><path fill="rgb(248,106,102)" fill-opacity="1" d="M0 0"></path></g><g opacity="1" transform="matrix(1,0,0,1,374.7869873046875,743.3759765625)"><path fill="rgb(171,18,45)" fill-opacity="1" d=" M-70.03299713134766,38.125999450683594 C-26.906999588012695,56.0880012512207 20.400999069213867,66.02200317382812 70.03399658203125,66.02200317382812 C70.03399658203125,66.02200317382812 -26.89299964904785,-66.02200317382812 -26.89299964904785,-66.02200317382812 C-26.89299964904785,-66.02200317382812 -70.03299713134766,38.125999450683594 -70.03299713134766,38.125999450683594z"></path></g><g opacity="1" transform="matrix(1,0,0,1,514.85400390625,743.3759765625)"><path fill="rgb(171,18,45)" fill-opacity="1" d=" M-70.03299713134766,66.02300262451172 C-20.399999618530273,66.02300262451172 26.908000946044922,56.0880012512207 70.03399658203125,38.12699890136719 C70.03399658203125,38.12699890136719 26.893999099731445,-66.02200317382812 26.893999099731445,-66.02200317382812 C26.893999099731445,-66.02200317382812 -70.03299713134766,66.02300262451172 -70.03299713134766,66.02300262451172z"></path></g><g opacity="1" transform="matrix(1,0,0,1,444.8210144042969,626.375)"><path fill="rgb(211,22,57)" fill-opacity="1" d=" M0,-183.0240020751953 C0,-183.0240020751953 -96.927001953125,50.979000091552734 -96.927001953125,50.979000091552734 C-96.927001953125,50.979000091552734 0,183.0240020751953 0,183.0240020751953 C0,183.0240020751953 96.927001953125,50.979000091552734 96.927001953125,50.979000091552734 C96.927001953125,50.979000091552734 0,-183.0240020751953 0,-183.0240020751953z"></path></g><g opacity="1" transform="matrix(1,0,0,1,159.11599731445312,620.9500122070312)"><path fill="rgb(211,22,57)" fill-opacity="1" d=" M-51.70199966430664,-37.840999603271484 C-33.39099884033203,6.788000106811523 -6.485000133514404,46.97600173950195 26.95599937438965,80.6719970703125 C26.95599937438965,80.6719970703125 51.70199966430664,-80.6719970703125 51.70199966430664,-80.6719970703125 C51.70199966430664,-80.6719970703125 -51.70199966430664,-37.840999603271484 -51.70199966430664,-37.840999603271484z"></path></g><g opacity="1" transform="matrix(1,0,0,1,0.5,0.5)"><path fill="rgb(248,106,102)" fill-opacity="1" d="M0 0"></path></g><g opacity="1" transform="matrix(1,0,0,1,267.218994140625,729.427978515625)"><path fill="rgb(211,22,57)" fill-opacity="1" d=" M80.67400360107422,-52.07400131225586 C80.67400360107422,-52.07400131225586 -80.67400360107422,-27.327999114990234 -80.67400360107422,-27.327999114990234 C-47.12699890136719,6.3520002365112305 -7.0370001792907715,33.5099983215332 37.534000396728516,52.07400131225586 C37.534000396728516,52.07400131225586 80.67400360107422,-52.07400131225586 80.67400360107422,-52.07400131225586z"></path></g><g opacity="1" transform="matrix(1,0,0,1,315.4460144042969,572.7249755859375)"><path fill="rgb(255,83,113)" fill-opacity="1" d=" M-104.62799835205078,-32.448001861572266 C-104.62799835205078,-32.448001861572266 -129.37399291992188,128.89700317382812 -129.37399291992188,128.89700317382812 C-129.21600341796875,129.05499267578125 -129.05999755859375,129.2169952392578 -128.9010009765625,129.375 C-128.9010009765625,129.375 32.448001861572266,104.62799835205078 32.448001861572266,104.62799835205078 C32.448001861572266,104.62799835205078 129.375,-129.375 129.375,-129.375 C129.375,-129.375 -104.62799835205078,-32.448001861572266 -104.62799835205078,-32.448001861572266z"></path></g><g opacity="1" transform="matrix(1,0,0,1,744.1110229492188,513.77197265625)"><path fill="rgb(255,83,113)" fill-opacity="1" d=" M-65.28800201416016,26.506000518798828 C-65.28800201416016,26.506000518798828 -65.28800201416016,26.506000518798828 -65.28800201416016,26.506000518798828 C-65.28800201416016,26.506000518798828 38.117000579833984,69.33799743652344 38.117000579833984,69.33799743652344 C55.6150016784668,26.690000534057617 65.28800201416016,-19.99799919128418 65.28800201416016,-68.95099639892578 C65.28800201416016,-69.08100128173828 65.28299713134766,-69.20899963378906 65.28299713134766,-69.33799743652344 C65.28299713134766,-69.33799743652344 -65.28800201416016,26.506000518798828 -65.28800201416016,26.506000518798828z"></path></g><g opacity="1" transform="matrix(1,0,0,1,627.1079711914062,443.35101318359375)"><path fill="rgb(255,54,88)" fill-opacity="1" d=" M182.25999450683594,-1.1030000448226929 C182.25999450683594,-1.1030000448226929 51.715999603271484,-96.927001953125 51.715999603271484,-96.927001953125 C51.715999603271484,-96.927001953125 -182.28599548339844,0 -182.28599548339844,0 C-182.28599548339844,0 51.715999603271484,96.927001953125 51.715999603271484,96.927001953125 C51.715999603271484,96.927001953125 182.28599548339844,1.0829999446868896 182.28599548339844,1.0829999446868896 C182.28500366210938,0.35199999809265137 182.26499938964844,-0.37400001287460327 182.25999450683594,-1.1030000448226929z"></path></g><g opacity="1" transform="matrix(1,0,0,1,0.5,0.5)"><path fill="rgb(248,106,102)" fill-opacity="1" d="M0 0"></path></g><g opacity="1" transform="matrix(1,0,0,1,744.094970703125,373.13299560546875)"><path fill="rgb(255,83,113)" fill-opacity="1" d=" M-65.27200317382812,-26.708999633789062 C-65.27200317382812,-26.708999633789062 65.27200317382812,69.11499786376953 65.27200317382812,69.11499786376953 C64.93199920654297,20.141000747680664 54.94900131225586,-26.538999557495117 37.10599899291992,-69.11499786376953 C37.10599899291992,-69.11499786376953 -65.27200317382812,-26.708999633789062 -65.27200317382812,-26.708999633789062z"></path></g><g opacity="1" transform="matrix(1,0,0,1,0,0)"><path fill="rgb(248,106,102)" fill-opacity="1" d=" M678.822998046875,346.4230041503906 C678.822998046875,346.4230041503906 678.822998046875,346.4230041503906 678.822998046875,346.4230041503906z"></path></g><g opacity="1" transform="matrix(1,0,0,1,730.5260009765625,620.9500122070312)"><path fill="rgb(211,22,57)" fill-opacity="1" d=" M-26.95599937438965,80.6719970703125 C6.484000205993652,46.97700119018555 33.391998291015625,6.788000106811523 51.702999114990234,-37.840999603271484 C51.702999114990234,-37.840999603271484 -51.702999114990234,-80.6719970703125 -51.702999114990234,-80.6719970703125 C-51.702999114990234,-80.6719970703125 -26.95599937438965,80.6719970703125 -26.95599937438965,80.6719970703125z"></path></g><g opacity="1" transform="matrix(1,0,0,1,574.1950073242188,572.7249755859375)"><path fill="rgb(248,44,80)" fill-opacity="1" d=" M104.62799835205078,-32.448001861572266 C104.62799835205078,-32.448001861572266 -129.37399291992188,-129.375 -129.37399291992188,-129.375 C-129.37399291992188,-129.375 -32.446998596191406,104.62799835205078 -32.446998596191406,104.62799835205078 C-32.446998596191406,104.62799835205078 128.9010009765625,129.375 128.9010009765625,129.375 C129.05999755859375,129.2169952392578 129.2169952392578,129.05499267578125 129.37399291992188,128.89700317382812 C129.37399291992188,128.89700317382812 104.62799835205078,-32.448001861572266 104.62799835205078,-32.448001861572266z"></path></g><g opacity="1" transform="matrix(1,0,0,1,622.4229736328125,729.427978515625)"><path fill="rgb(211,22,57)" fill-opacity="1" d=" M-80.67400360107422,-52.07400131225586 C-80.67400360107422,-52.07400131225586 -37.53499984741211,52.07400131225586 -37.53499984741211,52.07400131225586 C7.035999774932861,33.5099983215332 47.12699890136719,6.3520002365112305 80.67400360107422,-27.327999114990234 C80.67400360107422,-27.327999114990234 -80.67400360107422,-52.07400131225586 -80.67400360107422,-52.07400131225586z"></path></g><g opacity="1" transform="matrix(1,0,0,1,0.5,0.5)"><path fill="rgb(248,106,102)" fill-opacity="1" d="M0 0"></path></g></g><g class="1 1" style="display: none;"><g><path></path></g></g><g class="1 1 1" style="display: none;"><g><path></path></g></g><g class="2 2" style="display: none;"><g><path></path></g></g><g class="3 3" style="display: none;"><g><path></path></g></g><g class="3 3 3" style="display: none;"><g><path></path></g></g><g class="4 4" style="display: none;"><g><path></path></g></g><g class="4 4 4" style="display: none;"><g><path></path></g></g><g style="display: none;"><g><path></path></g></g><g style="display: none;"><g><path></path></g></g><g style="display: none;"><g><path></path></g></g></g></svg>
