<svg xmlns="http://www.w3.org/2000/svg" viewBox="0 0 200 68"><defs><style>.cls-1{fill:#03ae04;}.cls-2{fill:#00c802;}.cls-3{fill:#3178f6;}.cls-4{fill:#6298f6;}.cls-5{fill:#8fb4f6;}.cls-6{fill:#fff;}.cls-7{fill:#baffbb;}</style></defs><g id="Layer_1" data-name="Layer 1"><rect class="cls-1" width="200" height="68" rx="4.96"/><path class="cls-2" d="M195,0H100.29L71.14,68H195a5,5,0,0,0,5-5V5A5,5,0,0,0,195,0Z"/><ellipse class="cls-1" cx="145" cy="52" rx="36" ry="15"/><polygon class="cls-3" points="144 39.76 117.86 28.05 117.86 53.28 144 65 170.14 53.28 170.14 28.05 144 39.76"/><polygon class="cls-4" points="144 31.65 116.06 19.03 116.06 28.95 144 41.56 171.94 28.95 171.94 19.03 144 31.65"/><polygon class="cls-5" points="144 6.41 116.06 19.03 144 31.65 171.94 19.03 144 6.41"/><polygon class="cls-6" points="126.54 23.76 126.54 57.31 135.42 61.15 135.42 27.77 126.54 23.76"/><polygon class="cls-6" points="146.7 21.73 134.99 28.05 126.42 23.99 139.94 17.68 146.7 21.73"/><polygon class="cls-6" points="140.4 21.73 152.7 27.72 162.03 23.54 148.96 18.58 140.4 21.73"/><polygon class="cls-6" points="152.56 27.59 152.56 61.15 162.99 56.49 162.03 23.54 152.56 27.59"/><path class="cls-7" d="M144.83,15.88s.36-9.72-4-14c0,0-6.48,0-7.92,3.6,0,0,2.16,7.92,7.2,10.8Z"/><path class="cls-7" d="M150.24,17S156.72,9,154.56,3.28a11.1,11.1,0,0,0-7.93-2.16s-5,6.48-2.16,14.4Z"/><path class="cls-7" d="M138,13.36s-6.48-5.76-7.92-5.76-4.32,3.6-3.6,5.76,10.08,4.32,10.08,4.32Z"/><path class="cls-7" d="M151,11.2a41.5,41.5,0,0,1,6.48-3.6,4,4,0,0,1,4.32.72c.72.72,1.44,5.76.72,6.48S156,17.68,151.68,17,151,11.2,151,11.2Z"/><path class="cls-6" d="M142.65,16.78s.9-6.31,2.7-8.11,7.21-3.61,9-3.61,6.31,8.11,5.4,9.91-1.8,4.51-2.7,5.41-8.11,2.71-9,2.71-5.41-3.61-5.41-3.61Z"/><path class="cls-6" d="M144.41,19.91a46.58,46.58,0,0,1-8.07,1.37,48.46,48.46,0,0,1-7.21-.9A11.38,11.38,0,0,1,127.32,15c0-2.7,4.51-4.5,6.31-4.5s6.31.9,7.22,1.8S146.17,15.83,144.41,19.91Z"/><polygon class="cls-2" points="41.18 7 28.15 35.67 38.57 44.36 33.36 60 62.9 37.41 57.69 31.33 69.85 20.03 41.18 7"/></g></svg>