<svg xmlns="http://www.w3.org/2000/svg" viewBox="0 0 86 141" width="86" height="141">
	<defs>
		<clipPath clipPathUnits="userSpaceOnUse" id="cp1">
			<path d="M4 0L82 0C84.21 0 86 1.79 86 4L86 136.7C86 138.91 84.21 140.7 82 140.7L4 140.7C1.79 140.7 0 138.91 0 136.7L0 4C0 1.79 1.79 0 4 0Z" />
		</clipPath>
	</defs>
	<style>
		tspan { white-space:pre }
		.shp0 { fill: #4986f5 } 
		.shp1 { fill: #5f94f6 } 
	</style>
	<g id="Layer">
		<g id="Layer">
			<path id="a" class="shp0" d="M4 0L82 0C84.21 0 86 1.79 86 4L86 136.7C86 138.91 84.21 140.7 82 140.7L4 140.7C1.79 140.7 0 138.91 0 136.7L0 4C0 1.79 1.79 0 4 0Z" />
			<g id="Clip-Path: Clip-Path: Clip-Path: Clip-Path: Clip-Path" clip-path="url(#cp1)">
				<g id="Clip-Path: Clip-Path: Clip-Path: Clip-Path">
					<g id="Clip-Path: Clip-Path: Clip-Path">
						<g id="Clip-Path: Clip-Path">
							<g id="Clip-Path">
								<g id="Layer">
									<path id="Layer" fill-rule="evenodd" class="shp1" d="M-7.03 6.53L-2.33 1.85L2.37 6.53L-2.33 11.23L-7.03 6.53ZM0.49 14.03L5.19 9.35L9.89 14.03L5.19 18.73L0.49 14.03ZM8 6.53L12.7 1.85L17.4 6.53L12.7 11.23L8 6.53ZM15.52 14.03L20.22 9.35L24.92 14.03L20.22 18.73L15.53 14.03M30.56 14.03L35.26 9.35L39.96 14.03L35.26 18.73L30.56 14.03ZM27.73 11.23L23.03 6.53L27.73 1.85L32.43 6.53L27.73 11.23ZM38.07 6.53L42.77 1.85L47.47 6.53L42.77 11.23L38.07 6.53ZM45.59 14.03L50.29 9.35L54.99 14.03L50.29 18.73L45.59 14.03ZM53.1 6.53L57.8 1.85L62.5 6.53L57.8 11.23L53.1 6.53ZM60.62 14.03L65.32 9.35L70.02 14.03L65.33 18.73L60.63 14.03M80.35 9.35L85.05 14.03L80.35 18.73L75.65 14.03L80.35 9.35ZM68.14 6.53L72.83 1.85L77.53 6.53L72.84 11.22L72.83 11.22L72.83 11.23L68.14 6.53ZM-7.03 21.53L-7.02 21.54L-7.03 21.54M-7.02 21.54L-2.33 16.85L2.37 21.53L-2.33 26.23L-7.02 21.54ZM8.01 21.53L8.02 21.54L8.01 21.54M8.02 21.54L12.71 16.85L17.41 21.53L12.71 26.23L8.02 21.54ZM23.03 21.53L23.04 21.54L23.03 21.54M23.04 21.54L27.73 16.85L32.43 21.53L27.73 26.23L23.04 21.54ZM38.07 21.53L38.08 21.54L38.07 21.54M38.08 21.54L42.77 16.85L47.47 21.53L42.77 26.23L38.08 21.54ZM53.11 21.53L53.12 21.54L53.11 21.54M53.12 21.54L57.81 16.85L62.51 21.53L57.81 26.23L53.12 21.54ZM72.84 16.84L77.54 21.54L72.84 26.22L68.14 21.54L72.83 16.85M-2.33 41.23L-7.03 36.54L-2.33 31.85L2.37 36.53L-2.33 41.23ZM0.49 29.03L0.5 29.04L0.49 29.04M0.5 29.04L5.19 24.35L9.89 29.03L5.19 33.73L0.5 29.04ZM15.53 29.03L20.22 24.35L24.92 29.03L20.22 33.73L15.53 29.03ZM30.56 29.03L30.57 29.04L30.56 29.04M30.57 29.04L35.26 24.35L39.96 29.03L35.26 33.73L30.57 29.04ZM45.59 29.03L45.6 29.04L45.59 29.04M45.6 29.04L50.29 24.35L54.99 29.03L50.29 33.73L45.6 29.04ZM65.32 24.34L70.02 29.04L65.33 33.72L60.63 29.04L65.33 24.35M80.35 24.34L85.05 29.04L80.35 33.72L75.65 29.04L80.35 24.35M5.19 48.73L0.49 44.04L5.19 39.35L9.89 44.03L5.19 48.73ZM8.01 36.53L8.02 36.54L8.01 36.54M8.02 36.54L12.71 31.85L17.41 36.53L12.71 41.23L8.02 36.54ZM15.53 44.03L20.22 39.35L24.92 44.03L20.22 48.73L15.53 44.03ZM30.56 44.03L30.57 44.04L30.56 44.04M30.57 44.04L35.26 39.35L39.96 44.03L35.26 48.73L30.57 44.04ZM23.03 36.53L23.04 36.54L23.03 36.54M23.04 36.54L27.73 31.85L32.43 36.53L27.73 41.23L23.04 36.54ZM38.07 36.53L38.08 36.54L38.07 36.54M38.08 36.54L42.77 31.85L47.47 36.53L42.77 41.23L38.08 36.54ZM45.59 44.03L45.6 44.04L45.59 44.04M45.6 44.04L50.29 39.35L54.99 44.03L50.29 48.73L45.6 44.04ZM53.11 36.53L53.12 36.54L53.11 36.54M53.12 36.54L57.81 31.85L62.51 36.53L57.81 41.23L53.12 36.54ZM65.33 39.35L70.02 44.03L65.33 48.73L60.63 44.04L65.33 39.35ZM80.35 39.35L85.05 44.03L80.35 48.73L75.65 44.04L80.35 39.35ZM72.84 31.85L77.54 36.53L72.84 41.23L68.14 36.54L72.83 31.85M-2.33 56.23L-7.03 51.54L-2.33 46.85L2.37 51.53L-2.33 56.23ZM8.01 51.53L8.02 51.54L8.01 51.54M8.02 51.54L12.71 46.85L17.41 51.53L12.71 56.23L8.02 51.54ZM23.03 51.53L23.04 51.54L23.03 51.54M23.04 51.54L27.73 46.85L32.43 51.53L27.73 56.23L23.04 51.54ZM38.07 51.53L38.08 51.54L38.07 51.54M38.08 51.54L42.77 46.85L47.47 51.53L42.77 56.23L38.08 51.54ZM57.8 46.85L62.5 51.53L57.8 56.23L53.1 51.54L57.8 46.85ZM72.84 46.85L77.54 51.53L72.84 56.23L68.14 51.54L72.83 46.85M-7.03 66.54L-2.33 61.85L2.37 66.54L-2.33 71.23L-7.03 66.54ZM0.49 59.04L5.19 54.35L9.89 59.04L5.19 63.73L0.49 59.04ZM15.52 59.04L20.22 54.35L24.92 59.04L20.22 63.73L15.53 59.04M30.56 59.04L35.26 54.35L39.96 59.04L35.26 63.73L30.56 59.04ZM50.29 63.73L45.59 59.04L50.29 54.35L54.99 59.04L50.29 63.73ZM65.32 54.35L70.02 59.04L65.33 63.73L60.63 59.04L65.32 54.35ZM85.05 59.04L80.35 63.73L75.65 59.04L80.35 54.35L85.05 59.04ZM0.49 74.05L5.19 69.35L9.89 74.04L5.19 78.73L0.49 74.05ZM8 66.54L12.7 61.85L17.4 66.54L12.7 71.23L8 66.54ZM15.52 74.05L20.22 69.35L24.92 74.04L20.22 78.73L15.52 74.05ZM35.25 78.73L30.55 74.05L35.25 69.35L39.95 74.04L35.25 78.73ZM27.73 61.85L32.43 66.54L27.73 71.23L23.03 66.54L27.73 61.85ZM42.77 61.85L47.47 66.54L42.77 71.23L38.07 66.54L42.77 61.85ZM50.29 78.73L45.59 74.05L50.29 69.35L54.99 74.04L50.29 78.73ZM62.5 66.54L57.8 71.23L53.1 66.54L57.8 61.85L62.5 66.54ZM65.33 69.35L70.02 74.04L65.33 78.73L60.63 74.05L65.33 69.35ZM85.05 74.04L80.35 78.73L75.65 74.05L80.35 69.35L85.05 74.04ZM72.84 61.85L77.54 66.54L72.84 71.23L68.14 66.54L72.83 61.85M-7.03 81.55L-2.33 76.85L2.37 81.54L-2.33 86.23L-7.03 81.55ZM8 81.55L12.7 76.85L17.4 81.54L12.7 86.23L8 81.55ZM27.73 86.23L23.03 81.55L27.73 76.85L32.43 81.54L27.73 86.23ZM42.77 86.23L38.07 81.55L42.77 76.85L47.47 81.54L42.77 86.23ZM57.8 86.23L53.1 81.55L57.8 76.85L62.5 81.54L57.8 86.23ZM72.84 76.85L77.54 81.54L72.84 86.23L68.14 81.55L72.83 76.85M-2.33 101.24L-7.03 96.54L-2.33 91.86L2.37 96.54L-2.33 101.23M0.49 89.05L5.19 84.35L9.89 89.04L5.19 93.73L0.49 89.05ZM20.22 93.73L15.52 89.05L20.22 84.35L24.92 89.04L20.22 93.73ZM35.25 93.73L30.55 89.05L35.25 84.35L39.95 89.04L35.25 93.73ZM50.29 93.73L45.59 89.05L50.29 84.35L54.99 89.04L50.29 93.73ZM65.32 93.73L60.62 89.05L65.32 84.35L70.02 89.04L65.32 93.73ZM85.05 89.04L80.35 93.73L75.65 89.05L80.35 84.35L85.05 89.04ZM5.19 108.74L0.49 104.04L5.19 99.36L9.89 104.04L5.19 108.73M12.7 101.24L8 96.54L12.7 91.86L17.4 96.54L12.7 101.23M20.22 108.74L15.52 104.04L20.22 99.36L24.92 104.04L20.22 108.74ZM35.25 108.74L30.55 104.04L35.25 99.36L39.95 104.04L35.25 108.74ZM27.73 101.24L23.03 96.54L27.73 91.86L32.43 96.54L27.73 101.24ZM42.77 101.24L38.07 96.54L42.77 91.86L47.47 96.54L42.77 101.24ZM50.29 108.74L45.59 104.04L50.29 99.36L54.99 104.04L50.29 108.74ZM57.8 101.24L53.1 96.54L57.8 91.86L62.5 96.54L57.8 101.24ZM65.32 108.74L60.62 104.04L65.32 99.36L70.02 104.04L65.32 108.74ZM80.35 99.36L85.05 104.04L80.35 108.74L75.65 104.04L80.35 99.36ZM72.84 91.86L77.54 96.54L72.84 101.24L68.14 96.54L72.83 91.86M-7.03 111.55L-2.33 106.85L2.37 111.55L-2.33 116.23L-7.03 111.55ZM17.4 111.55L12.7 116.23L8 111.55L12.7 106.85L17.4 111.55ZM32.43 111.55L27.73 116.23L23.03 111.55L27.73 106.85L32.43 111.55ZM47.47 111.55L42.77 116.23L38.07 111.55L42.77 106.85L47.47 111.55ZM62.5 111.55L57.8 116.23L53.1 111.55L57.8 106.85L62.5 111.55ZM77.54 111.55L72.84 116.23L68.14 111.55L72.83 106.85L77.53 111.55M-2.33 131.24L-7.03 126.55L-2.33 121.85L2.37 126.55L-2.33 131.23M9.88 119.05L5.18 123.73L0.48 119.05L5.18 114.35L9.88 119.05ZM24.92 119.05L20.22 123.73L15.52 119.05L20.22 114.35L24.92 119.05ZM39.95 119.05L35.25 123.73L30.55 119.05L35.25 114.35L39.95 119.05ZM54.99 119.05L50.29 123.73L45.59 119.05L50.29 114.35L54.99 119.05ZM70.02 119.05L65.32 123.73L60.62 119.05L65.32 114.35L70.02 119.05ZM85.05 119.05L80.35 123.73L75.65 119.05L80.35 114.35L85.05 119.05ZM9.89 134.04L5.19 138.74L0.49 134.05L5.19 129.36L9.89 134.04ZM12.7 131.24L8 126.55L12.7 121.85L17.4 126.54L12.7 131.24ZM17.4 126.55L17.4 126.54L17.39 126.55M24.92 134.04L20.22 138.74L15.52 134.05L20.22 129.36L24.92 134.04ZM39.95 134.04L35.25 138.74L30.55 134.05L35.25 129.36L39.95 134.04ZM32.43 126.54L27.73 131.24L23.03 126.55L27.73 121.85L32.43 126.54ZM47.46 126.54L42.77 131.24L38.07 126.55L42.77 121.85L47.46 126.54ZM54.99 134.04L50.29 138.74L45.59 134.05L50.29 129.36L54.99 134.04ZM62.5 126.54L57.8 131.24L53.1 126.55L57.8 121.85L62.5 126.54ZM65.33 129.36L70.02 134.04L65.33 138.74L60.63 134.05L65.33 129.36ZM85.05 134.04L80.35 138.74L75.65 134.05L80.35 129.36L85.05 134.04ZM77.54 126.54L72.84 131.24L68.14 126.55L72.83 121.85L77.53 126.55M86.93 2.78L86.93 10.28L83.17 6.53L86.93 2.78ZM86.93 25.29L83.17 21.54L86.93 17.79L86.93 25.29ZM86.93 40.29L83.17 36.54L86.93 32.79L86.93 40.29ZM86.93 55.29L83.17 51.54L86.93 47.79L86.93 55.29ZM86.93 70.29L83.17 66.54L86.93 62.79L86.93 70.29ZM86.93 85.29L83.17 81.54L86.93 77.79L86.93 85.29ZM86.93 100.29L83.17 96.54L86.93 92.79L86.93 100.29ZM86.93 115.3L83.17 111.55L86.93 107.8L86.93 115.3ZM86.93 122.8L86.93 130.3L83.17 126.55L86.93 122.8ZM80.35 3.71L76.6 -0.04L84.11 -0.04L80.35 3.73M61.55 -0.04L69.07 -0.04L65.33 3.73L61.55 -0.04ZM50.29 3.71L46.53 -0.04L54.05 -0.04L50.29 3.73M35.25 3.71L31.5 -0.04L39.01 -0.04L35.25 3.73M20.22 3.73L20.22 3.72L20.23 3.73M20.22 3.72L16.46 -0.04L23.98 -0.04L20.22 3.72ZM1.43 -0.04L8.93 -0.04L5.19 3.73L1.43 -0.04ZM83.17 141.55L86.93 137.79L86.93 142.49L84.11 142.49L83.17 141.55ZM68.14 141.55L72.84 136.86L77.54 141.55L76.6 142.49L69.08 142.49L68.14 141.55ZM53.1 141.55L57.8 136.86L62.5 141.55L61.56 142.49L54.05 142.49L53.11 141.55M38.07 141.55L42.77 136.86L47.47 141.55L46.53 142.49L39.01 142.49L38.07 141.55ZM27.73 136.86L32.43 141.55L31.5 142.49L23.98 142.49L23.03 141.55L27.73 136.86ZM8 141.55L12.7 136.86L17.4 141.55L16.46 142.49L8.94 142.49L8.01 141.55M-2.33 136.86L2.37 141.55L1.43 142.49L-6.09 142.49L-7.03 141.55L-2.33 136.86ZM72.83 11.23L72.83 11.23L72.84 11.23L72.83 11.23ZM15.53 29.03L15.53 29.03L15.52 29.04M15.53 44.03L15.53 44.03L15.52 44.04M65.33 39.35L65.33 39.35L65.32 39.35M65.33 54.35L65.32 54.35L65.32 54.35M65.33 69.35L65.33 69.35L65.32 69.35M32.43 126.55L32.43 126.55L32.43 126.54M47.47 126.55L47.47 126.55L47.47 126.54M62.5 126.55L62.5 126.55L62.5 126.54M65.33 129.36L65.33 129.36L65.32 129.36" />
								</g>
							</g>
						</g>
					</g>
				</g>
			</g>
		</g>
	</g>
</svg>