<svg xmlns="http://www.w3.org/2000/svg" viewBox="0 0 30.6 30.6"><defs><style>.a{opacity:.6}.b{fill:#fff}</style></defs><g class="a"><path class="b" d="M17.6 3.6V.2a16 16 0 0 0-2.3-.2 15.9 15.9 0 0 0-2.3.2v3.4z"/></g><g class="a"><path class="b" d="M8.7 5.4L6.3 3a16.5 16.5 0 0 0-1.8 1.5A16.5 16.5 0 0 0 3 6.3l2.4 2.4z"/></g><g class="a"><path class="b" d="M3.6 13H.2a15.9 15.9 0 0 0-.2 2.3 16 16 0 0 0 .2 2.3h3.4z"/></g><g class="a"><path class="b" d="M5.4 22L3 24.2a14.8 14.8 0 0 0 1.5 1.8 15.5 15.5 0 0 0 1.8 1.5l2.4-2.4z"/></g><g class="a"><path class="b" d="M13 27v3.4a14.1 14.1 0 0 0 4.6 0V27z"/></g><g class="a"><path class="b" d="M22 25.2l2.3 2.4a14.1 14.1 0 0 0 3.3-3.3L25.2 22z"/></g><g class="a"><path class="b" d="M27 17.6h3.4a14.1 14.1 0 0 0 0-4.6H27z"/></g><g class="a"><path class="b" d="M25.2 8.7l2.4-2.4a15.5 15.5 0 0 0-1.5-1.8A14.8 14.8 0 0 0 24.3 3L22 5.4z"/></g></svg>