<?xml version="1.0" encoding="utf-8"?>
<!-- Generator: Adobe Illustrator 24.1.1, SVG Export Plug-In . SVG Version: 6.00 Build 0)  -->
<svg version="1.1" xmlns="http://www.w3.org/2000/svg" xmlns:xlink="http://www.w3.org/1999/xlink" x="0px" y="0px"
	 viewBox="0 0 800 800" style="enable-background:new 0 0 800 800;" xml:space="preserve">
<style type="text/css">
	.st0{opacity:0.5;fill:url(#SVGID_1_);}
	.st1{fill:#B5B5B5;}
	.st2{fill:#2D2420;}
	.st3{fill:#FFD5B8;}
	.st4{fill:#594A42;}
	.st5{fill:#E6E7E8;}
	.st6{fill:#414042;}
	.st7{fill:#EAB896;}
	.st8{fill:#FFBC8F;}
	.st9{fill:#E0925C;}
</style>
<g id="Background">
	<radialGradient id="SVGID_1_" cx="400" cy="366.8168" r="684.4064" gradientUnits="userSpaceOnUse">
		<stop  offset="0" style="stop-color:#FFFFFF"/>
		<stop  offset="0.1774" style="stop-color:#FCFEFF"/>
		<stop  offset="0.3174" style="stop-color:#F2FAFD"/>
		<stop  offset="0.4447" style="stop-color:#E1F3FB"/>
		<stop  offset="0.5645" style="stop-color:#CAEAF8"/>
		<stop  offset="0.6789" style="stop-color:#ABDEF3"/>
		<stop  offset="0.7894" style="stop-color:#86CFEE"/>
		<stop  offset="0.8948" style="stop-color:#5ABEE8"/>
		<stop  offset="0.9972" style="stop-color:#28ABE1"/>
		<stop  offset="1" style="stop-color:#27AAE1"/>
	</radialGradient>
	<rect class="st0" width="800" height="800"/>
</g>
<g id="Objects">
	<g>
		<path class="st1" d="M265.47,347.76c0,0,3.83-1.01-4.84,44.19c-8.68,45.2-16.55,83.54-16.55,83.54s-1.63,7.67-4.84,6.66
			c-3.22-1.01-5.45-21.39-5.65-22c-0.2-0.61-0.61-19.57,0-22.6c0.6-3.03,5.83-32.89,6.04-36.12c0.21-3.23,4.45-22.6,6.06-26.64
			c1.61-4.04,6.66-11.7,7.87-12.51c0.98-0.66,7.59-10.36,10.28-13.78C264.46,347.71,265.47,347.76,265.47,347.76z"/>
		<path class="st2" d="M171.97,550.22c0,0,16.16-0.71,48.97-116.9c29.34-103.92,24.75-97.8,24.75-97.8l-29.6,2.15l-48.43,14.53
			c0,0-19.37,25.29-19.91,30.67c-0.54,5.38-1.08,55.92,0,59.44C148.84,445.83,171.97,550.22,171.97,550.22z"/>
		<path class="st3" d="M323.79,340.53c0,0,5.85-15.24,7.46-17.66c1.61-2.42,8.61-6.19,15.87-6.19c7.26,0,24.48-2.69,34.17-5.11
			c9.69-2.42,25.02-2.96,40.63-1.61c15.6,1.35,30.13,1.35,35.78,1.35c0,0,8.34,0.81,16.41,3.23c8.07,2.42,14.8,3.5,26.91,0.81
			c12.11-2.69,61.61-13.18,61.61-13.18l33.77,111.78c0,0-55.02,13.87-63.36,19.38c-8.34,5.52-25.83,20.58-25.83,20.58l-83.95,79.91
			c0,0-9.69,11.57-15.87,14.53c-6.19,2.96-22.06,5.11-22.06,5.11s-13.45-0.54-16.14-13.18c0,0-8.61,2.15-16.41-2.15
			c-7.8-4.31-20.18-7.8-20.18-12.92c0,0-17.49-3.5-23.95-4.57c-6.46-1.08-21.52-14.26-8.34-34.17c0,0-2.95,0.81-5.24,2.15
			c-2.29,1.35-6.33,6.46-9.29,7c-2.96,0.54-12.11,2.15-15.07,1.88c-2.96-0.27-14.8-9.69-14.8-18.56s3.9-13.32,3.9-13.32l71.92-59.4
			l-12.05-60.47l3.26-4.68"/>
		<path class="st4" d="M0,263.6l245.7,71.92c0,0-36.06,57.58-52.2,120c-16.14,62.42-21.52,94.71-21.52,94.71L0,492.91V263.6z"/>
		<path class="st5" d="M242.57,340.72l22.9,7.04c0,0-1.01,0.35-1.39,1.03c-11.35,20.42-15.56,25.8-24.45,88.76
			c0,0-3.82,27.44-1.7,41.47c0.32,2.14,1.31,3.13,1.31,3.13l-48.63-15.34c12.71-47.22,14.88-50.04,22.13-68.07
			C225.67,366.56,242.57,340.72,242.57,340.72z"/>
		<path class="st5" d="M595.56,288.44l-30.23,5.24c0,0-4.77,1.09-2.69,8.48c2.08,7.39,40.63,134.39,40.63,134.39
			s10.9,20.99,35.11,16.14c24.21-4.84,18.97-5.25,18.97-5.25l-61.79-156.36V288.44z"/>
		<path class="st6" d="M800,218.6c0,0-123.28,44.81-139.69,49.11c-16.41,4.3-59.19,14.8-59.19,14.8s-11.3,0.54-4.84,25.83
			c6.46,25.29,77.49,184.57,77.49,184.57L800,449.38V218.6z"/>
		<path class="st7" d="M297.69,487.35l52.13-36.41c0,0,10.22-8.61,10.76-17.62c0,0,2.15,10.09-10.49,20.58
			c-12.65,10.49-55.16,41.4-54.91,45.78c0,0,0.39-5.16,3.31-10.2c0.43-0.74,1.82-3.03,1.82-3.03L297.69,487.35z"/>
		<path class="st7" d="M332.6,525.2c-0.55-0.11,4.3-0.07,9.15-3.09c4.84-3.03,34.3-31.68,36.52-33.3c2.22-1.61,6.66-3.85,9.48-3.65
			c0,0-4.91,0.42-9.08,5.06l-32.15,33.29c0,0-5.09,5.98-12.09,5.05c0,0-0.57-0.49-0.98-1.07c-0.41-0.58-0.67-1.24-0.7-1.35
			C332.68,525.92,332.6,525.2,332.6,525.2S334.28,525.53,332.6,525.2z"/>
		<path class="st7" d="M366.97,540.63c0,0,2.99-0.39,6.09-1.4c1.56-0.5,1.85-0.64,4.4-2c4.07-2.16,24.82-25.63,31.08-30.27
			c6.26-4.64,8.38-4.18,14.13-4.24c0,0-10,0.53-15.25,7.44c-3.64,4.79-21.85,27.97-29.92,31.73c-3.56,1.66-7.05,2.12-7.05,2.12
			s-0.56-1.33-0.73-1.81c-0.14-0.43-0.49-1.84-0.49-1.84L366.97,540.63z"/>
		<path class="st8" d="M533.05,433.31c0,0,8.07,4.44,8.47,13.92c0.4,9.48-6.86,21.39-13.72,22c-6.86,0.61-17.56-6.05-19.37-11.7
			c-1.82-5.65,4.04-12.71,8.68-16.95c4.64-4.24,11.44-9.02,15.33-6.86"/>
		<path class="st8" d="M520,483.36c0,0,0.27-10.63-6.86-16.55c-7.13-5.92-13.86-14.39-19.1-16.14c-5.25-1.75-15.15-3.36-22.44,6.86
			c-7.29,10.22-4.46,19.91,0.65,23.81c5.11,3.9,15.34,15.2,19.1,17.08c3.77,1.88,17.76,5.38,22.47,0
			C518.52,493.04,520.29,487.05,520,483.36z"/>
		<path class="st8" d="M482.6,493.85c0,0-13.45-12.51-16.55-14.93c-3.09-2.42-8.48-9.28-16.01-6.05
			c-7.53,3.23-14.8,17.22-11.03,24.48c3.77,7.27,17.62,22.06,18.57,22.6c0.94,0.54,10.9,8.34,16.41,6.19
			c5.51-2.15,11.17-11.3,11.97-16.28C486.77,504.88,486.65,497.6,482.6,493.85z"/>
		<path class="st8" d="M441.42,503.29c0,0-12.51-1.08-16.21,9.69c-3.7,10.76-0.61,18.97-0.61,18.97l-6.73,7.8
			c0,0,12.78,7.94,21.66,6.32c8.88-1.61,19.1-7.8,19.37-13.99C459.18,525.89,454.2,512.44,441.42,503.29z"/>
		<path class="st8" d="M297.89,358.65c0,0,30.94-25.29,65.92-38.21c34.98-12.91,41.16-5.11,51.39-3.77
			c10.22,1.35,23.14,3.5,27.98,5.38c4.84,1.88,9.42,5.92,12.11,16.14s9.69,21.25,12.92,24.75c3.23,3.5,5.65,12.11,0,18.03
			c-5.65,5.92-32.02,9.96-50.31-20.18c0,0-20.18-1.61-26.91-3.23c0,0-28.79,17.49-35.52,23.14c-6.73,5.65-14.93,20.72-25.43,27.98
			c-10.49,7.26-37.28,30.92-45.34,37.2c-6.3,4.91-26.1,21.53-26.1,21.53s-1.48,3.45-2.39,7.36c-0.42,1.8-0.3,7.36-0.3,7.36
			l-18.29-5.54c0,0-2.27-80.06,24.45-124.23l31.53,6.18L297.89,358.65z"/>
		<path class="st9" d="M311.28,423.62c0,0-19.57-1.74-26.57-8.46c0,0,5.37,6.84,23.47,11.07L311.28,423.62z"/>
	</g>
</g>
</svg>
