<svg id="Layer_1" data-name="Layer 1" xmlns="http://www.w3.org/2000/svg" xmlns:xlink="http://www.w3.org/1999/xlink" viewBox="0 0 166.99 168.91"><defs><style>.cls-1{fill:url(#linear-gradient);}.cls-2{fill:url(#linear-gradient-2);}.cls-3{fill:url(#linear-gradient-3);}.cls-4{fill:url(#linear-gradient-4);}.cls-5{fill:url(#linear-gradient-5);}.cls-6{fill:url(#linear-gradient-6);}.cls-7{fill:url(#linear-gradient-7);}.cls-8{fill:url(#linear-gradient-8);}.cls-9{fill:url(#linear-gradient-9);}.cls-10{fill:url(#linear-gradient-10);}.cls-11{fill:url(#linear-gradient-11);}.cls-12{fill:url(#linear-gradient-12);}.cls-13{fill:url(#linear-gradient-13);}.cls-14{fill:url(#linear-gradient-14);}.cls-15{fill:url(#linear-gradient-15);}.cls-16{fill:url(#linear-gradient-16);}.cls-17{fill:url(#linear-gradient-17);}.cls-18{fill:url(#linear-gradient-18);}.cls-19{fill:url(#linear-gradient-19);}.cls-20{fill:url(#linear-gradient-20);}.cls-21{fill:url(#linear-gradient-21);}.cls-22{fill:url(#linear-gradient-22);}.cls-23{fill:url(#linear-gradient-23);}.cls-24{fill:url(#linear-gradient-24);}.cls-25{fill:url(#linear-gradient-25);}.cls-26{fill:url(#linear-gradient-26);}.cls-27{fill:url(#linear-gradient-27);}.cls-28{fill:url(#linear-gradient-28);}.cls-29{fill:url(#linear-gradient-29);}.cls-30{fill:url(#linear-gradient-30);}.cls-31{fill:url(#linear-gradient-31);}.cls-32{fill:url(#linear-gradient-32);}.cls-33{fill:url(#linear-gradient-33);}.cls-34{fill:url(#linear-gradient-34);}.cls-35{fill:url(#linear-gradient-35);}.cls-36{fill:url(#linear-gradient-36);}.cls-37{fill:url(#linear-gradient-37);}.cls-38{fill:url(#linear-gradient-38);}.cls-39{fill:url(#linear-gradient-39);}.cls-40{fill:url(#linear-gradient-40);}.cls-41{fill:url(#linear-gradient-41);}.cls-42{fill:url(#linear-gradient-42);}.cls-43{fill:url(#linear-gradient-43);}.cls-44{fill:url(#linear-gradient-44);}.cls-45{fill:url(#linear-gradient-45);}.cls-46{fill:url(#linear-gradient-46);}.cls-47{fill:url(#linear-gradient-47);}.cls-48{fill:url(#linear-gradient-48);}.cls-49{fill:url(#linear-gradient-49);}.cls-50{fill:url(#linear-gradient-50);}.cls-51{fill:url(#linear-gradient-51);}</style><linearGradient id="linear-gradient" x1="232.53" y1="78.52" x2="239.71" y2="90.27" gradientTransform="translate(-120.08 96.26) rotate(4.29)" gradientUnits="userSpaceOnUse"><stop offset="0" stop-color="#e5c47d"/><stop offset="0" stop-color="#eec467"/><stop offset="0.23" stop-color="#ffffcf"/><stop offset="0.41" stop-color="#ffde7a"/><stop offset="0.59" stop-color="#cea346"/><stop offset="1" stop-color="#6c3a00"/></linearGradient><linearGradient id="linear-gradient-2" x1="227.81" y1="98.58" x2="239.08" y2="91.69" xlink:href="#linear-gradient"/><linearGradient id="linear-gradient-3" x1="223.83" y1="74.63" x2="228.4" y2="87.26" xlink:href="#linear-gradient"/><linearGradient id="linear-gradient-4" x1="214.62" y1="93" x2="227.35" y2="89.22" xlink:href="#linear-gradient"/><linearGradient id="linear-gradient-5" x1="216.25" y1="68.43" x2="218.19" y2="82.12" xlink:href="#linear-gradient"/><linearGradient id="linear-gradient-6" x1="203.16" y1="83.97" x2="217.15" y2="83.97" xlink:href="#linear-gradient"/><linearGradient id="linear-gradient-7" x1="210.34" y1="60.62" x2="208.98" y2="73.34" xlink:href="#linear-gradient"/><linearGradient id="linear-gradient-8" x1="193.82" y1="74.24" x2="207.76" y2="74.24" xlink:href="#linear-gradient"/><linearGradient id="linear-gradient-9" x1="205.72" y1="51.14" x2="201.74" y2="63.38" xlink:href="#linear-gradient"/><linearGradient id="linear-gradient-10" x1="186.92" y1="59.7" x2="199.93" y2="64.94" xlink:href="#linear-gradient"/><linearGradient id="linear-gradient-11" x1="203.39" y1="40.34" x2="196.1" y2="51.41" xlink:href="#linear-gradient"/><linearGradient id="linear-gradient-12" x1="182.86" y1="44.69" x2="194.13" y2="52.27" xlink:href="#linear-gradient"/><linearGradient id="linear-gradient-13" x1="202.5" y1="29.39" x2="192.79" y2="38.32" xlink:href="#linear-gradient"/><linearGradient id="linear-gradient-14" x1="181.7" y1="28.49" x2="191.41" y2="39.08" xlink:href="#linear-gradient"/><linearGradient id="linear-gradient-15" x1="204.58" y1="20.29" x2="193.02" y2="26.41" xlink:href="#linear-gradient"/><linearGradient id="linear-gradient-16" x1="184.49" y1="14.56" x2="190.8" y2="26.5" xlink:href="#linear-gradient"/><linearGradient id="linear-gradient-17" x1="209.14" y1="11.83" x2="195.96" y2="15.57" xlink:href="#linear-gradient"/><linearGradient id="linear-gradient-18" x1="190.07" y1="1.87" x2="194.64" y2="15.17" xlink:href="#linear-gradient"/><linearGradient id="linear-gradient-19" x1="214.9" y1="5.08" x2="201.3" y2="5.18" xlink:href="#linear-gradient"/><linearGradient id="linear-gradient-20" x1="199.53" y1="-9.47" x2="200.3" y2="4.52" xlink:href="#linear-gradient"/><linearGradient id="linear-gradient-21" x1="223.54" y1="-0.44" x2="210.14" y2="-3.84" xlink:href="#linear-gradient"/><linearGradient id="linear-gradient-22" x1="211.18" y1="-18.16" x2="209.05" y2="-5.05" xlink:href="#linear-gradient"/><linearGradient id="linear-gradient-23" x1="233.35" y1="-5.12" x2="220.53" y2="-10.46" xlink:href="#linear-gradient"/><linearGradient id="linear-gradient-24" x1="224.7" y1="-24.61" x2="220.33" y2="-12.56" xlink:href="#linear-gradient"/><linearGradient id="linear-gradient-25" x1="-2512.48" y1="284.42" x2="-2505.29" y2="296.17" gradientTransform="matrix(-1, 0.07, 0.07, 1, -2348.17, 96.26)" xlink:href="#linear-gradient"/><linearGradient id="linear-gradient-26" x1="-2517.19" y1="304.49" x2="-2505.93" y2="297.59" gradientTransform="matrix(-1, 0.07, 0.07, 1, -2348.17, 96.26)" xlink:href="#linear-gradient"/><linearGradient id="linear-gradient-27" x1="-2521.17" y1="280.53" x2="-2516.61" y2="293.16" gradientTransform="matrix(-1, 0.07, 0.07, 1, -2348.17, 96.26)" xlink:href="#linear-gradient"/><linearGradient id="linear-gradient-28" x1="-2530.38" y1="298.91" x2="-2517.66" y2="295.12" gradientTransform="matrix(-1, 0.07, 0.07, 1, -2348.17, 96.26)" xlink:href="#linear-gradient"/><linearGradient id="linear-gradient-29" x1="-2528.75" y1="274.33" x2="-2526.81" y2="288.02" gradientTransform="matrix(-1, 0.07, 0.07, 1, -2348.17, 96.26)" xlink:href="#linear-gradient"/><linearGradient id="linear-gradient-30" x1="-2541.85" y1="289.88" x2="-2527.85" y2="289.88" gradientTransform="matrix(-1, 0.07, 0.07, 1, -2348.17, 96.26)" xlink:href="#linear-gradient"/><linearGradient id="linear-gradient-31" x1="-2534.67" y1="266.52" x2="-2536.02" y2="279.24" gradientTransform="matrix(-1, 0.07, 0.07, 1, -2348.17, 96.26)" xlink:href="#linear-gradient"/><linearGradient id="linear-gradient-32" x1="-2551.18" y1="280.14" x2="-2537.24" y2="280.14" gradientTransform="matrix(-1, 0.07, 0.07, 1, -2348.17, 96.26)" xlink:href="#linear-gradient"/><linearGradient id="linear-gradient-33" x1="-2539.29" y1="257.04" x2="-2543.27" y2="269.28" gradientTransform="matrix(-1, 0.07, 0.07, 1, -2348.17, 96.26)" xlink:href="#linear-gradient"/><linearGradient id="linear-gradient-34" x1="-2558.09" y1="265.6" x2="-2545.08" y2="270.84" gradientTransform="matrix(-1, 0.07, 0.07, 1, -2348.17, 96.26)" xlink:href="#linear-gradient"/><linearGradient id="linear-gradient-35" x1="-2541.62" y1="246.25" x2="-2548.9" y2="257.32" gradientTransform="matrix(-1, 0.07, 0.07, 1, -2348.17, 96.26)" xlink:href="#linear-gradient"/><linearGradient id="linear-gradient-36" x1="-2562.15" y1="250.6" x2="-2550.88" y2="258.17" gradientTransform="matrix(-1, 0.07, 0.07, 1, -2348.17, 96.26)" xlink:href="#linear-gradient"/><linearGradient id="linear-gradient-37" x1="-2542.5" y1="235.29" x2="-2552.21" y2="244.23" gradientTransform="matrix(-1, 0.07, 0.07, 1, -2348.17, 96.26)" xlink:href="#linear-gradient"/><linearGradient id="linear-gradient-38" x1="-2563.3" y1="234.39" x2="-2553.59" y2="244.98" gradientTransform="matrix(-1, 0.07, 0.07, 1, -2348.17, 96.26)" xlink:href="#linear-gradient"/><linearGradient id="linear-gradient-39" x1="-2540.43" y1="226.2" x2="-2551.98" y2="232.31" gradientTransform="matrix(-1, 0.07, 0.07, 1, -2348.17, 96.26)" xlink:href="#linear-gradient"/><linearGradient id="linear-gradient-40" x1="-2560.52" y1="220.46" x2="-2554.2" y2="232.41" gradientTransform="matrix(-1, 0.07, 0.07, 1, -2348.17, 96.26)" xlink:href="#linear-gradient"/><linearGradient id="linear-gradient-41" x1="-2535.87" y1="217.73" x2="-2549.05" y2="221.47" gradientTransform="matrix(-1, 0.07, 0.07, 1, -2348.17, 96.26)" xlink:href="#linear-gradient"/><linearGradient id="linear-gradient-42" x1="-2554.93" y1="207.77" x2="-2550.37" y2="221.08" gradientTransform="matrix(-1, 0.07, 0.07, 1, -2348.17, 96.26)" xlink:href="#linear-gradient"/><linearGradient id="linear-gradient-43" x1="-2530.11" y1="210.98" x2="-2543.7" y2="211.08" gradientTransform="matrix(-1, 0.07, 0.07, 1, -2348.17, 96.26)" xlink:href="#linear-gradient"/><linearGradient id="linear-gradient-44" x1="-2545.48" y1="196.43" x2="-2544.7" y2="210.42" gradientTransform="matrix(-1, 0.07, 0.07, 1, -2348.17, 96.26)" xlink:href="#linear-gradient"/><linearGradient id="linear-gradient-45" x1="-2521.47" y1="205.46" x2="-2534.87" y2="202.06" gradientTransform="matrix(-1, 0.07, 0.07, 1, -2348.17, 96.26)" xlink:href="#linear-gradient"/><linearGradient id="linear-gradient-46" x1="-2533.82" y1="187.74" x2="-2535.96" y2="200.85" gradientTransform="matrix(-1, 0.07, 0.07, 1, -2348.17, 96.26)" xlink:href="#linear-gradient"/><linearGradient id="linear-gradient-47" x1="-2511.65" y1="200.78" x2="-2524.47" y2="195.44" gradientTransform="matrix(-1, 0.07, 0.07, 1, -2348.17, 96.26)" xlink:href="#linear-gradient"/><linearGradient id="linear-gradient-48" x1="-2520.3" y1="181.3" x2="-2524.67" y2="193.34" gradientTransform="matrix(-1, 0.07, 0.07, 1, -2348.17, 96.26)" xlink:href="#linear-gradient"/><linearGradient id="linear-gradient-49" x1="141.65" y1="53.51" x2="141.65" y2="91.19" gradientUnits="userSpaceOnUse"><stop offset="0" stop-color="#eec467"/><stop offset="0.23" stop-color="#ffffcf"/><stop offset="0.41" stop-color="#ffde7a"/><stop offset="0.59" stop-color="#cea346"/><stop offset="1" stop-color="#6c3a00"/></linearGradient><linearGradient id="linear-gradient-50" x1="141.65" y1="53.51" x2="141.65" y2="91.19" xlink:href="#linear-gradient-49"/><linearGradient id="linear-gradient-51" x1="189.56" y1="98.24" x2="121.92" y2="190.75" gradientTransform="matrix(1, 0, 0, 1, 0, 0)" xlink:href="#linear-gradient"/></defs><path class="cls-1" d="M112.24,204.21c.57-1.33,2.7-9-6.46-12.49C103.34,201.22,110.82,203.91,112.24,204.21Z" transform="translate(-58.74 -43.52)"/><path class="cls-2" d="M99.39,211.8c1.32.58,9,2.7,12.49-6.45C102.38,202.9,99.68,210.38,99.39,211.8Z" transform="translate(-58.74 -43.52)"/><path class="cls-3" d="M101.11,200.86c.86-1.16,4.69-8.13-3.42-13.63C93.13,195.91,99.8,200.25,101.11,200.86Z" transform="translate(-58.74 -43.52)"/><path class="cls-4" d="M86.86,205.31c1.16.86,8.13,4.69,13.64-3.42C91.81,197.33,87.47,204,86.86,205.31Z" transform="translate(-58.74 -43.52)"/><path class="cls-5" d="M91.06,194.7c1.1-.93,6.39-6.87-.28-14C84.4,188.09,89.92,193.81,91.06,194.7Z" transform="translate(-58.74 -43.52)"/><path class="cls-6" d="M76.18,195.84c.94,1.1,6.87,6.39,14.06-.28C82.79,189.18,77.07,194.7,76.18,195.84Z" transform="translate(-58.74 -43.52)"/><path class="cls-7" d="M82.47,186.1c1.29-.66,7.76-5.27,2.86-13.76C77.45,178.18,81.56,185,82.47,186.1Z" transform="translate(-58.74 -43.52)"/><path class="cls-8" d="M67.71,183.91c.67,1.28,5.28,7.76,13.77,2.85C75.64,178.88,68.84,183,67.71,183.91Z" transform="translate(-58.74 -43.52)"/><path class="cls-9" d="M75.69,175.41c1.4-.36,8.75-3.4,5.87-12.77C72.57,166.56,75.05,174.11,75.69,175.41Z" transform="translate(-58.74 -43.52)"/><path class="cls-10" d="M61.8,170c.36,1.4,3.4,8.75,12.77,5.88C70.66,166.84,63.1,169.31,61.8,170Z" transform="translate(-58.74 -43.52)"/><path class="cls-11" d="M71,162.92c1.45,0,9.3-1.29,8.66-11.08C70,153.59,70.7,161.51,71,162.92Z" transform="translate(-58.74 -43.52)"/><path class="cls-12" d="M58.76,154.41c0,1.44,1.29,9.29,11.08,8.65C68.09,153.41,60.17,154.09,58.76,154.41Z" transform="translate(-58.74 -43.52)"/><path class="cls-13" d="M68.8,149.31c1.41.31,9.34.93,11-8.73C70,140,68.82,147.86,68.8,149.31Z" transform="translate(-58.74 -43.52)"/><path class="cls-14" d="M58.88,138.16c-.31,1.41-.93,9.34,8.73,11C68.19,139.39,60.33,138.18,58.88,138.16Z" transform="translate(-58.74 -43.52)"/><path class="cls-15" d="M69.59,137.57c1.3.63,8.87,3.08,12.76-5.92C73,128.81,70,136.17,69.59,137.57Z" transform="translate(-58.74 -43.52)"/><path class="cls-16" d="M62.56,124.4c-.63,1.3-3.09,8.87,5.91,12.76C71.32,127.77,64,124.76,62.56,124.4Z" transform="translate(-58.74 -43.52)"/><path class="cls-17" d="M73.49,126.6c1.12.91,7.92,5,13.76-2.85C78.77,118.84,74.15,125.31,73.49,126.6Z" transform="translate(-58.74 -43.52)"/><path class="cls-18" d="M69.65,112.18c-.92,1.12-5,7.92,2.84,13.77C77.41,117.46,70.93,112.85,69.65,112.18Z" transform="translate(-58.74 -43.52)"/><path class="cls-19" d="M80.13,116.79c.89,1.14,6.6,6.67,14.05.3C87,110.41,81.07,115.68,80.13,116.79Z" transform="translate(-58.74 -43.52)"/><path class="cls-20" d="M79.61,101.87c-1.14.89-6.67,6.6-.3,14.06C86,108.75,80.71,102.81,79.61,101.87Z" transform="translate(-58.74 -43.52)"/><path class="cls-21" d="M89.15,108.5c.61,1.31,4.95,8,13.63,3.43C97.28,103.81,90.31,107.64,89.15,108.5Z" transform="translate(-58.74 -43.52)"/><path class="cls-22" d="M92,93.85c-1.31.61-8,5-3.42,13.63C96.65,102,92.83,95,92,93.85Z" transform="translate(-58.74 -43.52)"/><path class="cls-23" d="M100.21,102.08c.3,1.42,3,8.89,12.51,6.42C109.19,99.35,101.53,101.5,100.21,102.08Z" transform="translate(-58.74 -43.52)"/><path class="cls-24" d="M106.26,88.44c-1.42.3-8.89,3-6.42,12.51C109,97.42,106.84,89.77,106.26,88.44Z" transform="translate(-58.74 -43.52)"/><path class="cls-25" d="M172.24,204.21c-.58-1.33-2.71-9,6.45-12.49C181.13,201.22,173.65,203.91,172.24,204.21Z" transform="translate(-58.74 -43.52)"/><path class="cls-26" d="M185.09,211.8c-1.33.58-9,2.7-12.49-6.45C182.09,202.9,184.79,210.38,185.09,211.8Z" transform="translate(-58.74 -43.52)"/><path class="cls-27" d="M183.36,200.86c-.86-1.16-4.69-8.13,3.43-13.63C191.34,195.91,184.68,200.25,183.36,200.86Z" transform="translate(-58.74 -43.52)"/><path class="cls-28" d="M197.61,205.31c-1.16.86-8.12,4.69-13.63-3.42C192.66,197.33,197,204,197.61,205.31Z" transform="translate(-58.74 -43.52)"/><path class="cls-29" d="M193.41,194.7c-1.1-.93-6.39-6.87.28-14C200.07,188.09,194.55,193.81,193.41,194.7Z" transform="translate(-58.74 -43.52)"/><path class="cls-30" d="M208.29,195.84c-.93,1.1-6.87,6.39-14-.28C201.68,189.18,207.4,194.7,208.29,195.84Z" transform="translate(-58.74 -43.52)"/><path class="cls-31" d="M202,186.1c-1.28-.66-7.76-5.27-2.85-13.76C207,178.18,202.91,185,202,186.1Z" transform="translate(-58.74 -43.52)"/><path class="cls-32" d="M216.76,183.91c-.67,1.28-5.28,7.76-13.76,2.85C208.83,178.88,215.64,183,216.76,183.91Z" transform="translate(-58.74 -43.52)"/><path class="cls-33" d="M208.78,175.41c-1.4-.36-8.75-3.4-5.87-12.77C211.9,166.56,209.42,174.11,208.78,175.41Z" transform="translate(-58.74 -43.52)"/><path class="cls-34" d="M222.68,170c-.37,1.4-3.4,8.75-12.78,5.88C213.82,166.84,221.37,169.31,222.68,170Z" transform="translate(-58.74 -43.52)"/><path class="cls-35" d="M213.45,162.92c-1.44,0-9.29-1.29-8.65-11.08C214.45,153.59,213.78,161.51,213.45,162.92Z" transform="translate(-58.74 -43.52)"/><path class="cls-36" d="M225.71,154.41c0,1.44-1.29,9.29-11.07,8.65C216.38,153.41,224.3,154.09,225.71,154.41Z" transform="translate(-58.74 -43.52)"/><path class="cls-37" d="M215.68,149.31c-1.42.31-9.34.93-11-8.73C214.45,140,215.66,147.86,215.68,149.31Z" transform="translate(-58.74 -43.52)"/><path class="cls-38" d="M225.59,138.16c.32,1.41.93,9.34-8.73,11C216.29,139.39,224.15,138.18,225.59,138.16Z" transform="translate(-58.74 -43.52)"/><path class="cls-39" d="M214.88,137.57c-1.3.63-8.86,3.08-12.75-5.92C211.51,128.81,214.52,136.17,214.88,137.57Z" transform="translate(-58.74 -43.52)"/><path class="cls-40" d="M221.92,124.4c.63,1.3,3.08,8.87-5.92,12.76C213.15,127.77,220.51,124.76,221.92,124.4Z" transform="translate(-58.74 -43.52)"/><path class="cls-41" d="M211,126.6c-1.13.91-7.93,5-13.77-2.85C205.7,118.84,210.32,125.31,211,126.6Z" transform="translate(-58.74 -43.52)"/><path class="cls-42" d="M214.83,112.18c.91,1.12,5,7.92-2.85,13.77C207.07,117.46,213.54,112.85,214.83,112.18Z" transform="translate(-58.74 -43.52)"/><path class="cls-43" d="M204.34,116.79c-.89,1.14-6.6,6.67-14.05.3C197.46,110.41,203.4,115.68,204.34,116.79Z" transform="translate(-58.74 -43.52)"/><path class="cls-44" d="M204.86,101.87c1.14.89,6.68,6.6.31,14.06C198.48,108.75,203.76,102.81,204.86,101.87Z" transform="translate(-58.74 -43.52)"/><path class="cls-45" d="M195.32,108.5c-.61,1.31-4.95,8-13.63,3.43C187.19,103.81,194.16,107.64,195.32,108.5Z" transform="translate(-58.74 -43.52)"/><path class="cls-46" d="M192.51,93.85c1.31.61,8,5,3.42,13.63C187.82,102,191.64,95,192.51,93.85Z" transform="translate(-58.74 -43.52)"/><path class="cls-47" d="M184.27,102.08c-.31,1.42-3,8.89-12.51,6.42C175.29,99.35,182.94,101.5,184.27,102.08Z" transform="translate(-58.74 -43.52)"/><path class="cls-48" d="M178.21,88.44c1.42.3,8.89,3,6.42,12.51C175.48,97.42,177.63,89.77,178.21,88.44Z" transform="translate(-58.74 -43.52)"/><path class="cls-49" d="M172.71,68.11c-10.33-1.82-5.39,11.25-16.35,9.87-4.18-.44-7.56-3.63-7.42-7.29.12-3,2.75-5.44,6.24-6A37.49,37.49,0,0,1,141.8,43.52h0c-3.2,11.93-10.08,18.58-13.42,21.14,3.5.58,6.12,3,6.23,6,.14,3.66-3.25,6.85-7.42,7.27-11.26,1.41-5.81-11.72-16.35-9.89-1.23.24-2.46.5-3.68.77a184.44,184.44,0,0,1,17.41,24.53,131.1,131.1,0,0,1,34.39,0,187.2,187.2,0,0,1,17.21-24.56C175,68.58,173.86,68.33,172.71,68.11ZM141.65,87.19A4.56,4.56,0,0,1,136.94,83a4.73,4.73,0,0,1,9.43,0A4.57,4.57,0,0,1,141.65,87.19Zm0-12.43q-2.24-4.56-4.76-9,2.25-4.64,4.76-9.19,2.52,4.56,4.77,9.19C144.73,68.71,143.15,71.72,141.65,74.76Z" transform="translate(-58.74 -43.52)"/><path class="cls-50" d="M159.88,98.2a127.19,127.19,0,0,0-36.45,0,1.37,1.37,0,0,1-1.55-1.14v0A1.37,1.37,0,0,1,123,95.46a129.73,129.73,0,0,1,37.23,0A1.37,1.37,0,0,1,161.43,97v0A1.36,1.36,0,0,1,159.88,98.2Z" transform="translate(-58.74 -43.52)"/><path class="cls-51" d="M132,205.42a5.52,5.52,0,0,0,2.38-4.83V122.33a5.33,5.33,0,0,0-2.38-4.76,12,12,0,0,0-6.7-1.59v-1.44a47.69,47.69,0,0,0,14.06-2.3,57.06,57.06,0,0,0,11.6-4.76h1.44v93.11a5.6,5.6,0,0,0,2.3,4.83,11.32,11.32,0,0,0,6.64,1.65v1.44l-18-.14-18,.14v-1.44A11.62,11.62,0,0,0,132,205.42Z" transform="translate(-58.74 -43.52)"/></svg>