<svg xmlns="http://www.w3.org/2000/svg" viewBox="0 0 238.71 120.61"><defs><style>.cls-1{fill:#ffd200;}.cls-2{fill:#ffb400;}.cls-3{fill:#ff9b00;}.cls-4{fill:#fff2b3;}</style></defs><g id="Layer_1" data-name="Layer 1"><path class="cls-1" d="M172.35,87.56V33.05a5.8,5.8,0,0,0-2.89-5L122.25.78a5.76,5.76,0,0,0-5.79,0L69.25,28a5.81,5.81,0,0,0-2.9,5V87.56a5.78,5.78,0,0,0,2.9,5l47.21,27.26a5.76,5.76,0,0,0,5.79,0l47.21-27.26A5.77,5.77,0,0,0,172.35,87.56Z"/><path class="cls-2" d="M162.65,82V38.64a5.8,5.8,0,0,0-2.89-5L122.25,12a5.81,5.81,0,0,0-5.79,0L79,33.63a5.81,5.81,0,0,0-2.9,5V82A5.78,5.78,0,0,0,79,87l37.51,21.66a5.76,5.76,0,0,0,5.79,0L159.76,87A5.77,5.77,0,0,0,162.65,82Z"/><path class="cls-3" d="M159.76,33.63,122.25,12a5.81,5.81,0,0,0-5.79,0L79,33.63a5.81,5.81,0,0,0-2.9,5V69.38l41.31,15.19a5.82,5.82,0,0,0,4,0l41.3-15.19V38.64A5.8,5.8,0,0,0,159.76,33.63Z"/><path class="cls-4" d="M94.1,77.44,81.67,45.32h7.81L98.39,70l8.86-24.7h7.8L102.67,77.44Z"/><path class="cls-4" d="M118,77.44V45.32h6.84V77.44Z"/><path class="cls-4" d="M131.22,77.44V45.32h15c7,0,10.78,4.72,10.78,10.35S153.18,66,146.25,66h-8.19V77.44Zm18.83-21.77c0-2.7-2-4.33-4.72-4.33h-7.27V60h7.27C148,60,150.05,58.32,150.05,55.67Z"/><polygon class="cls-1" points="119.35 87.3 122.6 93.89 129.87 94.94 124.61 100.07 125.85 107.3 119.35 103.89 112.86 107.3 114.1 100.07 108.84 94.94 116.1 93.89 119.35 87.3"/><polygon class="cls-4" points="196.18 48.43 200.87 57.93 211.36 59.46 203.77 66.86 205.56 77.3 196.18 72.37 186.8 77.3 188.59 66.86 181 59.46 191.49 57.93 196.18 48.43"/><polygon class="cls-4" points="228.26 48.43 231.49 54.97 238.71 56.02 233.48 61.11 234.72 68.3 228.26 64.91 221.8 68.3 223.03 61.11 217.81 56.02 225.03 54.97 228.26 48.43"/><polygon class="cls-4" points="42.53 48.43 37.84 57.93 27.34 59.46 34.94 66.86 33.14 77.3 42.53 72.37 51.91 77.3 50.12 66.86 57.71 59.46 47.22 57.93 42.53 48.43"/><polygon class="cls-4" points="10.45 48.43 7.22 54.97 0 56.02 5.22 61.11 3.99 68.3 10.45 64.91 16.91 68.3 15.67 61.11 20.9 56.02 13.68 54.97 10.45 48.43"/><polygon class="cls-1" points="129.87 24.9 126.77 20.86 119.35 19.3 111.94 20.86 108.84 24.9 119.35 37.3 129.87 24.9"/></g></svg>