<?xml version="1.0" encoding="UTF-8"?>
<svg width="262px" height="176px" viewBox="0 0 262 176" version="1.1" xmlns="http://www.w3.org/2000/svg" xmlns:xlink="http://www.w3.org/1999/xlink">
    <!-- Generator: Sketch 52.6 (67491) - http://www.bohemiancoding.com/sketch -->
    <title>Group 97</title>
    <desc>Created with Sketch.</desc>
    <g id="Page-1" stroke="none" stroke-width="1" fill="none" fill-rule="evenodd">
        <g id="Races" transform="translate(-118.000000, -189.000000)">
            <g id="Group-97" transform="translate(118.000000, 189.000000)">
                <path d="M162.044722,38.5588411 L172.833236,64.4555762 C173.515765,66.0909492 175.064983,67.1983222 176.831584,67.3124843 L243.783975,71.5811978 C244.731352,71.6420843 245.335091,70.585133 244.804446,69.7964627 L227.310251,43.8702357 C226.716004,42.9892843 225.760084,42.4203762 224.703541,42.3185816 L163.626214,36.4106897 C162.459555,36.2984303 161.592867,37.4733492 162.044722,38.5588411" id="Fill-1" fill="#E8F1F7"></path>
                <path d="M217.293687,44.01056 L217.513919,43.9934357 L222.430216,46.8531978 C222.886817,47.1167222 223.471571,47.4163978 223.875013,47.3041384 C224.234788,47.2032951 224.385723,46.8179978 224.03639,46.1986681 C223.730723,45.6573492 223.104201,45.2330465 222.731136,44.9942573 C222.602984,44.9086357 222.540332,44.7783005 222.547926,44.6698465 L222.657093,43.8954465 C222.672281,43.8164843 222.773854,43.7879438 222.902006,43.8716627 C223.148817,44.0276843 224.361042,44.7354897 225.140397,46.1168519 C225.983354,47.6133276 225.773564,48.6284195 224.846122,48.8852843 C224.357245,49.0222789 223.684209,48.8500843 222.813723,48.3449168 L219.534926,46.4336519 L220.866759,48.7958573 C220.93131,48.9109708 220.899035,49.0118141 220.806006,49.0232303 L220.148158,49.0698465 C220.05418,49.0803114 219.904194,48.9728086 219.840593,48.8586465 L217.232933,44.2350789 C217.159839,44.1066465 217.200658,44.0200735 217.293687,44.01056" id="Fill-3" fill="#D54B48"></path>
                <path d="M228.07774,45.0083373 L227.309776,43.8714724 C226.71553,42.9895697 225.760559,42.4197103 224.703066,42.3179157 L163.62574,36.4109751 C162.45908,36.2987157 161.593341,37.4736346 162.044247,38.5591265 L167.09724,50.6860022 L228.07774,45.0083373 Z" id="Fill-5" fill-opacity="0.2" fill="#151E30"></path>
                <polygon id="Fill-7" fill="#D54B48" points="201.995925 51.6463914 208.909497 56.0673211 205.157012 58.5465427 193.535983 51.0318184 200.929888 47.0389968 205.436099 49.4306941"></polygon>
                <path d="M100.911958,14.7926573 L127.827712,40.9376951 C129.481349,42.5435762 131.806125,43.2485276 134.070146,42.8308843 L217.020675,27.5141276 C218.529074,27.2353816 218.929668,25.2565708 217.649096,24.4108195 L183.139139,1.63261405 C182.462306,1.18547892 181.647828,0.998062703 180.844741,1.1036627 L102.008371,11.4714897 C100.400299,11.6817384 99.7462478,13.6615005 100.911958,14.7926573" id="Fill-9" fill="#E8F1F7"></path>
                <path d="M117.178456,29.1057384 L121.407478,28.4397924 C122.765891,28.2257384 124.156579,28.503533 125.327985,29.2237059 L144.377093,40.9272303 L135.30297,42.6206357 L117.178456,29.1057384 Z" id="Fill-11" fill-opacity="0.2" fill="#151E30"></path>
                <polygon id="Fill-13" fill="#D54B48" points="158.403396 16.99456 167.881911 19.2445059 164.640136 23.4951438 148.674273 19.6202897 155.410331 12.2444627 161.396462 13.1615654"></polygon>
                <path d="M180.398961,7.76816432 L181.61878,6.14801297 L181.596946,6.12613189 L178.600084,6.03099676 L180.398961,7.76816432 Z M174.00749,4.32712649 L183.704338,5.05586162 C183.806859,5.06442378 183.896091,5.09962378 183.986272,5.18809946 L184.089743,5.28704 C184.169483,5.36409946 184.18562,5.44496432 184.15999,5.49538595 L180.833729,10.9218941 C180.774874,11.0312995 180.567932,10.9989535 180.408454,10.8448346 L179.418359,9.88872649 C179.24749,9.72319135 179.196229,9.61093189 179.283562,9.50057514 L179.892048,8.6643373 L177.05941,5.92825081 L175.506396,5.8521427 C175.367801,5.84738595 175.162758,5.7779373 174.981446,5.6019373 L173.934396,4.59065081 C173.773968,4.43748324 173.822381,4.31571027 174.00749,4.32712649 Z" id="Fill-15" fill="#D54B48"></path>
                <path d="M117.407516,26.8964151 L50.1798348,63.4558962 C48.6581464,64.2826205 48.3211536,66.3223178 49.4925594,67.59808 L82.9174942,103.949215 C83.9560014,105.079421 85.6495087,105.307745 86.9490667,104.495291 L151.338414,64.2664476 C152.993001,63.23328 153.278733,60.9348151 151.927914,59.5268151 L121.203668,27.4872043 C120.215472,26.4559395 118.661509,26.2142962 117.407516,26.8964151" id="Fill-17" fill="#E8F1F7"></path>
                <path d="M92.9756362,40.1827978 L50.1794551,63.4557059 C48.6577667,64.2824303 48.3207739,66.3230789 49.493129,67.5978897 L57.9302884,76.7746249 L92.9756362,40.1827978 Z" id="Fill-19" fill-opacity="0.2" fill="#151E30"></path>
                <polygon id="Fill-21" fill="#151E30" points="112.047433 54.4010292 96.5106428 54.4010292 94.47065 59.8655914 101.216201 59.8655914 99.3575196 66.9778941 108.761041 66.9778941"></polygon>
                <polygon id="Fill-23" fill="#151E30" points="93.4179036 61.1385946 97.173237 66.6031568 98.6018964 61.1385946"></polygon>
                <path d="M118.106467,34.5760086 L116.719576,33.3363978 C116.575286,33.2089168 116.521178,33.0272086 116.623699,32.9672735 L117.229337,32.5848303 C117.341351,32.5172843 117.418243,32.5077708 117.636576,32.6038573 L120.694192,33.9861708 L121.727953,35.1905816 C121.853257,35.3361384 121.84946,35.5102357 121.737446,35.578733 L114.21254,39.5201816 C114.101475,39.5896303 113.887888,39.5182789 113.761634,39.3717708 L112.504793,37.9076411 C112.36525,37.74496 112.369047,37.5718141 112.480112,37.5042681 L118.106467,34.5760086 Z" id="Fill-25" fill="#151E30"></path>
                <g id="Group-29" transform="translate(0.000000, 0.670703)" fill="#E8F1F7">
                    <path d="M52.7362333,1.4905773 L73.308929,39.3610205 C73.9762696,40.5892151 73.8063493,42.1047178 72.8846029,43.1550097 L23.2707261,99.6329341 C22.2217768,100.827831 20.3032913,100.590945 19.5732986,99.1781881 L0.461537681,62.1496908 C-0.308324638,60.6589232 -0.101382609,58.8513557 0.982689855,57.5736908 L48.9400812,1.09671784 C49.9928275,-0.142892973 51.9597261,0.0606962162 52.7362333,1.4905773" id="Fill-27"></path>
                </g>
                <polygon id="Fill-30" fill="#151E30" points="36.1007522 41.8569859 42.119158 40.4898941 39.7383754 49.235667 34.111071 50.746413"></polygon>
                <polygon id="Fill-32" fill="#151E30" points="34.9577297 42.1170854 32.9652007 50.9941449 27.6995703 52.2451719 29.6588746 43.188307"></polygon>
                <polygon id="Fill-34" fill="#151E30" points="33.8536275 51.9613838 39.3992942 50.4848865 37.5728884 57.4735135 32.1477797 58.696"></polygon>
                <polygon id="Fill-36" fill="#151E30" points="31.7854413 52.7250335 26.0774486 54.3518443 29.1217746 59.4672605"></polygon>
                <path d="M48.7463341,16.020947 L50.7882254,12.8738768 L47.1923703,13.3419416 L48.7463341,16.020947 Z M45.4438051,12.6874119 L46.1510152,11.6000173 L52.6734862,10.6800605 C52.7228486,10.6810119 52.78645,10.7076497 52.841508,10.8027849 L53.2601384,11.5248605 C53.337979,11.6570984 53.3408268,11.88352 53.2458993,12.0281254 L49.6225152,17.6135092 L50.2433413,18.6856822 C50.3287761,18.8321903 50.3230804,19.0471957 50.2376457,19.1765795 L49.7107978,19.9899849 C49.625363,20.1222227 49.4858196,20.1298335 49.4003848,19.9833254 L48.7795587,18.9111524 L47.6983341,20.6026551 C47.6138486,20.734893 47.4657616,20.7320389 47.387921,20.5978984 L46.743363,19.48672 C46.6664717,19.3516281 46.6731167,19.1137903 46.7585514,18.9825038 L47.8312326,17.3309578 L45.4305152,13.1916281 C45.3450804,13.0432173 45.3602688,12.8186984 45.4438051,12.6874119 Z" id="Fill-38" fill="#151E30"></path>
                <path d="M117.477003,119.798063 L118.082641,123.182971 C118.462351,125.134192 124.650677,125.680268 131.902191,124.402603 C139.154655,123.124938 144.725952,120.507771 144.346242,118.556549 L143.740604,115.171641 L117.477003,119.798063 Z" id="Fill-40" fill="#F1BD76"></path>
                <path d="M143.740604,115.171451 C144.120314,117.122672 138.549017,119.73984 131.297503,121.017505 C124.04409,122.29517 117.856713,121.749094 117.477003,119.797872 C117.098242,117.846651 122.66859,115.229483 129.921054,113.951818 C137.173517,112.674154 143.360894,113.220229 143.740604,115.171451" id="Fill-42" fill="#FFE39D"></path>
                <path d="M121.351945,118.874586 C122.245213,119.719386 126.327097,119.795494 130.902604,118.988748 C135.956546,118.099235 140.042228,116.408683 139.826742,115.298456 C139.72517,114.781872 138.656286,114.435581 136.892532,114.347105 C135.036699,114.254824 132.625539,114.448899 130.104264,114.892229 C125.050322,115.782694 120.963691,117.472294 121.179177,118.582521 C121.200061,118.689072 121.257967,118.785159 121.351945,118.874586 M140.001409,114.844662 C140.123865,114.960726 140.199807,115.089159 140.227336,115.228056 C140.477945,116.517137 136.403655,118.279991 130.951017,119.240856 C125.49743,120.201721 121.028242,119.942002 120.778583,118.653872 C120.527974,117.36384 124.602264,115.601937 130.054901,114.641072 C132.621742,114.188229 135.083213,113.991299 136.984612,114.087386 C138.521488,114.163494 139.561894,114.42797 140.001409,114.844662" id="Fill-44" fill="#FFFFFF"></path>
                <path d="M128.068258,117.331494 C128.457461,117.267754 128.846664,117.203062 129.235867,117.140272 C129.289975,117.130759 129.33649,117.124099 129.335541,117.111732 C129.331743,117.000424 129.311809,116.893872 129.121004,116.817764 C129.027026,116.77971 128.859954,116.759732 128.591309,116.772099 C128.165084,116.791126 127.495845,116.916705 127.177838,117.036575 C126.918686,117.133613 126.828504,117.215429 126.80762,117.286781 C126.782939,117.367645 126.805722,117.440899 126.802874,117.517959 C126.801925,117.535083 126.840845,117.532229 126.932925,117.517008 C127.310736,117.45517 127.689497,117.392381 128.068258,117.331494 M133.376606,116.46291 C133.365214,116.397267 133.364265,116.332575 133.343381,116.271689 C133.313004,116.192726 133.244657,116.120424 133.060497,116.070002 C132.942787,116.038608 132.789954,116.014824 132.498526,116.032899 C131.935606,116.068099 131.230294,116.212705 130.915135,116.360164 C130.686359,116.467667 130.591432,116.559948 130.581939,116.641764 C130.573396,116.727386 130.589533,116.810154 130.596178,116.893872 C130.599026,116.916705 130.601874,116.915754 130.746164,116.892921 C131.579628,116.756878 132.413091,116.619883 133.245606,116.48384 C133.285475,116.478132 133.324396,116.471472 133.376606,116.46291 M123.276316,117.94797 C123.264925,117.87757 123.254483,117.808121 123.242142,117.738672 C123.285809,117.731062 123.329475,117.724402 123.373142,117.717743 C123.955997,117.622608 124.537903,117.526521 125.120758,117.431386 C125.320106,117.39904 125.319157,117.39904 125.336243,117.360986 C125.382758,117.25824 125.468193,117.150737 125.696019,117.024208 C125.910555,116.90624 126.23141,116.788272 126.74212,116.671256 C127.107591,116.586586 127.492997,116.518089 127.885997,116.458154 C128.555236,116.35731 129.072591,116.324013 129.430468,116.36397 C129.4542,116.366824 129.476983,116.370629 129.510207,116.374435 C129.524446,116.365872 129.53299,116.361116 129.538686,116.358262 C129.614628,116.308791 129.670635,116.261224 129.769359,116.209851 C130.010475,116.083321 130.386388,115.961548 130.946461,115.845483 C131.506533,115.728467 132.070403,115.642845 132.632374,115.574348 C133.118403,115.515364 133.548425,115.484921 133.887316,115.493483 C134.270823,115.504899 134.482512,115.560078 134.604019,115.633332 C134.700845,115.691364 134.747359,115.760813 134.808113,115.826456 C134.820454,115.840726 134.85178,115.840726 134.943859,115.824554 C135.111881,115.796013 135.279903,115.769375 135.446026,115.741786 L136.920251,115.499191 C136.931642,115.569591 136.943033,115.639991 136.954425,115.710391 C136.271896,115.821699 135.588417,115.933008 134.885004,116.048121 C134.892599,116.102348 134.901142,116.154672 134.910635,116.205094 C134.912533,116.218413 134.972338,116.205094 135.016004,116.198435 C135.671954,116.090932 136.326954,115.984381 136.981954,115.876878 C136.992396,115.947278 137.004736,116.016726 137.016128,116.086175 C136.31841,116.201289 135.621642,116.315451 134.909686,116.431516 C134.931519,116.573267 134.955251,116.712164 134.977084,116.849159 C134.955251,116.853916 134.947657,116.855818 134.941012,116.85677 C134.473019,116.919559 134.005026,116.983299 133.536084,117.04704 C133.465838,117.056554 133.469635,117.048943 133.467736,117.040381 C133.462041,116.99757 133.455396,116.954759 133.447801,116.912899 C133.43641,116.853916 133.259845,116.853916 132.901019,116.912899 C131.087903,117.20877 129.274787,117.505591 127.461671,117.802413 C127.068671,117.866154 126.817113,117.94797 126.805722,118.01837 C126.800026,118.055472 126.806671,118.090672 126.809519,118.126824 C126.811417,118.146802 126.816164,118.165829 126.819012,118.185808 C126.366207,118.260964 125.927642,118.332316 125.474838,118.406521 C125.451106,118.265721 125.429272,118.126824 125.405541,117.986024 C124.706874,118.102089 124.022446,118.213397 123.338968,118.325656 C123.326628,118.255256 123.315236,118.184856 123.303845,118.114456 C123.948403,118.009808 124.592961,117.904208 125.237519,117.798608 C125.31441,117.787191 125.338142,117.778629 125.333396,117.766262 C125.319157,117.732013 125.313461,117.695862 125.303968,117.65971 C125.30112,117.646391 125.299222,117.632121 125.297323,117.617851 C124.608149,117.73011 123.941758,117.839516 123.276316,117.94797" id="Fill-46" fill="#FFFFFF"></path>
                <polygon id="Fill-48" fill="#C3D3E0" points="10.7882297 156.939866 -0.000284782609 162.053379 65.7275413 166.151801 71.5655848 175.719542 74.7456572 168.96019 74.7456572 156.939866"></polygon>
                <path d="M48.6202703,159.714958 C48.6202703,160.243909 43.3536906,160.672017 36.85685,160.672017 C30.3600094,160.672017 25.0934297,160.243909 25.0934297,159.714958 C25.0934297,159.186006 30.3600094,158.757898 36.85685,158.757898 C43.3536906,158.757898 48.6202703,159.186006 48.6202703,159.714958" id="Fill-51" fill="#93B5D1"></path>
                <polygon id="Fill-53" fill="#FFFFFF" points="0 175.719351 71.5658696 175.719351 71.5658696 162.053189 0 162.053189"></polygon>
                <path d="M161.456076,132.937747 L99.7797572,132.937747 L94.8349819,137.652644 C119.34717,142.920277 143.221446,143.07725 166.400851,137.652644 L161.456076,132.937747 Z" id="Fill-55" fill="#C3D3E0"></path>
                <polygon id="Fill-56" fill="#FFFFFF" points="94.8345072 175.719351 166.400377 175.719351 166.400377 137.651978 94.8345072 137.651978"></polygon>
                <polygon id="Fill-57" fill="#B8CEE0" points="253.921382 102.253812 188.184063 102.253812 188.184063 171.219174 189.669679 175.720017 192.693121 111.516169 261.235549 107.114266"></polygon>
                <polygon id="Fill-58" fill="#FFFFFF" points="189.669964 175.719351 261.235833 175.719351 261.235833 107.008 189.669964 107.008"></polygon>
                <path d="M132.489223,80.6338768 L129.224665,80.6338768 L129.224665,108.461855 L132.489223,108.461855 C139.047767,108.461855 144.364658,102.232406 144.364658,94.5483416 C144.364658,86.8642768 139.047767,80.6338768 132.489223,80.6338768" id="Fill-59" fill="#F1BD76"></path>
                <path d="M141.09953,94.5482465 C141.09953,102.232311 135.782639,108.46176 129.224096,108.46176 C122.665552,108.46176 117.348661,102.232311 117.348661,94.5482465 C117.348661,86.8641816 122.665552,80.634733 129.224096,80.634733 C135.782639,80.634733 141.09953,86.8641816 141.09953,94.5482465" id="Fill-60" fill="#FFE39D"></path>
                <path d="M137.90313,94.5482465 C137.90313,100.582668 133.871558,105.473565 128.899254,105.473565 C123.925051,105.473565 119.894428,100.582668 119.894428,94.5482465 C119.894428,88.5138249 123.925051,83.6229276 128.899254,83.6229276 C133.871558,83.6229276 137.90313,88.5138249 137.90313,94.5482465 Z" id="Stroke-61" stroke="#FFFFFF" stroke-width="0.5"></path>
                <path d="M128.948046,92.2312303 C128.768633,92.6146249 128.58922,92.9999222 128.409807,93.3833168 C128.385126,93.4365924 128.361394,93.4794032 128.418351,93.5260195 C128.895836,93.9075114 129.378068,94.2728303 129.928648,94.4621492 C130.202988,94.5553816 130.481126,94.5544303 130.744075,94.4012627 C131.157959,94.1586681 131.391481,93.4394465 131.248141,92.8876627 C131.132329,92.4424303 130.887416,92.1208735 130.603583,91.8611546 C130.286525,91.5709924 129.945735,91.3236411 129.616336,91.0525059 C129.544191,90.9916195 129.510967,91.0182573 129.469199,91.1086357 C129.29738,91.4853708 129.121764,91.8563978 128.948046,92.2312303 M126.504612,97.4674681 C126.799836,97.691987 127.077025,97.9174573 127.362757,98.1191438 C127.739619,98.3864735 128.13167,98.6100411 128.559793,98.7080303 C128.833184,98.7698681 129.110372,98.7869924 129.370474,98.6024303 C129.875488,98.2466249 130.072938,97.4465384 129.807141,96.8034249 C129.613488,96.3334573 129.323959,95.9700411 128.985068,95.6817816 C128.625293,95.3773492 128.253177,95.0967005 127.885807,94.8074897 C127.782336,94.7275762 127.781387,94.7304303 127.713988,94.873133 C127.33143,95.6951005 126.947923,96.5170681 126.563467,97.3380843 C126.54638,97.3770897 126.527394,97.4160951 126.504612,97.4674681 M131.870865,88.0880951 L132.813496,88.8063654 C132.792612,88.8491762 132.769829,88.8900843 132.749894,88.9328951 C132.482199,89.5075114 132.213554,90.0821276 131.945858,90.6567438 C131.853778,90.8546249 131.854728,90.8527222 131.997119,90.9916195 C132.387271,91.37216 132.751793,91.7850465 133.027083,92.3178032 C133.286235,92.8210681 133.418184,93.3642897 133.329901,93.9874249 C133.2663,94.4336086 133.116314,94.8341276 132.914119,95.2051546 C132.569532,95.8368519 132.104387,96.1622141 131.515836,96.1717276 C131.476916,96.1717276 131.437046,96.1707762 131.381988,96.1707762 C131.400974,96.2069276 131.408568,96.2240519 131.418061,96.2392735 C131.541467,96.4438141 131.681959,96.6340843 131.787329,96.8528951 C132.04743,97.3923114 132.137612,97.9783438 131.984778,98.6157492 C131.831945,99.2541059 131.549061,99.7897168 131.187387,100.260636 C130.874126,100.667814 130.507706,100.956074 130.071988,101.061674 C129.576467,101.181544 129.097083,101.079749 128.639532,100.873306 C128.274061,100.708722 127.924728,100.488009 127.572546,100.283468 C127.496604,100.238755 127.461481,100.253976 127.422561,100.346257 C127.349467,100.515598 127.268778,100.678279 127.191887,100.843814 C126.966909,101.329003 126.74288,101.814192 126.516952,102.300333 C126.202742,102.060592 125.888532,101.819901 125.574322,101.58016 C125.888532,100.906603 126.202742,100.232095 126.527394,99.53856 C126.286278,99.3549492 126.054655,99.1770465 125.822083,99.0010465 C125.766075,98.9582357 125.750887,99.0276843 125.730003,99.0695438 L124.826293,101.010301 C124.512083,100.769609 124.197872,100.529868 123.883662,100.290128 C124.204517,99.6013492 124.525372,98.9135222 124.853822,98.2114249 C124.218757,97.7262357 123.596032,97.2515114 122.978054,96.7796411 C122.983749,96.7549059 122.984699,96.7453924 122.988496,96.7396843 C123.260938,96.3239438 123.535278,95.9091546 123.805822,95.4924627 C123.846641,95.4287222 123.875119,95.4591654 123.911191,95.4858032 C124.102945,95.6323114 124.296597,95.7797708 124.4893,95.9262789 C124.753199,96.1270141 124.960141,96.05376 125.125314,95.6998573 L127.627604,90.3342357 C127.809865,89.9470357 127.749112,89.5550789 127.465278,89.3096303 C127.311496,89.1754897 127.151068,89.0546681 126.992539,88.9290897 C126.906155,88.8605924 126.816923,88.7949492 126.727691,88.7264519 C126.936532,88.2802681 127.137778,87.8483546 127.346619,87.4002681 C127.976938,87.8807005 128.600612,88.3573276 129.228083,88.8368086 C129.549887,88.1461276 129.865046,87.4716195 130.180206,86.79616 C130.494416,87.0359005 130.808626,87.2765924 131.122836,87.516333 C130.825713,88.1518357 130.529539,88.7882897 130.230517,89.4218897 C130.194445,89.4970465 130.200141,89.5341492 130.259945,89.5750573 C130.426068,89.6920735 130.589343,89.8147978 130.75167,89.9365708 C130.814322,89.9822357 130.874126,90.0298032 130.941525,90.0802249 C131.258583,89.40096 131.564249,88.7445276 131.870865,88.0880951" id="Fill-62" fill="#FFFFFF"></path>
                <path d="M142.381527,135.29472 C142.381527,135.823671 137.114947,136.251779 130.617157,136.251779 C124.121266,136.251779 118.854686,135.823671 118.854686,135.29472 C118.854686,134.76672 124.121266,134.338612 130.617157,134.338612 C137.114947,134.338612 142.381527,134.76672 142.381527,135.29472" id="Fill-63" fill="#93B5D1"></path>
                <polygon id="Fill-64" fill="#3FA077" points="48.191008 119.930015 34.6182688 116.781042 28.4470297 121.634837 29.4618051 147.809366 57.3078486 137.866794 57.5451674 129.420696"></polygon>
                <polygon id="Fill-65" fill="#3AC76D" points="57.3073739 137.866318 53.8301783 142.514621 29.4613304 147.808891"></polygon>
                <polygon id="Fill-66" fill="#3AB66D" points="57.3073739 137.866318 52.2800116 132.302815 29.4613304 147.808891"></polygon>
                <polygon id="Fill-67" fill="#3AA06D" points="52.2801065 132.303196 35.558621 122.656493 29.4614254 147.809271"></polygon>
                <polygon id="Fill-68" fill="#3A846D" points="35.5584312 122.656778 28.4474094 121.635027 29.4612355 147.808605"></polygon>
                <polygon id="Fill-69" fill="#3FBD77" points="52.2801065 132.303196 48.1906283 119.92992 35.558621 122.656493"></polygon>
                <polygon id="Fill-70" fill="#3AA06D" points="52.2801065 132.303196 57.545737 129.420601 48.1906283 119.92992"></polygon>
                <polygon id="Fill-71" fill="#3AC56D" points="57.545642 129.420316 52.2800116 132.30291 57.3073739 137.866413"></polygon>
                <polygon id="Fill-72" fill="#3FAC77" points="35.5584312 122.656778 34.6186486 116.781232 48.1913877 119.930205"></polygon>
                <polygon id="Fill-73" fill="#D1E2F0" points="219.090286 120.523658 211.021445 128.610145 223.746481 141.363961 211.021445 154.117777 219.090286 162.204264 239.884162 141.363961"></polygon>
                <polygon id="Fill-74" fill="#C3D3E0" points="211.021445 154.117397 219.090286 162.203883 239.884162 141.364532 239.812017 141.291278 219.124459 161.923235 211.170481 153.967083"></polygon>
                <polygon id="Fill-75" fill="#C3D3E0" points="223.746671 141.364246 211.021635 128.61043 211.140294 128.491511 223.848243 141.251036"></polygon>
                <polygon id="Fill-76" fill="#D1E2F0" points="144.934603 172.587883 124.140726 151.748532 116.071886 159.835018 128.796922 172.587883 125.672857 175.719732 141.810538 175.719732"></polygon>
                <polygon id="Fill-77" fill="#C3D3E0" points="144.934603 172.587883 144.862458 172.514629 141.649161 175.719732 141.810538 175.719732"></polygon>
                <polygon id="Fill-78" fill="#C3D3E0" points="128.796922 172.587883 116.071886 159.834067 116.190545 159.715148 128.898494 172.474672"></polygon>
                <polygon id="Fill-79" fill="#D1E2F0" points="29.1961978 169.823922 23.3135384 175.719446 35.0788572 175.719446"></polygon>
                <path d="M223.519604,50.4618638 L220.779046,50.4618638 C220.556916,50.4609124 220.332887,50.5883935 220.251249,50.8462097 L217.013271,61.0513557 C216.954416,61.2387719 216.799684,61.3805232 216.609829,61.4233341 L209.067836,63.1281557 C208.690974,63.2128259 208.515358,63.6494962 208.728945,63.9720043 L214.422699,72.6064692 C214.492945,72.7139719 214.524271,72.8424043 214.510981,72.9717881 L213.206677,84.7989881 C213.168706,85.1433773 213.4383,85.3840692 213.733525,85.4002422 C213.732575,85.4011935 213.727829,85.4145124 213.727829,85.4145124 L216.517749,85.4145124 L216.882271,83.0161557 L220.427814,80.1164368 C220.630959,79.9499503 220.922387,79.9499503 221.126481,80.1164368 L227.450554,85.2879827 C227.563517,85.3812151 227.69167,85.4059503 227.816025,85.4011935 C227.816974,85.4040476 227.819822,85.4145124 227.819822,85.4145124 L230.609742,85.4145124 L223.519604,50.4618638 Z" id="Fill-80" fill="#F1BD76"></path>
                <path d="M224.053572,50.8464951 L227.290601,61.0516411 C227.350405,61.2390573 227.504188,61.3798573 227.694992,61.4236195 L235.236036,63.1274897 C235.613847,63.2131114 235.788514,63.6497816 235.575876,63.9722897 L229.882122,72.6067546 C229.809978,72.7142573 229.779601,72.8436411 229.79384,72.9720735 L231.098144,84.7983222 C231.152253,85.2911222 230.583637,85.6012627 230.201079,85.2882681 L223.876057,80.1167222 C223.673862,79.9502357 223.381485,79.9502357 223.17834,80.1167222 L216.854267,85.2882681 C216.472659,85.6012627 215.903093,85.2911222 215.957202,84.7983222 L217.261507,72.9720735 C217.274796,72.8436411 217.24442,72.7142573 217.173224,72.6067546 L211.47947,63.9722897 C211.266833,63.6497816 211.442449,63.2131114 211.818362,63.1274897 L219.360354,61.4236195 C219.551159,61.3798573 219.704941,61.2390573 219.763796,61.0516411 L223.001775,50.8464951 C223.164101,50.3327654 223.890296,50.3327654 224.053572,50.8464951" id="Fill-81" fill="#FFE39D"></path>
                <path d="M224.314053,55.8438486 L226.304683,63.2967351 C226.320821,63.3604757 226.371133,63.4099459 226.433785,63.4270703 L231.013089,64.6571676 C231.128901,64.6876108 231.183959,64.8198486 231.126053,64.9244973 L227.716256,71.0683243 C227.69727,71.1006703 227.690625,71.137773 227.694422,71.1748757 L228.481372,79.6571243 C228.49656,79.8283676 228.291517,79.9254054 228.170009,79.8064865 L224.263741,76.0124973 C224.192546,75.9430486 224.079582,75.9430486 224.008386,76.0124973 L220.102118,79.8064865 C219.979662,79.9254054 219.775567,79.8283676 219.790756,79.6571243 L220.577705,71.1748757 C220.581502,71.137773 220.573908,71.1006703 220.555872,71.0683243 L217.145125,64.9244973 C217.08722,64.8198486 217.143227,64.6876108 217.259038,64.6571676 L221.838343,63.4270703 C221.900995,63.4099459 221.951307,63.3604757 221.967444,63.2967351 L223.958075,55.8438486 C224.007437,55.6621405 224.264691,55.6621405 224.314053,55.8438486" id="Fill-82" fill="#F1BD76"></path>
                <path d="M231.125863,64.9244973 C231.184718,64.8198486 231.128711,64.6876108 231.012899,64.6571676 L226.434544,63.4280216 C226.370943,63.4099459 226.320631,63.3595243 226.304493,63.2967351 L224.313863,55.8438486 C224.264501,55.6621405 224.007247,55.6621405 223.957885,55.8438486 L223.933204,55.9361297 C223.948392,55.9561081 223.968327,55.9713297 223.975921,55.9989189 L225.965602,63.4518054 C225.982689,63.5155459 226.033001,63.5650162 226.095653,63.5821405 L230.674957,64.8122378 C230.78982,64.8426811 230.845827,64.9749189 230.78887,65.0795676 L227.378124,71.2224432 C227.360088,71.2557405 227.351544,71.2918919 227.355341,71.3289946 L228.139443,79.7779459 L228.16982,79.8074378 C228.292276,79.9263568 228.49637,79.8283676 228.481182,79.6571243 L227.694233,71.1748757 C227.690436,71.137773 227.69803,71.0997189 227.716066,71.0683243 L231.125863,64.9244973 Z" id="Fill-83" fill="#E0A758"></path>
                <path d="M200.469964,71.3619114 L198.929291,71.3619114 C198.803986,71.36096 198.677733,71.4332627 198.631218,71.5788195 L196.811457,77.3183222 C196.777283,77.4229708 196.691849,77.5028843 196.583631,77.5266681 L192.342269,78.4856303 C192.13058,78.5331978 192.031856,78.7795978 192.151464,78.9603546 L195.35337,83.8170032 C195.39324,83.8769384 195.411276,83.9492411 195.403682,84.0224951 L194.670841,90.6743438 C194.648059,90.8674681 194.799943,91.0035114 194.966066,91.0111222 C194.966066,91.0120735 194.963218,91.0196843 194.963218,91.0196843 L196.53237,91.0196843 L196.736464,89.6716195 L198.731841,88.0400519 C198.845754,87.9468195 199.009979,87.9468195 199.123892,88.0400519 L202.680827,90.9492843 C202.744428,91.0016086 202.816573,91.0149276 202.88682,91.0120735 C202.887769,91.0139762 202.888718,91.0196843 202.888718,91.0196843 L204.45787,91.0196843 L200.469964,71.3619114 Z" id="Fill-84" fill="#F1BD76"></path>
                <path d="M200.770315,71.5783438 L202.591025,77.3178465 C202.62425,77.4234465 202.711583,77.50336 202.818851,77.5271438 L207.060214,78.4861059 C207.272851,78.5336735 207.370627,78.7791222 207.251018,78.9608303 L204.048163,83.8165276 C204.008293,83.8774141 203.991207,83.9497168 203.998801,84.0220195 L204.732591,90.6738681 C204.762967,90.9507114 204.443062,91.1248086 204.228525,90.9488086 L200.671591,88.0405276 C200.556728,87.9463438 200.393453,87.9463438 200.278591,88.0405276 L196.721656,90.9488086 C196.50712,91.1248086 196.187214,90.9507114 196.216641,90.6738681 L196.95138,84.0220195 C196.958025,83.9497168 196.940938,83.8774141 196.901069,83.8165276 L193.699163,78.9608303 C193.579554,78.7791222 193.67733,78.5336735 193.889018,78.4861059 L198.13133,77.5271438 C198.238598,77.50336 198.324982,77.4234465 198.358207,77.3178465 L200.178917,71.5783438 C200.270996,71.289133 200.678236,71.289133 200.770315,71.5783438" id="Fill-85" fill="#FFE39D"></path>
                <path d="M200.916788,74.3887308 L202.036933,78.5803849 C202.045477,78.6155849 202.073955,78.6450768 202.110028,78.6536389 L204.685412,79.3452714 C204.749962,79.363347 204.781288,79.4375524 204.748064,79.4965362 L202.830528,82.950893 C202.820086,82.96992 202.816288,82.9908497 202.818187,83.0108281 L203.260549,87.7818551 C203.270042,87.878893 203.15423,87.93312 203.084933,87.8665254 L200.889259,85.7326443 C200.84939,85.6936389 200.784839,85.6936389 200.74497,85.7326443 L198.548346,87.8665254 C198.479999,87.93312 198.365136,87.878893 198.37273,87.7818551 L198.816042,83.0108281 C198.817941,82.9908497 198.813194,82.96992 198.802752,82.950893 L196.885216,79.4965362 C196.852941,79.4375524 196.884267,79.363347 196.948817,79.3452714 L199.524201,78.6536389 C199.560274,78.6450768 199.588752,78.6155849 199.597296,78.5803849 L200.716491,74.3887308 C200.74402,74.2869362 200.890209,74.2869362 200.916788,74.3887308" id="Fill-86" fill="#F1BD76"></path>
                <path d="M204.748254,79.4957751 C204.781478,79.4367914 204.750152,79.3625859 204.685601,79.3454616 L202.110217,78.6538292 C202.074145,78.6433643 202.045667,78.6157751 202.037123,78.5805751 L200.916978,74.3889211 C200.890399,74.2861751 200.74421,74.2861751 200.71763,74.3889211 L200.703391,74.4412454 C200.711935,74.4517103 200.723326,74.4602724 200.727123,74.4764454 L201.846319,78.6680995 C201.855812,78.7032995 201.883341,78.7308886 201.919413,78.7413535 L204.493848,79.4329859 C204.560297,79.4501103 204.590674,79.5243157 204.558399,79.5832995 L202.639913,83.0386076 C202.63042,83.0566832 202.625674,83.077613 202.628522,83.0985427 L203.068036,87.8495914 L203.085123,87.8667157 C203.15442,87.9333103 203.269283,87.8790832 203.260739,87.7820454 L202.818377,83.0110184 C202.816478,82.99104 202.820275,82.9691589 202.829768,82.9510832 L204.748254,79.4957751 Z" id="Fill-87" fill="#E0A758"></path>
                <path d="M244.037432,71.3619114 L242.496758,71.3619114 C242.371454,71.36096 242.2452,71.4332627 242.198686,71.5788195 L240.378925,77.3183222 C240.344751,77.4229708 240.259316,77.5028843 240.151099,77.5266681 L235.909736,78.4856303 C235.698048,78.5331978 235.599323,78.7795978 235.718932,78.9603546 L238.920838,83.8170032 C238.960707,83.8769384 238.978743,83.9492411 238.971149,84.0224951 L238.238309,90.6743438 C238.215526,90.8674681 238.36741,91.0035114 238.533533,91.0111222 C238.533533,91.0120735 238.530686,91.0196843 238.530686,91.0196843 L240.099838,91.0196843 L240.303932,89.6716195 L242.299309,88.0400519 C242.413222,87.9468195 242.577446,87.9468195 242.691359,88.0400519 L246.248294,90.9492843 C246.311896,91.0016086 246.384041,91.0149276 246.454287,91.0120735 C246.455236,91.0139762 246.456186,91.0196843 246.456186,91.0196843 L248.025338,91.0196843 L244.037432,71.3619114 Z" id="Fill-88" fill="#F1BD76"></path>
                <path d="M244.337783,71.5783438 L246.158493,77.3178465 C246.191717,77.4234465 246.279051,77.50336 246.386319,77.5271438 L250.627681,78.4861059 C250.840319,78.5336735 250.938094,78.7791222 250.818486,78.9608303 L247.61563,83.8165276 C247.575761,83.8774141 247.558674,83.9497168 247.566268,84.0220195 L248.300058,90.6738681 C248.330435,90.9507114 248.010529,91.1248086 247.795993,90.9488086 L244.239058,88.0405276 C244.124196,87.9463438 243.96092,87.9463438 243.846058,88.0405276 L240.289123,90.9488086 C240.074587,91.1248086 239.754681,90.9507114 239.784109,90.6738681 L240.518848,84.0220195 C240.525493,83.9497168 240.508406,83.8774141 240.468536,83.8165276 L237.26663,78.9608303 C237.147022,78.7791222 237.244797,78.5336735 237.456486,78.4861059 L241.698797,77.5271438 C241.806065,77.50336 241.892449,77.4234465 241.925674,77.3178465 L243.746384,71.5783438 C243.838464,71.289133 244.245703,71.289133 244.337783,71.5783438" id="Fill-89" fill="#FFE39D"></path>
                <path d="M244.484256,74.3887308 L245.604401,78.5803849 C245.612944,78.6155849 245.641422,78.6450768 245.677495,78.6536389 L248.252879,79.3452714 C248.31743,79.363347 248.348756,79.4375524 248.315531,79.4965362 L246.397995,82.950893 C246.387553,82.96992 246.383756,82.9908497 246.385654,83.0108281 L246.828017,87.7818551 C246.837509,87.878893 246.721698,87.93312 246.652401,87.8665254 L244.456727,85.7326443 C244.416857,85.6936389 244.352307,85.6936389 244.312437,85.7326443 L242.115814,87.8665254 C242.047466,87.93312 241.932604,87.878893 241.940198,87.7818551 L242.383509,83.0108281 C242.385408,82.9908497 242.380662,82.96992 242.37022,82.950893 L240.452683,79.4965362 C240.420408,79.4375524 240.451734,79.363347 240.516285,79.3452714 L243.091669,78.6536389 C243.127741,78.6450768 243.15622,78.6155849 243.164763,78.5803849 L244.283959,74.3887308 C244.311488,74.2869362 244.457676,74.2869362 244.484256,74.3887308" id="Fill-90" fill="#F1BD76"></path>
                <path d="M248.315721,79.4957751 C248.348946,79.4367914 248.31762,79.3625859 248.253069,79.3454616 L245.677685,78.6538292 C245.641612,78.6433643 245.613134,78.6157751 245.604591,78.5805751 L244.484446,74.3889211 C244.457866,74.2861751 244.311678,74.2861751 244.285098,74.3889211 L244.269909,74.4412454 C244.279402,74.4517103 244.290793,74.4602724 244.294591,74.4764454 L245.413786,78.6680995 C245.423279,78.7032995 245.450808,78.7308886 245.48688,78.7413535 L248.061315,79.4329859 C248.127764,79.4501103 248.158141,79.5243157 248.125866,79.5832995 L246.20738,83.0386076 C246.197888,83.0566832 246.193141,83.077613 246.195989,83.0985427 L246.635504,87.8495914 L246.652591,87.8667157 C246.721888,87.9333103 246.83675,87.8790832 246.828207,87.7820454 L246.385844,83.0110184 C246.383946,82.99104 246.387743,82.9691589 246.397236,82.9510832 L248.315721,79.4957751 Z" id="Fill-91" fill="#E0A758"></path>
                <polygon id="Fill-92" fill="#FFEAB5" points="224.810049 53.2322941 224.445528 56.3365535 225.839064 61.5708886 226.752267 59.3551914"></polygon>
                <polygon id="Fill-93" fill="#FFEAB5" points="227.54102 61.36064 226.752172 63.5125968 229.824976 64.3374184 230.873925 62.1416995"></polygon>
                <path d="M234.075641,104.405578 C234.075641,104.93453 228.809062,105.362638 222.311272,105.362638 C215.81538,105.362638 210.548801,104.93453 210.548801,104.405578 C210.548801,103.877578 215.81538,103.44947 222.311272,103.44947 C228.809062,103.44947 234.075641,103.877578 234.075641,104.405578" id="Fill-94" fill="#93B5D1"></path>
                <path d="M205.910736,104.405578 C205.910736,104.722378 202.752497,104.980195 198.854772,104.980195 C194.957997,104.980195 191.799758,104.722378 191.799758,104.405578 C191.799758,104.088778 194.957997,103.831914 198.854772,103.831914 C202.752497,103.831914 205.910736,104.088778 205.910736,104.405578" id="Fill-95" fill="#93B5D1"></path>
                <path d="M251.440736,104.405578 C251.440736,104.722378 248.281547,104.980195 244.383822,104.980195 C240.487996,104.980195 237.328808,104.722378 237.328808,104.405578 C237.328808,104.088778 240.487996,103.831914 244.383822,103.831914 C248.281547,103.831914 251.440736,104.088778 251.440736,104.405578" id="Fill-96" fill="#93B5D1"></path>
            </g>
        </g>
    </g>
</svg>