<svg xmlns="http://www.w3.org/2000/svg" viewBox="0 0 1024 839" width="1024" height="839">
	<defs>
		<linearGradient id="grd1" gradientUnits="userSpaceOnUse"  x1="108.5" y1="922.322" x2="108.5" y2="-544.322">
			<stop offset="0" stop-color="#1bb42d"  />
			<stop offset="1" stop-color="#25732f"  />
		</linearGradient>
		<clipPath clipPathUnits="userSpaceOnUse" id="cp1">
			<path d="M673.06 -111.55L852.48 -89.12C857.57 -88.49 861.15 -83.87 860.5 -78.81L821.22 225.19C820.57 230.25 815.92 233.83 810.83 233.2L631.41 210.77C626.33 210.14 622.74 205.52 623.4 200.46L662.68 -103.54C663.33 -108.6 667.98 -112.19 673.06 -111.55Z" />
		</clipPath>
	</defs>
	<style>
		tspan { white-space:pre }
		.shp0 { fill: #1bb42d } 
		.shp1 { fill: url(#grd1) } 
		.shp2 { fill: #000001 } 
		.shp3 { fill: #e76174 } 
		.shp4 { fill: #ffffff } 
		.shp5 { fill: #4986f5 } 
		.shp6 { fill: #5f94f6 } 
		.txt7 { font-size: 13px;fill: #000000;font-weight: 400;font-family: "LiberationSans", "Liberation Sans" } 
	</style>
	<g id="layer101">
		<path id="Shape 2" class="shp0" d="M-132 -153L1076 -153L1076 890L-132 890L-132 -153Z" />
		<path id="Shape 2" class="shp1" d="M-612.7 323.89L132.24 -544.32L829.7 54.11L84.76 922.32L-612.7 323.89Z" />
		<path id="Shape 1" class="shp2" d="M89.72 628.27L275.02 628.27L275.02 839L89.72 839L89.72 628.27Z" />
	</g>
	<g id="layer102">
	</g>
	<g id="layer104">
		<path id="Layer" fill-rule="evenodd" class="shp3" d="M780.07 263.89C772.88 261.7 765.32 254.5 762.51 247.19C760.2 241.21 759.95 241.09 747.89 239.63C700.34 234.26 631.71 225.24 628.66 224.02C618.54 219.63 610.74 208.29 610.74 197.31C610.74 191.82 612.33 178.04 627.2 57.44C630.98 27.68 633.66 2.93 633.3 2.56C632.93 2.2 630.13 2.07 627.2 2.32C623.91 2.44 621.71 2.07 621.71 1.34C621.71 0.37 670.6 0 789.33 0C900.27 0 956.95 0.37 956.95 1.22C956.95 1.95 955.61 2.44 953.9 2.44C951.71 2.44 950.86 3.05 950.86 4.76C950.86 5.98 955 33.05 960 64.75C980.48 194.02 982.55 207.55 982.55 211.95C982.55 221.58 974.26 233.29 964.75 237.31C960.98 238.9 793.23 265.97 788.24 265.72C786.9 265.72 783.12 264.87 780.07 263.89ZM807.38 232.43C816.52 229.14 820.05 223.41 821.76 209.14C822.25 204.51 823.34 196.21 824.08 190.85C824.81 185.48 825.9 176.7 826.51 171.34C827.12 165.97 828.83 153.41 830.17 143.29C831.51 133.29 833.46 118.41 834.44 110.36C835.41 102.31 836.75 91.95 837.49 87.19C838.1 82.56 839.8 70.49 841.14 60.36C842.36 50.36 844.68 33.41 846.02 22.8C847.48 12.07 848.46 3.29 848.21 3.05C847.24 2.2 833.1 1.95 831.76 2.8C830.9 3.41 830.17 5.49 830.17 7.56C830.17 9.51 828.22 25.61 825.9 43.17C823.59 60.61 820.54 83.53 819.2 93.9C817.86 104.27 814.57 130.12 811.76 151.22C809.08 172.31 806.28 194.87 805.55 201.21C804.82 207.55 803.84 213.29 803.35 213.77C802.5 214.75 787.63 213.29 758.25 209.14C744.84 207.31 719.73 204.02 705.22 202.43C689.25 200.6 657.8 196.34 655.85 195.85C654.87 195.48 650.24 194.87 645.49 194.51C640.85 194.14 636.59 193.29 635.98 192.8C635.49 192.31 635.61 188.04 636.22 183.41C638.05 170.85 659.5 4.27 659.5 3.05C659.5 2.68 656.82 2.44 653.53 2.44L647.44 2.44L646.7 8.29C646.34 11.46 645.49 18.29 644.88 23.54C641.95 46.83 641.1 53.53 640 61.58C636.95 84.75 632.93 117.31 631.47 129.87C630 141.95 626.83 166.21 625.37 177.07C624.64 181.58 624.15 188.77 624.15 193.17C624.15 200.97 624.27 201.34 629.39 206.46C635 212.31 637.56 213.04 660.11 215.85C666.21 216.58 675.35 217.68 680.59 218.29C685.71 219.02 694.49 220.12 700.1 220.73C705.58 221.46 714 222.55 718.63 223.16C723.38 223.77 731.55 224.87 736.91 225.48C771.17 229.87 787.63 231.94 792.99 232.8C801.52 234.26 802.13 234.26 807.38 232.43Z" />
	</g>
	<g id="layer105">
		<path id="Layer" fill-rule="evenodd" class="shp4" d="M82.9 837.78C82.9 836.56 80.82 823.27 64.49 720.71C51.2 636.44 50.83 634.49 51.69 628.88C52.78 621.81 58.39 613.15 64.49 609.13C69.97 605.47 71.8 605.1 135.31 595.1C176.4 588.64 190.42 586.45 224.3 580.96C241.25 578.28 245.39 578.03 250.27 579.13C260.27 581.45 268.8 588.89 271.85 598.28C272.94 601.32 274.04 602.3 277.09 602.91C279.28 603.28 306.22 606.57 337.07 610.35C367.91 614.13 395.95 617.66 399.48 618.4C409.72 620.35 418.26 627.91 421.55 637.66C423.98 644.74 424.47 640.1 412.65 735.95C410.33 754.73 406.8 783.88 404.72 800.59C402.65 817.42 400.7 832.9 400.34 835.1L399.6 839L241.25 839C135.92 839 82.9 838.63 82.9 837.78ZM243.08 789.37C242.71 787.42 242.1 784.98 241.74 783.76C241.25 781.81 241.62 781.56 244.05 782.54C249.3 784.37 258.07 783.64 261.61 780.95C268.07 776.2 270.02 772.42 270.02 764.25C270.02 758.51 269.29 755.1 266.73 749.98C262.58 741.69 253.07 729.61 247.59 725.95L243.44 723.15L236.01 727.17C227.23 731.81 214.67 743.64 211.02 750.83C207.6 757.54 207.6 765.83 211.14 772.05C214.19 777.54 219.67 780.47 226.62 780.47C232.11 780.47 232.35 780.83 229.79 785.34C226.5 791.07 227.6 791.81 239.91 792.42C243.57 792.66 243.81 792.42 243.08 789.37ZM138.85 789.49C139.09 789.25 138.48 786.81 137.39 784.12L135.56 779.25L139.95 779.25C146.04 779.25 152.38 775.83 155.79 770.71C160.06 764.37 159.21 753.88 153.72 745.95C147.26 736.56 128.73 723.15 122.03 723.15C118.49 723.15 105.45 737.91 100.94 747.17C94.11 761.32 95.94 774.49 105.57 780.59C109.71 783.15 117.39 783.64 122.39 781.68C125.56 780.59 125.56 780.59 124.71 786.2L123.98 791.81L131.17 790.83C135.07 790.34 138.61 789.73 138.85 789.49ZM95.94 694.37C98.13 693.76 98.74 692.42 99.6 686.2L100.57 678.76L109.59 677.18C114.59 676.32 118.98 675.83 119.34 676.08C119.71 676.32 121.17 679.37 122.51 682.78C124.83 688.76 125.07 689 129.58 689C133 689 134.22 688.52 133.85 687.3C133.61 686.32 128.61 675.35 122.51 662.91L111.54 640.35L105.94 640.35C102.89 640.23 99.6 640.96 98.5 641.81C97.04 642.91 95.7 649.25 93.38 666.44C91.55 679.25 89.84 690.83 89.6 692.42C88.87 695.22 90.58 695.83 95.94 694.37ZM251.49 688.76C253.32 686.32 254.42 681.08 256.12 667.42C257.34 657.54 258.56 647.66 258.93 645.47C259.41 641.93 259.17 641.57 255.15 640.84C252.83 640.47 250.64 640.23 250.39 640.47C250.27 640.71 248.81 650.22 247.34 661.57C246 673.03 244.18 683.03 243.57 683.88C242.83 684.61 240.76 685.35 238.81 685.35C236.5 685.35 235.15 686.08 234.67 687.91C233.45 691.44 235.89 692.78 243.08 692.42C247.95 692.05 249.54 691.44 251.49 688.76Z" />
		<path id="Layer" class="shp4" d="M101.18 669.25C101.18 665.22 104.11 647.54 104.72 647.54C105.2 647.54 107.76 652.18 110.57 657.79L115.69 668.15L112.15 668.76C110.08 669.13 106.91 669.86 104.84 670.22C102.28 670.71 101.18 670.47 101.18 669.25Z" />
		<path id="Layer" fill-rule="evenodd" class="shp4" d="M780.07 263.89C772.88 261.7 765.32 254.5 762.51 247.19C760.2 241.21 759.95 241.09 747.89 239.63C700.34 234.26 631.71 225.24 628.66 224.02C618.54 219.63 610.74 208.29 610.74 197.31C610.74 191.82 612.33 178.04 627.2 57.44C630.98 27.68 633.66 2.93 633.3 2.56C632.93 2.2 630.13 2.07 627.2 2.32C623.91 2.44 621.71 2.07 621.71 1.34C621.71 0.37 670.6 0 789.33 0C900.27 0 956.95 0.37 956.95 1.22C956.95 1.95 955.61 2.44 953.9 2.44C951.71 2.44 950.86 3.05 950.86 4.76C950.86 5.98 955 33.05 960 64.75C980.48 194.02 982.55 207.55 982.55 211.95C982.55 221.58 974.26 233.29 964.75 237.31C960.98 238.9 793.23 265.97 788.24 265.72C786.9 265.72 783.12 264.87 780.07 263.89ZM807.38 232.43C816.52 229.14 820.05 223.41 821.76 209.14C822.25 204.51 823.34 196.21 824.08 190.85C824.81 185.48 825.9 176.7 826.51 171.34C827.12 165.97 828.83 153.41 830.17 143.29C831.51 133.29 833.46 118.41 834.44 110.36C835.41 102.31 836.75 91.95 837.49 87.19C838.1 82.56 839.8 70.49 841.14 60.36C842.36 50.36 844.68 33.41 846.02 22.8C847.48 12.07 848.46 3.29 848.21 3.05C847.24 2.2 833.1 1.95 831.76 2.8C830.9 3.41 830.17 5.49 830.17 7.56C830.17 9.51 828.22 25.61 825.9 43.17C823.59 60.61 820.54 83.53 819.2 93.9C817.86 104.27 814.57 130.12 811.76 151.22C809.08 172.31 806.28 194.87 805.55 201.21C804.82 207.55 803.84 213.29 803.35 213.77C802.5 214.75 787.63 213.29 758.25 209.14C744.84 207.31 719.73 204.02 705.22 202.43C689.25 200.6 657.8 196.34 655.85 195.85C654.87 195.48 650.24 194.87 645.49 194.51C640.85 194.14 636.59 193.29 635.98 192.8C635.49 192.31 635.61 188.04 636.22 183.41C638.05 170.85 659.5 4.27 659.5 3.05C659.5 2.68 656.82 2.44 653.53 2.44L647.44 2.44L646.7 8.29C646.34 11.46 645.49 18.29 644.88 23.54C641.95 46.83 641.1 53.53 640 61.58C636.95 84.75 632.93 117.31 631.47 129.87C630 141.95 626.83 166.21 625.37 177.07C624.64 181.58 624.15 188.77 624.15 193.17C624.15 200.97 624.27 201.34 629.39 206.46C635 212.31 637.56 213.04 660.11 215.85C666.21 216.58 675.35 217.68 680.59 218.29C685.71 219.02 694.49 220.12 700.1 220.73C705.58 221.46 714 222.55 718.63 223.16C723.38 223.77 731.55 224.87 736.91 225.48C771.17 229.87 787.63 231.94 792.99 232.8C801.52 234.26 802.13 234.26 807.38 232.43ZM936.11 201.7C937.2 200.6 944.76 149.75 944.03 148.9C943.79 148.65 941.71 148.9 939.4 149.26C935.25 150 935.13 150.24 934.16 157.68L933.18 165.12L927.7 166.09C924.65 166.58 920.5 167.31 918.31 167.68C914.65 168.29 914.41 168.04 911.36 161.58C908.56 155.24 908.07 154.87 904.05 154.87C901.61 154.87 899.66 155.48 899.66 156.09C899.66 157.43 921.23 200.97 922.94 203.16C924.16 204.63 934.4 203.53 936.11 201.7ZM904.9 116.95C906.36 116.22 908.68 114.51 910.14 113.29C912.46 111.09 912.94 111.09 916.24 112.8C921.23 115.36 926.35 115.12 932.57 111.95C942.08 106.95 945.25 94.63 939.76 83.29C936.72 76.95 925.99 67.07 916.11 61.58C903.68 54.63 903.68 54.63 894.42 64.63C877.35 83.05 872.96 101.22 882.96 112.07C888.2 117.68 898.8 120.12 904.9 116.95Z" />
		<g id="Layer">
			<g id="Layer">
				<path id="a" class="shp5" d="M673.06 -111.55L852.48 -89.12C857.57 -88.49 861.15 -83.87 860.5 -78.81L821.22 225.19C820.57 230.25 815.92 233.83 810.83 233.2L631.41 210.77C626.33 210.14 622.74 205.52 623.4 200.46L662.68 -103.54C663.33 -108.6 667.98 -112.19 673.06 -111.55Z" />
				<g id="Clip-Path: Clip-Path: Clip-Path: Clip-Path" clip-path="url(#cp1)">
					<g id="Clip-Path: Clip-Path: Clip-Path">
						<g id="Clip-Path: Clip-Path">
							<g id="Clip-Path">
								<g id="Layer">
									<path id="Layer" fill-rule="evenodd" class="shp6" d="M645.76 -99.76L657.95 -109.13L667.38 -97.06L655.18 -87.65L645.76 -99.76ZM660.83 -80.42L673.03 -89.79L682.46 -77.72L670.26 -68.3L660.83 -80.42ZM680.33 -95.44L692.53 -104.81L701.95 -92.74L689.75 -83.32L680.33 -95.44ZM695.41 -76.1L707.6 -85.47L717.03 -73.4L704.83 -63.98L695.43 -76.1M730 -71.77L742.2 -81.14L751.63 -69.07L739.42 -59.66L730 -71.77ZM724.32 -79L714.9 -91.12L727.1 -100.49L736.53 -88.42L724.32 -79ZM749.5 -86.8L761.7 -96.17L771.12 -84.09L758.92 -74.68L749.5 -86.8ZM764.58 -67.45L776.77 -76.82L786.2 -64.75L774 -55.33L764.58 -67.45ZM784.07 -82.47L796.27 -91.84L805.69 -79.77L793.49 -70.36L784.07 -82.47ZM799.15 -63.13L811.35 -72.5L820.77 -60.43L808.59 -51.01L799.17 -63.13M845.92 -68.18L855.35 -56.11L843.14 -46.69L833.72 -58.81L845.92 -68.18ZM818.67 -78.15L830.84 -87.52L840.27 -75.45L828.09 -66.05L828.07 -66.06L828.06 -66.03L818.67 -78.15ZM641.32 -65.4L641.34 -65.38L641.31 -65.38M641.34 -65.38L653.51 -74.77L662.94 -62.7L650.74 -53.28L641.34 -65.38ZM675.91 -61.08L675.93 -61.05L675.91 -61.05M675.93 -61.05L688.11 -70.45L697.54 -58.37L685.33 -48.96L675.93 -61.05ZM710.46 -56.76L710.48 -56.73L710.46 -56.73M710.48 -56.73L722.66 -66.13L732.09 -54.05L719.88 -44.64L710.48 -56.73ZM745.06 -52.43L745.08 -52.41L745.06 -52.41M745.08 -52.41L757.26 -61.8L766.68 -49.73L754.48 -40.31L745.08 -52.41ZM779.65 -48.11L779.67 -48.08L779.65 -48.09M779.67 -48.08L791.85 -57.48L801.28 -45.41L789.07 -35.99L779.67 -48.08ZM826.43 -53.18L835.85 -41.06L823.65 -31.69L814.22 -43.76L826.4 -53.16M646.3 -18.92L636.87 -31.02L649.07 -40.41L658.5 -28.34L646.3 -18.92ZM656.39 -46.06L656.41 -46.03L656.39 -46.03M656.41 -46.03L668.59 -55.43L678.02 -43.35L665.81 -33.94L656.41 -46.03ZM690.99 -41.73L703.16 -51.11L712.59 -39.03L700.39 -29.62L690.99 -41.73ZM725.56 -37.41L725.58 -37.39L725.56 -37.39M725.58 -37.39L737.76 -46.78L747.19 -34.71L734.98 -25.29L725.58 -37.39ZM760.14 -33.09L760.16 -33.06L760.13 -33.07M760.16 -33.06L772.33 -42.46L781.76 -30.39L769.56 -20.97L760.16 -33.06ZM816.33 -26.04L804.16 -16.67L794.73 -28.74L806.93 -38.13L816.33 -26.04ZM841.48 -33.84L850.9 -21.72L838.71 -12.35L829.28 -24.42L841.48 -33.82M661.37 0.42L651.95 -11.67L664.15 -21.06L673.58 -8.99L661.37 0.42ZM671.47 -26.71L671.49 -26.69L671.47 -26.69M671.49 -26.69L683.67 -36.08L693.1 -24.01L680.89 -14.6L671.49 -26.69ZM686.55 -7.37L698.72 -16.74L708.15 -4.67L695.95 4.75L686.55 -7.37ZM721.12 -3.05L721.14 -3.02L721.12 -3.03M721.14 -3.02L733.32 -12.42L742.75 -0.35L730.54 9.07L721.14 -3.02ZM706.02 -22.39L706.04 -22.37L706.02 -22.37M706.04 -22.37L718.22 -31.76L727.65 -19.69L715.44 -10.28L706.04 -22.37ZM740.62 -18.07L740.64 -18.04L740.62 -18.05M740.64 -18.04L752.82 -27.44L762.24 -15.37L750.04 -5.95L740.64 -18.04ZM755.7 1.27L755.72 1.3L755.69 1.3M755.72 1.3L767.89 -8.1L777.32 3.98L765.12 13.39L755.72 1.3ZM775.21 -13.75L775.23 -13.72L775.21 -13.72M775.23 -13.72L787.41 -23.12L796.84 -11.04L784.63 -1.63L775.23 -13.72ZM802.49 -3.77L811.89 8.3L799.71 17.72L790.29 5.62L802.49 -3.77ZM837.04 0.55L846.47 12.62L834.26 22.04L824.84 9.94L837.04 0.55ZM821.98 -18.79L831.41 -6.72L819.21 2.69L809.78 -9.4L821.96 -18.8M641.86 15.44L632.43 3.35L644.63 -6.05L654.06 6.03L641.86 15.44ZM667.03 7.65L667.05 7.67L667.03 7.67M667.05 7.67L679.23 -1.72L688.66 10.35L676.45 19.77L667.05 7.67ZM701.58 11.97L701.6 11.99L701.58 11.99M701.6 11.99L713.78 2.6L723.21 14.67L711 24.09L701.6 11.99ZM736.18 16.29L736.2 16.32L736.18 16.32M736.2 16.32L748.38 6.92L757.8 19L745.6 28.41L736.2 16.32ZM782.95 11.24L792.37 23.32L780.17 32.73L770.75 20.64L782.95 11.24ZM817.54 15.57L826.97 27.64L814.77 37.06L805.34 24.96L817.52 15.57M627.99 37.71L640.19 28.32L649.62 40.41L637.42 49.81L627.99 37.71ZM647.51 22.69L659.71 13.3L669.13 25.39L656.93 34.79L647.51 22.69ZM682.08 27.01L694.28 17.62L703.71 29.72L691.51 39.11L682.11 27.02M716.68 31.34L728.88 21.94L738.3 34.04L726.1 43.43L716.68 31.34ZM760.68 47.75L751.25 35.66L763.45 26.27L772.88 38.36L760.68 47.75ZM798.03 30.59L807.45 42.68L795.27 52.08L785.85 39.98L798.03 30.59ZM842.02 47.01L829.82 56.4L820.4 44.3L832.6 34.91L842.02 47.01ZM643.07 57.08L655.27 47.66L664.69 59.76L652.49 69.15L643.07 57.08ZM662.57 42.03L674.77 32.64L684.19 44.73L671.99 54.13L662.57 42.03ZM677.64 61.4L689.84 51.98L699.27 64.08L687.07 73.47L677.64 61.4ZM721.64 77.79L712.21 65.72L724.42 56.3L733.84 68.4L721.64 77.79ZM709.34 36.96L718.76 49.06L706.56 58.45L697.14 46.35L709.34 36.96ZM743.94 41.29L753.36 53.38L741.16 62.77L731.74 50.68L743.94 41.29ZM756.24 82.12L746.81 70.04L759.01 60.63L768.44 72.72L756.24 82.12ZM787.93 57.7L775.73 67.1L766.31 55L778.51 45.61L787.93 57.7ZM793.61 64.95L803.01 77.05L790.83 86.44L781.41 74.37L793.61 64.95ZM837.58 81.37L825.38 90.76L815.96 78.69L828.16 69.27L837.58 81.37ZM813.1 49.93L822.53 62.03L810.33 71.42L800.9 59.32L813.08 49.93M623.55 72.1L635.75 62.68L645.18 74.78L632.98 84.17L623.55 72.1ZM658.12 76.42L670.33 67L679.75 79.1L667.55 88.49L658.12 76.42ZM702.12 92.81L692.7 80.74L704.9 71.32L714.32 83.42L702.12 92.81ZM736.72 97.14L727.29 85.06L739.49 75.65L748.92 87.74L736.72 97.14ZM771.29 101.46L761.87 89.39L774.07 79.97L783.49 92.07L771.29 101.46ZM808.66 84.29L818.09 96.39L805.89 105.78L796.46 93.71L808.64 84.29M628.53 118.55L619.11 106.44L631.31 97.07L640.74 109.14L628.54 118.53M638.63 91.44L650.83 82.02L660.25 94.12L648.05 103.51L638.63 91.44ZM682.63 107.83L673.2 95.76L685.4 86.35L694.83 98.44L682.63 107.83ZM717.2 112.16L707.77 100.08L719.98 90.67L729.4 102.76L717.2 112.16ZM751.8 116.48L742.37 104.41L754.57 94.99L764 107.09L751.8 116.48ZM786.37 120.8L776.94 108.73L789.15 99.31L798.57 111.41L786.37 120.8ZM833.14 115.73L820.94 125.12L811.52 113.05L823.72 103.64L833.14 115.73ZM643.61 137.9L634.19 125.78L646.39 116.41L655.81 128.48L643.61 137.87M663.11 122.88L653.69 110.76L665.88 101.39L675.31 113.46L663.11 122.85M678.18 142.22L668.76 130.1L680.96 120.73L690.39 132.8L678.18 142.22ZM712.76 146.54L703.34 134.42L715.53 125.05L724.96 137.13L712.76 146.54ZM697.68 127.2L688.26 115.08L700.46 105.71L709.88 117.78L697.68 127.2ZM732.28 131.52L722.86 119.4L735.05 110.03L744.48 122.11L732.28 131.52ZM747.35 150.87L737.93 138.75L750.13 129.38L759.56 141.45L747.35 150.87ZM766.85 135.84L757.43 123.73L769.62 114.36L779.05 126.43L766.85 135.84ZM781.93 155.19L772.51 143.07L784.7 133.7L794.13 145.77L781.93 155.19ZM819.28 138.02L828.7 150.09L816.5 159.51L807.08 147.39L819.28 138.02ZM804.22 118.68L813.65 130.75L801.44 140.17L792.02 128.05L804.2 118.68M614.67 140.82L626.87 131.41L636.29 143.52L624.1 152.89L614.67 140.82ZM670.87 147.85L658.67 157.22L649.24 145.14L661.45 135.73L670.87 147.85ZM705.44 152.17L693.24 161.54L683.82 149.46L696.02 140.05L705.44 152.17ZM740.03 156.49L727.84 165.86L718.41 153.79L730.61 144.37L740.03 156.49ZM774.61 160.81L762.41 170.18L752.99 158.11L765.19 148.7L774.61 160.81ZM809.2 165.14L797.01 174.51L787.58 162.44L799.76 153.02L809.18 165.14M619.65 187.28L610.23 175.18L622.43 165.77L631.85 177.89L619.66 187.26M651.35 162.86L639.15 172.23L629.73 160.16L641.93 150.75L651.35 162.86ZM685.94 167.19L673.75 176.56L664.32 164.49L676.52 155.07L685.94 167.19ZM720.52 171.51L708.32 180.88L698.89 168.81L711.1 159.39L720.52 171.51ZM755.11 175.84L742.92 185.21L733.49 173.13L745.69 163.72L755.11 175.84ZM789.69 180.16L777.49 189.53L768.06 177.45L780.27 168.04L789.69 180.16ZM824.26 184.48L812.06 193.85L802.64 181.78L814.84 172.36L824.26 184.48ZM646.93 197.21L634.73 206.62L625.31 194.53L637.51 185.13L646.93 197.21ZM654.23 191.6L644.8 179.51L657.01 170.09L666.43 182.19L666.4 182.21L654.23 191.6ZM666.43 182.21L666.43 182.19L666.4 182.21L666.43 182.21ZM681.51 201.53L669.3 210.94L659.88 198.85L672.08 189.46L681.51 201.53ZM716.08 205.85L703.88 215.27L694.45 203.17L706.65 193.78L716.08 205.85ZM701 186.51L688.8 195.92L679.38 183.83L691.58 174.41L701 186.51ZM735.57 190.83L723.4 200.25L713.97 188.15L726.17 178.74L735.57 190.83ZM750.68 210.18L738.47 219.59L729.05 207.5L741.25 198.1L750.68 210.18ZM770.17 195.15L757.97 204.57L748.55 192.47L760.75 183.06L770.17 195.15ZM775.85 202.43L785.25 214.5L773.07 223.92L763.65 211.82L775.85 202.43ZM819.82 218.82L807.62 228.23L798.2 216.14L810.4 206.75L819.82 218.82ZM804.77 199.48L792.56 208.89L783.14 196.8L795.32 187.38L804.74 199.5M863 -81.34L860.78 -64.16L853.24 -73.83L863 -81.34ZM856.34 -29.77L848.8 -39.44L858.56 -46.95L856.34 -29.77ZM851.9 4.59L844.36 -5.08L854.12 -12.59L851.9 4.59ZM847.46 38.96L839.92 29.28L849.68 21.77L847.46 38.96ZM843.02 73.32L835.48 63.65L845.24 56.14L843.02 73.32ZM838.58 107.68L831.04 98.01L840.8 90.5L838.58 107.68ZM834.14 142.04L826.6 132.37L836.36 124.86L834.14 142.04ZM829.69 176.43L822.15 166.76L831.91 159.25L829.69 176.43ZM827.47 193.61L825.25 210.79L817.71 201.12L827.47 193.61ZM847.59 -81.1L840.07 -90.77L857.35 -88.61L847.58 -81.05M805.45 -95.09L822.75 -92.93L813.03 -85.37L805.45 -95.09ZM778.44 -89.74L770.9 -99.41L788.2 -97.25L778.44 -89.7M743.85 -94.07L736.33 -103.74L753.61 -101.58L743.84 -94.02M709.27 -98.34L709.27 -98.37L709.29 -98.34M709.27 -98.37L701.74 -108.06L719.03 -105.9L709.27 -98.37ZM667.16 -112.38L684.41 -110.23L674.7 -102.66L667.16 -112.38ZM813.27 235.48L823.04 227.95L821.64 238.72L815.16 237.91L813.27 235.48ZM778.7 231.16L790.9 221.77L800.32 233.86L797.88 235.75L780.58 233.58L778.7 231.16ZM744.1 226.84L756.3 217.44L765.73 229.54L763.29 231.42L746.01 229.26L744.13 226.84M709.53 222.51L721.73 213.12L731.15 225.22L728.71 227.1L711.42 224.94L709.53 222.51ZM687.14 208.8L696.56 220.89L694.14 222.78L676.84 220.62L674.94 218.19L687.14 208.8ZM640.36 213.87L652.56 204.48L661.99 216.57L659.54 218.45L642.25 216.29L640.39 213.87M617.99 200.15L627.41 212.25L624.97 214.13L607.67 211.97L605.79 209.55L617.99 200.15ZM806.93 -38.13L806.93 -38.13L806.91 -38.16M828.06 -66.03L828.06 -66.03L828.09 -66.03L828.06 -66.03ZM690.99 -41.73L690.99 -41.73L690.96 -41.71M686.55 -7.37L686.55 -7.37L686.52 -7.35M802.49 -3.77L802.49 -3.77L802.47 -3.77M798.05 30.59L798.03 30.59L798.03 30.59M793.61 64.95L793.61 64.95L793.59 64.95M701 186.53L701 186.53L701 186.51M735.59 190.85L735.59 190.85L735.6 190.83M770.17 195.18L770.17 195.18L770.17 195.15M775.85 202.43L775.85 202.43L775.82 202.42" />
								</g>
							</g>
						</g>
					</g>
				</g>
			</g>
		</g>
		<path id="Layer" class="shp4" d="M923.43 186.95C920.75 181.7 918.43 177.07 918.19 176.58C917.94 176.21 919.53 175.48 921.48 175.12C923.55 174.75 926.96 174.02 929.04 173.65L932.94 172.92L932.21 178.17C931.84 181.09 931.11 186.46 930.74 189.99C930.26 193.41 929.52 196.34 929.04 196.34C928.55 196.34 926.11 192.07 923.43 186.95Z" />
		<path id="Layer" class="shp4" d="M1011.81 1.22C1011.81 0.61 1014.61 0 1017.9 0C1021.32 0 1024 0.61 1024 1.22C1024 1.95 1021.32 2.44 1017.9 2.44C1014.61 2.44 1011.81 1.95 1011.81 1.22Z" />
	</g>
	<text id=" " style="transform: matrix(1,0,0,1,870,147)" >
		<tspan x="0" y="14.56" class="txt7">	</tspan>
	</text>
</svg>