<svg xmlns="http://www.w3.org/2000/svg" viewBox="0 0 938 768" width="938" height="768">
	<style>
		tspan { white-space:pre }
		.shp0 { opacity: 0.11;fill: #000000 } 
		.shp1 { fill: #fbfcfe } 
	</style>
	<g id="layer104">
		<path id="Layer" class="shp0" d="M685.42 585.27C674.25 584.04 665.76 575.89 663.19 563.94C661.52 555.8 661.52 438.81 663.19 428.76C664.42 422.18 665.09 420.95 670.34 415.7C673.58 412.35 678.05 409.23 680.5 408.45C686.31 406.44 823.1 405.54 833.71 407.44C842.53 409 848.34 412.47 853.14 419.39L856.82 424.74L856.82 496.19C856.82 564.84 856.71 567.74 854.7 570.98C851.02 576.56 847 580.58 842.31 583.03C837.84 585.49 837.39 585.49 763.58 585.6C722.71 585.71 687.54 585.49 685.42 585.27Z" />
		<path id="Layer" class="shp0" d="M678.16 359.55C672.8 357.1 668.33 353.08 666.1 348.73C662.08 340.91 661.74 334.66 662.19 269.02L662.52 204.84L665.65 198.36C669.11 191.33 674.81 186.64 682.74 184.41C686.09 183.4 707.41 183.07 760.46 183.07C839.96 183.07 838.73 182.96 847 189.32C849.12 190.88 852.13 194.23 853.81 196.8L856.82 201.38L856.82 272.26C856.82 342.81 856.82 343.26 854.37 347.72C851.46 353.19 848.23 356.2 842.08 359.33C837.39 361.67 836.5 361.67 760.01 361.67C687.2 361.67 682.4 361.45 678.16 359.55Z" />
		<path id="Layer" class="shp1" d="M758.89 531.35C758 529.79 751.08 517.73 743.48 504.56C736 491.39 729.41 480.11 728.85 479.55C726.29 476.76 729.08 477.21 744.38 482.34L760.9 487.81L776.87 482.23C785.92 479.11 792.62 477.32 792.28 478.1C791.83 479.22 764.36 527.78 761.57 532.47C760.79 533.8 760.34 533.58 758.89 531.35Z" />
		<path id="Layer" class="shp1" d="M729.19 298.94C730.08 297.49 737.01 285.54 744.49 272.37C752.08 259.2 758.89 247.7 759.67 246.92C760.79 245.69 763.47 249.71 774.19 268.69C781.45 281.41 788.6 294.03 790.05 296.71C791.61 299.27 792.28 301.4 791.72 301.4C791.05 301.4 783.91 299.05 775.75 296.15L761.01 291.01L745.27 296.15C736.56 299.05 729.08 301.4 728.52 301.4C727.96 301.4 728.3 300.28 729.19 298.94Z" />
	</g>
</svg>