<svg xmlns="http://www.w3.org/2000/svg" viewBox="0 0 1280 720" width="1280" height="720">
	<style>
		tspan { white-space:pre }
		.shp0 { fill: #ffd100 } 
		.shp1 { fill: #ffa300 } 
		.shp2 { fill: #ffa900 } 
	</style>
	<path id="Shape 1" class="shp0" d="M-87 -59L1503 -59L1503 955L-87 955L-87 -59Z" />
	<path id="Shape 3" class="shp1" d="M638.07 567.13L814.32 711.52C820.54 716.62 823.88 722.81 821.78 725.36L762.41 797.84C760.31 800.4 753.59 798.35 747.36 793.25L571.11 648.86C564.89 643.76 561.55 637.57 563.65 635.02L623.02 562.54C625.12 559.98 631.84 562.03 638.07 567.13Z" />
	<path id="Shape 3 copy" class="shp1" d="M421.07 390.13L597.32 534.52C603.54 539.62 606.88 545.81 604.78 548.36L545.41 620.84C543.31 623.4 536.59 621.35 530.36 616.25L354.11 471.86C347.89 466.76 344.55 460.57 346.65 458.02L406.02 385.54C408.12 382.98 414.84 385.03 421.07 390.13Z" />
	<path id="Shape 3 copy 2" class="shp1" d="M200.07 210.13L376.32 354.52C382.54 359.62 385.88 365.81 383.78 368.36L324.41 440.84C322.31 443.4 315.59 441.35 309.36 436.25L133.11 291.86C126.89 286.76 123.55 280.57 125.65 278.02L185.02 205.54C187.12 202.98 193.84 205.03 200.07 210.13Z" />
	<path id="Shape 3 copy 3" class="shp1" d="M-16.93 33.13L159.32 177.52C165.54 182.62 168.88 188.81 166.78 191.36L107.41 263.84C105.31 266.4 98.59 264.35 92.36 259.25L-83.89 114.86C-90.11 109.76 -93.45 103.57 -91.35 101.02L-31.98 28.54C-29.88 25.98 -23.16 28.03 -16.93 33.13Z" />
	<path id="Shape 3 copy 4" class="shp2" d="M456.07 688.13L632.32 832.52C638.54 837.62 641.88 843.81 639.78 846.36L580.41 918.84C578.31 921.4 571.59 919.35 565.36 914.25L389.11 769.86C382.89 764.76 379.55 758.57 381.65 756.02L441.02 683.54C443.12 680.98 449.84 683.03 456.07 688.13Z" />
	<path id="Shape 3 copy 5" class="shp2" d="M239.07 511.13L415.32 655.52C421.54 660.62 424.88 666.81 422.78 669.36L363.41 741.84C361.31 744.4 354.59 742.35 348.36 737.25L172.11 592.86C165.89 587.76 162.55 581.57 164.65 579.02L224.02 506.54C226.12 503.98 232.84 506.03 239.07 511.13Z" />
	<path id="Shape 3 copy 6" class="shp2" d="M18.07 331.13L194.32 475.52C200.54 480.62 203.88 486.81 201.78 489.36L142.41 561.84C140.31 564.4 133.59 562.35 127.36 557.25L-48.89 412.86C-55.11 407.76 -58.45 401.57 -56.35 399.02L3.02 326.54C5.12 323.98 11.84 326.03 18.07 331.13Z" />
	<path id="Shape 3 copy 7" class="shp2" d="M-198.93 154.13L-22.68 298.52C-16.46 303.62 -13.12 309.81 -15.22 312.36L-74.59 384.84C-76.69 387.4 -83.41 385.35 -89.64 380.25L-265.89 235.86C-272.11 230.76 -275.45 224.57 -273.35 222.02L-213.98 149.54C-211.88 146.98 -205.16 149.03 -198.93 154.13Z" />
	<path id="Shape 3 copy 8" class="shp2" d="M456.07 688.13L632.32 832.52C638.54 837.62 641.88 843.81 639.78 846.36L580.41 918.84C578.31 921.4 571.59 919.35 565.36 914.25L389.11 769.86C382.89 764.76 379.55 758.57 381.65 756.02L441.02 683.54C443.12 680.98 449.84 683.03 456.07 688.13Z" />
	<path id="Shape 3 copy 9" class="shp2" d="M239.07 511.13L415.32 655.52C421.54 660.62 424.88 666.81 422.78 669.36L363.41 741.84C361.31 744.4 354.59 742.35 348.36 737.25L172.11 592.86C165.89 587.76 162.55 581.57 164.65 579.02L224.02 506.54C226.12 503.98 232.84 506.03 239.07 511.13Z" />
	<path id="Shape 3 copy 10" class="shp2" d="M18.07 331.13L194.32 475.52C200.54 480.62 203.88 486.81 201.78 489.36L142.41 561.84C140.31 564.4 133.59 562.35 127.36 557.25L-48.89 412.86C-55.11 407.76 -58.45 401.57 -56.35 399.02L3.02 326.54C5.12 323.98 11.84 326.03 18.07 331.13Z" />
	<path id="Shape 3 copy 11" class="shp2" d="M-198.93 154.13L-22.68 298.52C-16.46 303.62 -13.12 309.81 -15.22 312.36L-74.59 384.84C-76.69 387.4 -83.41 385.35 -89.64 380.25L-265.89 235.86C-272.11 230.76 -275.45 224.57 -273.35 222.02L-213.98 149.54C-211.88 146.98 -205.16 149.03 -198.93 154.13Z" />
	<path id="Shape 3 copy 12" class="shp2" d="M-386.93 261.13L-210.68 405.52C-204.46 410.62 -201.12 416.81 -203.22 419.36L-262.59 491.84C-264.69 494.4 -271.41 492.35 -277.64 487.25L-453.89 342.86C-460.11 337.76 -463.45 331.57 -461.35 329.02L-401.98 256.54C-399.88 253.98 -393.16 256.03 -386.93 261.13Z" />
	<path id="Shape 3 copy 13" class="shp2" d="M268.07 795.13L444.32 939.52C450.54 944.62 453.88 950.81 451.78 953.36L392.41 1025.84C390.31 1028.4 383.59 1026.35 377.36 1021.25L201.11 876.86C194.89 871.76 191.55 865.57 193.65 863.02L253.02 790.54C255.12 787.98 261.84 790.03 268.07 795.13Z" />
	<path id="Shape 3 copy 14" class="shp2" d="M51.07 618.13L227.32 762.52C233.54 767.62 236.88 773.81 234.78 776.36L175.41 848.84C173.31 851.4 166.59 849.35 160.36 844.25L-15.89 699.86C-22.11 694.76 -25.45 688.57 -23.35 686.02L36.02 613.54C38.12 610.98 44.84 613.03 51.07 618.13Z" />
	<path id="Shape 3 copy 15" class="shp2" d="M-169.93 438.13L6.32 582.52C12.54 587.62 15.88 593.81 13.78 596.36L-45.59 668.84C-47.69 671.4 -54.41 669.35 -60.64 664.25L-236.89 519.86C-243.11 514.76 -246.45 508.57 -244.35 506.02L-184.98 433.54C-182.88 430.98 -176.16 433.03 -169.93 438.13Z" />
	<path id="Shape 3 copy 16" class="shp2" d="M-386.93 261.13L-210.68 405.52C-204.46 410.62 -201.12 416.81 -203.22 419.36L-262.59 491.84C-264.69 494.4 -271.41 492.35 -277.64 487.25L-453.89 342.86C-460.11 337.76 -463.45 331.57 -461.35 329.02L-401.98 256.54C-399.88 253.98 -393.16 256.03 -386.93 261.13Z" />
</svg>