<svg xmlns="http://www.w3.org/2000/svg" viewBox="0 0 1280 720" width="1280" height="720">
	<style>
		tspan { white-space:pre }
		.shp0 { opacity: 0.341;fill: #03034b } 
		.shp1 { opacity: 0.22;fill: #000000 } 
		.shp2 { opacity: 0.031;fill: #ffffff } 
	</style>
	<g id="Folder 1">
		<path id="Shape 2 copy 6" class="shp0" d="M238.33 301.26L369.98 348.88C371.54 349.44 372.34 351.16 371.78 352.72L324.16 484.37C323.6 485.93 321.88 486.74 320.32 486.17L188.67 438.55C187.11 437.99 186.3 436.27 186.86 434.71L234.48 303.06C235.05 301.5 236.77 300.69 238.33 301.26Z" />
		<path id="Shape 2 copy 7" class="shp0" d="M388.79 355.68L520.44 403.3C522 403.86 522.8 405.58 522.24 407.14L474.62 538.79C474.06 540.35 472.34 541.16 470.78 540.59L339.13 492.97C337.57 492.41 336.76 490.69 337.32 489.13L384.94 357.48C385.51 355.92 387.23 355.12 388.79 355.68Z" />
		<path id="Shape 2 copy 8" class="shp0" d="M539.25 410.1L670.9 457.72C672.46 458.29 673.26 460 672.7 461.56L625.08 593.22C624.52 594.78 622.8 595.58 621.24 595.02L489.59 547.4C488.03 546.83 487.22 545.12 487.78 543.55L535.4 411.9C535.97 410.34 537.69 409.54 539.25 410.1Z" />
		<path id="Shape 2 copy 9" class="shp0" d="M689.71 464.52L821.36 512.14C822.92 512.71 823.72 514.42 823.16 515.99L775.54 647.64C774.98 649.2 773.26 650 771.7 649.44L640.05 601.82C638.49 601.25 637.68 599.54 638.24 597.98L685.86 466.32C686.43 464.76 688.15 463.96 689.71 464.52Z" />
		<path id="Shape 2 copy 10" class="shp0" d="M840.17 518.95L971.82 566.57C973.38 567.13 974.18 568.85 973.62 570.41L926 702.06C925.44 703.62 923.72 704.42 922.16 703.86L790.51 656.24C788.95 655.68 788.14 653.96 788.7 652.4L836.32 520.75C836.89 519.19 838.61 518.38 840.17 518.95Z" />
		<g id="Folder 2">
			<path id="Shape 3" class="shp1" d="M279 417C265.73 417 255 406.27 255 393C255 379.73 265.73 369 279 369C292.27 369 303 379.73 303 393C303 406.27 292.27 417 279 417Z" />
			<path id="Shape 4" class="shp2" d="M279.5 406C272.59 406 267 400.41 267 393.5C267 386.59 272.59 381 279.5 381C286.41 381 292 386.59 292 393.5C292 400.41 286.41 406 279.5 406Z" />
		</g>
		<g id="Folder 2 copy">
			<path id="Shape 3 copy" class="shp1" d="M429 471C415.73 471 405 460.27 405 447C405 433.73 415.73 423 429 423C442.27 423 453 433.73 453 447C453 460.27 442.27 471 429 471Z" />
			<path id="Shape 4 copy" class="shp2" d="M429.5 460C422.59 460 417 454.41 417 447.5C417 440.59 422.59 435 429.5 435C436.41 435 442 440.59 442 447.5C442 454.41 436.41 460 429.5 460Z" />
		</g>
		<g id="Folder 2 copy 2">
			<path id="Shape 3 copy 2" class="shp1" d="M580 526C566.73 526 556 515.27 556 502C556 488.73 566.73 478 580 478C593.27 478 604 488.73 604 502C604 515.27 593.27 526 580 526Z" />
			<path id="Shape 4 copy 2" class="shp2" d="M580.5 515C573.59 515 568 509.41 568 502.5C568 495.59 573.59 490 580.5 490C587.41 490 593 495.59 593 502.5C593 509.41 587.41 515 580.5 515Z" />
		</g>
		<g id="Folder 2 copy 3">
			<path id="Shape 3 copy 3" class="shp1" d="M730 580C716.73 580 706 569.27 706 556C706 542.73 716.73 532 730 532C743.27 532 754 542.73 754 556C754 569.27 743.27 580 730 580Z" />
			<path id="Shape 4 copy 3" class="shp2" d="M730.5 569C723.59 569 718 563.41 718 556.5C718 549.59 723.59 544 730.5 544C737.41 544 743 549.59 743 556.5C743 563.41 737.41 569 730.5 569Z" />
		</g>
		<g id="Folder 2 copy 4">
			<path id="Shape 3 copy 4" class="shp1" d="M881 635C867.73 635 857 624.27 857 611C857 597.73 867.73 587 881 587C894.27 587 905 597.73 905 611C905 624.27 894.27 635 881 635Z" />
			<path id="Shape 4 copy 4" class="shp2" d="M881.5 624C874.59 624 869 618.41 869 611.5C869 604.59 874.59 599 881.5 599C888.41 599 894 604.59 894 611.5C894 618.41 888.41 624 881.5 624Z" />
		</g>
	</g>
</svg>