<svg data-name="Layer 1" xmlns="http://www.w3.org/2000/svg" xmlns:xlink="http://www.w3.org/1999/xlink" width="1132.39" height="767.13"><defs><linearGradient id="a" x1="421.86" y1="330.48" x2="421.86" y2="285.82" gradientUnits="userSpaceOnUse"><stop offset="0" stop-color="gray" stop-opacity=".25"/><stop offset=".54" stop-color="gray" stop-opacity=".12"/><stop offset="1" stop-color="gray" stop-opacity=".1"/></linearGradient><linearGradient id="b" x1="516.9" y1="320.8" x2="516.9" y2="276.14" xlink:href="#a"/><linearGradient id="c" x1="699.9" y1="472.8" x2="699.9" y2="428.14" xlink:href="#a"/><linearGradient id="d" x1="293.63" y1="250.89" x2="293.63" y2="206.23" xlink:href="#a"/><linearGradient id="e" x1="385.29" y1="314.89" x2="385.29" y2="270.23" xlink:href="#a"/><linearGradient id="f" x1="753.86" y1="472.48" x2="753.86" y2="427.82" xlink:href="#a"/><linearGradient id="g" x1="834.86" y1="251.48" x2="834.86" y2="206.82" xlink:href="#a"/><linearGradient id="h" x1="829.86" y1="393.48" x2="829.86" y2="348.82" xlink:href="#a"/><linearGradient id="i" x1="864.86" y1="403.48" x2="864.86" y2="358.82" xlink:href="#a"/><linearGradient id="j" x1="717.29" y1="456.89" x2="717.29" y2="412.23" xlink:href="#a"/><linearGradient id="k" x1="722.29" y1="321.89" x2="722.29" y2="277.23" xlink:href="#a"/><linearGradient id="l" x1="122.28" y1="564.8" x2="344.94" y2="564.8" xlink:href="#a"/><linearGradient id="m" x1="277.86" y1="393.48" x2="277.86" y2="348.82" xlink:href="#a"/></defs><path d="M612.68 112.3c-69.59-.11-136.64-21.73-200.79-45.79S284.1 15.62 215.77 4.11c-44-7.4-93.9-6.9-128.17 19.38-32.97 25.29-42.41 67.26-46.93 106.08-3.39 29.18-4.91 59.83 8.17 86.57 9.09 18.57 24.59 33.89 35.56 51.6 38.17 61.6 15.52 140-21.24 202.82-17.25 29.41-37.46 57.64-50.47 88.8s-18.28 66.52-4.84 97.35c13.34 30.57 43.34 52.86 75.43 68.07 65.29 31 141.16 37.82 215 40.59 163.48 6.14 327.21-4.8 490.51-15.8 60.43-4.06 121.13-8.16 180.29-20.29 32.85-6.73 66.66-16.76 89.9-38.92 29.5-28.12 35.42-74.17 13.81-107.34-36.26-55.69-131.42-66.45-157.52-126.63-14.37-33.13-2.17-71 15.86-102.86 38.69-68.29 105.44-129.37 106.35-205.89.62-52.56-34.33-103.93-86.37-126.93-54.56-24.14-128.8-18.2-166.83 26.28-39.16 45.8-110.15 65.41-171.6 65.31z" fill="#5369f8" opacity=".1"/><path d="M958.84 626s-12.29-8.11-24.47-2.34c0 0 3.75 7.23 19.17 6.54zm1.51.44s3.74 14.24-5.63 23.93c0 0-5.64-5.88 0-20.26zm15.33-13.67s-.91-12.12-28.25-8.1c0 0-.13 7.82 9.47 11.52s13.99.58 18.78-3.42zm1.68-.09s11.57 3.72 1.26 29.37c0 0-7.63-1.71-9-11.91s2.73-13.74 7.74-17.46zm15.49-17.18s1.56-19.93-26.39-17.88c0 0-2 18 21.45 22.67zm18.47-22.5s-3.84-22.58-31.77-15.85c0 0-.11 19.53 27.2 21.24zm13.49-23.26s-6.41-22-34.09-15.41c0 0 6.58 19.78 32.25 19.48zm12.82-22.71s-6.27-22.83-33-16c0 0 8.92 21.69 31.24 19.87zm8.27-21.58s-4.82-27.88-29.71-21.74c0 0 7.24 25.4 27.9 25.8zm7.74-26.07s-5.78-28.15-31-20c0 0 9.89 26.59 29.22 23.84zm4.8-24.27s-9.19-28.14-28.68-27.38c0 0 9.4 29.73 27 33zm3.05-23.67s-10-33.88-25.86-31.27c0 0 6.92 25.9 25.3 36.54zm1.7-28.28s-9.37-28.24-25-29.36c0 0 6.38 27.78 24.68 36.69zm1.93-26.33s-11.69-28.27-22-28.9c0 0 5.07 27.82 21 33.54zm1.29-24.52s-7.22-30.74-17.52-33.24c0 0 1.42 25.1 16.49 35.53zm3.89-32.09s-7.56-24.46-15.93-28.19c0 0 1.66 28.84 14 34.18zm3.23-21.07l1.53-43.14s-15.62 32.55-2.68 50.75zm12.09-42.87s11.26-31.51 14-33.26c0 0-22.1 20.43-19.94 46.73zm-92.01 339.08s19.82-2.6 19.22 25.42c0 0-17.91 2.91-23.75-20.25zm18.64-23.11s22.91-.08 21 28.6c0 0-19.22 3.43-25.57-23.19zm12.78-20.68s20.79-9.75 34.1 15.41c0 0-19.21 8.13-35.93-11.35zm13.07-24.33s21.28-10.38 33.78 14.21c0 0-22.17 7.64-35.54-10.32z" fill="#5369f8"/><path d="M1045.63 506.05s20.49-19.57 36.84.23c0 0-20.93 16.1-37.79 4.13zm6.85-27.34s20.62-20 36.84.92c0 0-23.14 16.43-37.57 3.28zm3.86-24.4s15.88-25 34.57-19.41c0 0-16.47 26.47-34.39 25.29zm4.68-23.03s16-31.49 31.13-26c0 0-11.53 24.2-31.54 31.31zm1.1-29.71s16.45-24.78 31.86-21.76c0 0-13.44 25.13-33.45 28.93zm1.26-25.3s12.74-27.8 23.11-28.05c0 0-6.12 27.62-22.26 32.73zm2.52-24.57s14.17-28.16 24.82-28.21c0 0-7.25 24.07-24.34 30.69zm2.14-29.75s10.6-23.3 19.37-25.94c0 0-5.3 28.4-18.21 32.12z" fill="#5369f8"/><path d="M1074.8 298.33l23.68-36.08s-6.06 35.59-27.14 43zm16.26-39.15s27.53-19 28.52-22.08c0 0-14 26.62-40 31.32zm1.64-8.55s31.61-30.39 39.68-30.35c0 0-26.07 1.19-40.44 28.73z" fill="#5369f8"/><path d="M1068.34 326.46l1.15.15c5.94-46.5 14.6-74 24.39-77.38l-.38-1.09c-10.37 3.6-19.07 30.68-25.16 78.32z" fill="#444053"/><path d="M1059.61 437.63l1.74.15c.36-4.34.64-8.79.83-13.21 1.66-38.49 4.24-73.82 7.62-100.31l-1-1.25c-3.39 26.54-6.69 62.95-8.35 101.48-.2 4.4-.48 8.82-.84 13.14z" fill="#444053"/><path d="M926.38 648.14c.31-.14 30.94-13.81 62.73-46.44a252.42 252.42 0 0045.85-65c14.69-29.93 23.65-66.71 26.66-102.44l-1.81.85c-6.75 80.19-43.26 135-72.3 164.84-31.48 32.34-61.76 45.88-62.06 46z" fill="#444053"/><path d="M1048.71 48.88H87.83a8.56 8.56 0 00-8.56 8.56v24.94h978V57.44a8.56 8.56 0 00-8.56-8.56z" fill="#3f3d56"/><path d="M79.27 82.38v561.24a17.26 17.26 0 0017.26 17.26h943.48a17.26 17.26 0 0017.26-17.26V82.38z" fill="#fff"/><circle cx="94.77" cy="65.37" r="4" fill="#fa5959" opacity=".8"/><circle cx="105.77" cy="65.37" r="4" fill="#fed253" opacity=".8"/><circle cx="116.77" cy="65.37" r="4" fill="#8ccf4d" opacity=".8"/><g opacity=".3" fill="none" stroke="#3f3d56" stroke-miterlimit="10"><path d="M116.77 116.37h904v510h-904z"/><path d="M234.77 116.37h668v510h-668z"/><path d="M352.77 116.37h432v510h-432z"/><path d="M470.77 116.37h196v510h-196zm98 0v510"/><path d="M116.77 190.37h904v362h-904z"/><path d="M116.77 263.37h904v216h-904z"/><path d="M116.77 336.37h904v70h-904z"/></g><path fill="#3f3d56" opacity=".1" d="M258.27 144.87h71v26h-71zm-111 71h53v26h-53zm226-71h71v26h-71zm108 0h71v26h-71zm100 0h71v26h-71zm112 0h71v26h-71zm114 0h71v26h-71zm121 0h71v26h-71z"/><path fill="url(#a)" d="M398.79 285.82h46.13v44.66h-46.13z"/><path fill="#7cfcff" d="M399.59 286.59h44.54v43.12h-44.54z"/><path fill="url(#b)" d="M493.83 276.14h46.13v44.66h-46.13z"/><path fill="#ffffa5" d="M494.63 276.91h44.54v43.12h-44.54z"/><path fill="url(#c)" d="M676.83 428.14h46.13v44.66h-46.13z"/><path fill="#ffffa5" d="M677.63 428.91h44.54v43.12h-44.54z"/><path fill="url(#d)" d="M270.57 206.23h46.13v44.66h-46.13z"/><path fill="#ffffa5" d="M271.36 207h44.54v43.12h-44.54z"/><path fill="url(#e)" d="M362.23 270.23h46.13v44.66h-46.13z"/><path fill="#ff69b4" d="M363.02 271h44.54v43.12h-44.54z"/><path fill="url(#f)" d="M730.79 427.82h46.13v44.66h-46.13z"/><path fill="#7cfcff" d="M731.59 428.59h44.54v43.12h-44.54z"/><path fill="url(#g)" d="M811.79 206.82h46.13v44.66h-46.13z"/><path fill="#7cfcff" d="M812.59 207.59h44.54v43.12h-44.54z"/><path fill="url(#h)" d="M806.79 348.82h46.13v44.66h-46.13z"/><path fill="#7cfcff" d="M807.59 349.59h44.54v43.12h-44.54z"/><path fill="url(#i)" d="M841.79 358.82h46.13v44.66h-46.13z"/><path fill="#7cfcff" d="M842.59 359.59h44.54v43.12h-44.54z"/><path fill="url(#j)" d="M694.23 412.23h46.13v44.66h-46.13z"/><path fill="#ff69b4" d="M695.02 413h44.54v43.12h-44.54z"/><path fill="url(#k)" d="M699.23 277.23h46.13v44.66h-46.13z"/><path fill="#ff69b4" d="M700.02 278h44.54v43.12h-44.54z"/><path fill="#3f3d56" opacity=".1" d="M147.27 285.87h53v26h-53zm0 73h53v26h-53zm0 73h53v26h-53zm0 73h53v26h-53zm0 73h53v26h-53z"/><path d="M342.08 417.51c1.48-.94.89-3.46-.63-4.33s-3.41-.58-5.12-.24a2.09 2.09 0 00-1.1-2.2v-.38c1-1 .62-3-.6-3.88s-3.12-.92-4.76-.84a6.34 6.34 0 00-2-5.4 1.67 1.67 0 00-1.1-.53c-1 0-1.28 1.28-1.35 2.23a42.23 42.23 0 01-1.23 7.39l-31.08 52c-3.46 5 7.29-10 3.83-4.95a44 44 0 01-6.12 7.59 30.16 30.16 0 01-6.91 4.63 8.15 8.15 0 01-4.72-1.34 19 19 0 01-4.54-4.49 88.63 88.63 0 01-7.33-10.89 14.11 14.11 0 01-1.68-3.89c-.46-2.16 0-4.5-.85-6.53a10.67 10.67 0 00-1.34-2.12l-2.15-2.85v-.13c-.24-4.22-3.67-7.48-6.87-10.26-2.72-2.38-5.67-4.86-9.26-5.32-1.92-.25-3.89.12-5.81-.12-1.57-.2-3.06-.79-4.62-1.05a19.6 19.6 0 00-4.53-.09l-.64-.59a17.92 17.92 0 008.09-6.8c1.48-2.39 2.29-5.15 3.66-7.61 1.67-3 4.15-5.48 6-8.36 4.47-6.83 5.29-15.62 3.48-23.58s-6.05-15.19-11-21.64c-9.6-12.42-25.7-17-40.86-14.6-1 .16-2 .35-3 .57a38.52 38.52 0 00-7.43 2.37 19 19 0 00-8.11 6.33 14.61 14.61 0 00-1.41 2.62 15.43 15.43 0 00-.68 2.16 22.41 22.41 0 00-.37 6.76c.06.77.14 1.54.23 2.31l.15 1.16c.1.77.21 1.54.32 2.31.16 1.16.31 2.32.42 3.46a22 22 0 01.13 2.43v.61a9.93 9.93 0 01-.27 1.79 7.5 7.5 0 01-.3.95 11.84 11.84 0 01-1.41 2.59 32.71 32.71 0 01-2.53 3.11l-.87 1c-.29.33-.57.67-.86 1a36.66 36.66 0 00-3.13 4.23 20.58 20.58 0 00-1.23 2.32 16.6 16.6 0 00-.71 1.86 15.4 15.4 0 00-.54 2.6c0 .22 0 .44-.06.66v1.31a11.47 11.47 0 00.14 1.3 9.23 9.23 0 00.3 1.26 8.55 8.55 0 00.47 1.22c0 .11.1.22.16.33l.16.33c.11.22.22.43.32.65a4.26 4.26 0 01.33 1v.73a4.09 4.09 0 01-1.48 2.55c-.2.19-.4.36-.61.54l-.32.26-.65.51-.62.5a12.59 12.59 0 00-1.51 1.5 55.87 55.87 0 00-16.74 1.64 22.64 22.64 0 01-6 1.09 3 3 0 01-2.6-1.09 3.83 3.83 0 01-.27-2.4 20.7 20.7 0 00-1.6-9.8 5.45 5.45 0 00-1.6-2.33 2.26 2.26 0 00-2.66-.14 24.93 24.93 0 01-.69 16.67 53.85 53.85 0 01-3.85 7.23c-2.28 3.89-3.56 8.34-5.59 12.37 2.27 7.69 1.76 15.9 3 23.84 1.11 7.39 3.69 14.47 6.28 21.48 2 5.29 4.08 10.81 8.32 14.53a7.58 7.58 0 005.15 2.24 9 9 0 004-1.52 15.67 15.67 0 003.39-2.49 8.76 8.76 0 001-1.33 5.19 5.19 0 00.75 1.88c2.44-5.26 5.12-10.4 8-15.43a13.22 13.22 0 002.4-1.64c0 .18.09.36.14.54-.13.48-.25 1-.38 1.45s-.28.93-.42 1.38-.21.67-.32 1-.27.8-.42 1.2-.32.87-.49 1.3-.23.62-.36.92c-.31.76-.63 1.5-1 2.24a7 7 0 00.86.35l.19.06a7 7 0 00.79.2h.29a5.61 5.61 0 00.59.06h.87a8.56 8.56 0 002.11-.36l.39 1.6a57.15 57.15 0 011.92 11c.19 4.2-.54 8.47.27 12.6.41 2.15 1.24 4.21 1.54 6.37a27.15 27.15 0 01-.11 6.11l-1.4 14.73a12.6 12.6 0 01-1.26 5.2c-.69 1.2-1.81 2.57-1.11 3.76a25 25 0 013.51-.67c-.43 1.56-.82 3.13-1.19 4.71a8.3 8.3 0 00-.28 3.63c.25 1.14 1 2.17 1.08 3.33.18 1.8-1.07 3.39-1.76 5.06-1.76 4.26.11 9.06 2 13.28l5.52 12.52 4.53 10.27c1.34 3 2.69 6.1 4 9.18a298 298 0 0114.42 43.24 5.16 5.16 0 00.75 1.88c.76 1 2.15 1.32 3.28 1.94 3.39 1.87 3.78 7.45.68 9.77.63 7.52-5 14.79-7.9 21.75-6.68 16-5.47 34.06-7.76 51.26l2.59-1.51a3.21 3.21 0 01.84.55q-.09.48-.21 1a15.67 15.67 0 01-1.66 4.17c-1.51 2.59-3.82 4.9-4.17 7.88-.21 1.8.34 3.6.33 5.41v.5c-.23-.22-.58-.2-1.1.21a6.45 6.45 0 00-1.63 3.07c-.45 1.29-.81 2.6-1.17 3.91l-1.34 4.62a53.71 53.71 0 01-2.71 8.15 34.92 34.92 0 00-2.4 5.52 17.13 17.13 0 00-.41 4.74 14.21 14.21 0 00.65 4.5 11.18 11.18 0 006.55 6.21 30.75 30.75 0 009.1 1.72 7.65 7.65 0 002.39-.07 6.49 6.49 0 002.31-1.21c4.22-3.1 6.4-8.8 6.78-14a20.67 20.67 0 00-.57-3.18c.26-5.69-.57-11.41-.14-17.08.09.65.18 1.29.28 1.93l1 6.37a1.33 1.33 0 00-.34-.6 14.64 14.64 0 00-.38 7.29 43.5 43.5 0 002.1 7.07l1.36 3.8a9.07 9.07 0 001.62 3.15c1.19 1.31 3 1.8 4.74 2.22a52.25 52.25 0 0011.48 2 2.6 2.6 0 001.51-.28 7.33 7.33 0 00.68-.57 6.71 6.71 0 011.1-.64 7.26 7.26 0 003.52-4.17 6.58 6.58 0 00-.65-5.39 12.59 12.59 0 00-1.55-1.88l-6.84-7.25a43.1 43.1 0 00-3.34-3.54 1.25 1.25 0 00-1.1-.36c-1.86-4.64-1.62-10.06-1.3-15.15.1-1.52.93-4.67 1.26-7.26a11.71 11.71 0 003.63-2 5.48 5.48 0 002.09-3.12c3.45-17.62 9-34.7 14.24-51.87.52-1.69 1-3.39 1.53-5.08.22-.72.42-1.45.63-2.18s.35-1.18.52-1.77c.28-1 .56-2 .83-3 .08-.27.15-.54.23-.81a.94.94 0 010-.16c.33-1.23.65-2.46 1-3.69.12-.48.25-.94.37-1.42.39-1.56.78-3.14 1.15-4.71a5.18 5.18 0 00.14-.66 2.79 2.79 0 00-.11-1.67 2.17 2.17 0 00-.39-.56c-.11-.13-.23-.26-.35-.38s-.26-.28-.38-.43a3.87 3.87 0 01-.7-1.31v-1.44c0-.44-.06-1-.09-1.52a16 16 0 01.45-2c.12-.39.25-.78.37-1.17s.3-1 .46-1.45a3.67 3.67 0 00.91-2.47q.93-2.32 2.05-4.55a13.72 13.72 0 001.83-4.92 19.52 19.52 0 00-.58-4.67c-1-6.5 2-12.83 4.21-19a84.27 84.27 0 003.72-14c.65-3.65 1.1-7.48 3.05-10.64a15.84 15.84 0 001.64-2.84 11.18 11.18 0 00.44-3.22 35.53 35.53 0 013.15-12.77 8.1 8.1 0 00.82-2.49.91.91 0 000-.17v-.24l.51-.08c.87-5.51 1.75-11.65 1.15-17.2a26.23 26.23 0 00-8.79-16.6h.1c1.72-.87 2.49-3 2.52-4.88a9.51 9.51 0 00-3.54-7.43 3.55 3.55 0 01-1.2-1.24 3.77 3.77 0 01-.15-1.61 8.23 8.23 0 00-5.07-7.64 1.91 1.91 0 01-.83-.48 2 2 0 01-.22-1.46 8.93 8.93 0 00-4.31-8.16c.4-2.14.8-4.38.19-6.48s-2.58-4-4.74-3.7c1.76-4.8-.74-10.14-.08-15.21.29-2.18 1.16-4.27 1.27-6.46.1-2-.39-4.14.58-5.88s3.26-3.1 2.67-5c-.25-.81-1-1.37-1.35-2.16s1.05-2 1.77-1.56c.34-.26.68-.53 1-.81a16.11 16.11 0 00.6 3c.49 1.64 1.24 3.18 1.75 4.81.78 2.49 1 5.19 2.26 7.47 2 3.65 6.23 5.46 9.09 8.49 1.68 1.77 2.89 4 4.62 5.68a25.18 25.18 0 004.3 3.23l9.24 6a10.62 10.62 0 003.16 1.57 5.39 5.39 0 006.35-4.57 6.24 6.24 0 01-2.27-1.41c.13 0 .26 0 .39-.06a14.57 14.57 0 005.93-3.15c6.58-5.24 11.31-12.39 15.93-19.42 4.84-7.37 28.13-26.87 28.13-26.87v-7.9a28.44 28.44 0 007.76-6.61 8.57 8.57 0 001.95-5 4.45 4.45 0 00-2.86-4.37zm-193.7 18.95q-.67 4.31-1.65 8.56a81.34 81.34 0 01-2.76 9.67l-.36 1c-.33-.62-.66-1.23-1-1.86-.75-1.57-1.36-3.2-2-4.83l-3.86-10.4c-.5-1.35-1-2.91-.25-4.15a4.64 4.64 0 012.2-1.65 43.48 43.48 0 018.46-2.87 23.17 23.17 0 002.72-.72 41 41 0 00-1.5 7.25zm4.27-13a1.55 1.55 0 010-1.51 3.44 3.44 0 011-.7l.29-.2c-.4.83-.85 1.63-1.29 2.44zm8-11.31a20.92 20.92 0 00-3.08 3.16 33 33 0 00-2.64 4.08 3 3 0 00-1.1-3 6.37 6.37 0 01-1-.68 2.1 2.1 0 01.42-2.94 6.1 6.1 0 013.11-1.06l4.61-.68c-.14.39-.23.77-.33 1.15zm43.16 334.65a16.73 16.73 0 00-.27-4.13h1.7c-.47 1.33-.95 2.74-1.43 4.13z" transform="translate(-33.81 -66.43)" fill="url(#l)"/><path d="M165.3 272.91c-8 1.29-16.9 4.37-20 11.87-2.31 5.67-.52 12.05.07 18.14a14 14 0 01-.17 4.83c-.66 2.57-2.48 4.65-4.24 6.64a35.21 35.21 0 00-6.09 8.54c-1.44 3.2-1.9 7-.41 10.2a7.35 7.35 0 011 2.69c.1 2.08-2.08 3.4-3.68 4.73-6 5-5.75 14-5.8 21.83a110.71 110.71 0 01-10.39 46.19 14.11 14.11 0 0015.77-2.06 52.55 52.55 0 01-3.58 10.32c5.08 2.46 11.21-1.58 13.76-6.62s2.85-10.9 4.66-16.25 5-10 6.41-15.39c.45-1.78.73-3.68 1.82-5.16a13.58 13.58 0 013.2-2.73 31.23 31.23 0 0011.31-15.33c6.22 1.37 12.57 2.75 18.91 2.17s12.82-3.45 16.17-8.87c1.48-2.39 2.28-5.14 3.65-7.6 1.68-3 4.15-5.48 6-8.35 4.46-6.83 5.28-15.6 3.47-23.56s-6-15.16-11-21.61c-9.58-12.44-25.68-17.05-40.84-14.62z" fill="#303d5c"/><path d="M114.81 372.93c-.45 2.86-1 5.72-1.64 8.55a83.67 83.67 0 01-2.76 9.66 9.22 9.22 0 00-.87 4.44 8.07 8.07 0 001.07 2.64c3.65 6.49 8.59 12.76 9 20.2.1 1.85 0 3.86 1 5.39q4.23-9.11 9.34-17.76c3.56-6 7.52-12.14 8.54-19.08a35.75 35.75 0 00-.13-9.8c-.47-3.65-1.29-7.39-3.51-10.31-2.42-3.16-9-7.93-13.33-6.94-5.03 1.15-6.07 8.94-6.71 13.01z" fill="#5369f8"/><path d="M243.7 407.91c4.78-1.95 9.66-4 13.45-7.52a44 44 0 006.12-7.59l11.25-16.23c2.66-3.86 5.41-7.91 6-12.56a41.36 41.36 0 0011.23-25.54c.08-.95.4-2.2 1.35-2.23a1.67 1.67 0 011.1.53 6.33 6.33 0 012 5.39c1.64-.08 3.42-.12 4.76.84s1.7 3.34.26 4.13a2.06 2.06 0 011.43 2.33c1.72-.34 3.61-.62 5.13.24s2.1 3.38.63 4.32a4.46 4.46 0 012.85 4.27 8.48 8.48 0 01-1.95 5c-4.32 5.8-11.94 8.14-16.95 13.36a40.37 40.37 0 00-4.41 5.89l-14.51 22.08c-4.61 7-9.34 14.17-15.92 19.39a14.57 14.57 0 01-5.93 3.15 6.53 6.53 0 01-6.23-1.73c-1.45-1.65-1.67-4-1.81-6.21-.24-3.72.4-7.56.15-11.31z" fill="#ee8e9e"/><path d="M195.11 714.57a12.1 12.1 0 011.55 1.88 6.56 6.56 0 01.65 5.38 7.19 7.19 0 01-3.51 4.16 6.41 6.41 0 00-1.11.64 6.3 6.3 0 01-.68.58 2.77 2.77 0 01-1.51.28 53.37 53.37 0 01-11.47-2c-1.72-.43-3.54-.92-4.74-2.22a9.07 9.07 0 01-1.62-3.15l-1.36-3.79a43.94 43.94 0 01-2.09-7.06 14.48 14.48 0 01.38-7.28 2.29 2.29 0 01.5 1.49 16.3 16.3 0 002.92 7.06 7.17 7.17 0 001.14 1.43 7.26 7.26 0 003.41 1.43 42.3 42.3 0 007.26.93 2 2 0 001-.12 1.79 1.79 0 00.83-1 4.42 4.42 0 000-3c-.66-1.85-2.47-3.06-3.33-4.82-.65-1.3.24-2.73 1.56-1.63a41.57 41.57 0 013.35 3.54z" fill="#303d5c"/><path d="M182.54 688.3c-.39 6.11-.66 12.71 2.68 17.84 1.21 1.84 2.82 3.39 4.19 5.12a6.1 6.1 0 011.5 3.09c.19 2.24-1.91 4.16-4.12 4.58s-4.47-.28-6.61-1a15.92 15.92 0 01-5.61-2.64c-2.91-2.46-3.68-6.56-4.26-10.32l-1.36-8.74a20.9 20.9 0 011.24-13.2l2.24-6.56a3 3 0 011-1.63 2.78 2.78 0 011.71-.32c2.14.11 7.55.89 8.59 3.16.88 1.97-1.04 8.27-1.19 10.62z" fill="#ee8e9e"/><path d="M182.54 688.3c-.39 6.11-.66 12.71 2.68 17.84 1.21 1.84 2.82 3.39 4.19 5.12a6.1 6.1 0 011.5 3.09c.19 2.24-1.91 4.16-4.12 4.58s-4.47-.28-6.61-1a15.92 15.92 0 01-5.61-2.64c-2.91-2.46-3.68-6.56-4.26-10.32l-1.36-8.74a20.9 20.9 0 011.24-13.2l2.24-6.56a3 3 0 011-1.63 2.78 2.78 0 011.71-.32c2.14.11 7.55.89 8.59 3.16.88 1.97-1.04 8.27-1.19 10.62z" opacity=".05"/><path d="M230.61 507.19a1.11 1.11 0 010 .17 7.49 7.49 0 01-.82 2.47 35.52 35.52 0 00-3.16 12.74 11.18 11.18 0 01-.44 3.22 16 16 0 01-1.64 2.83c-1.95 3.17-2.4 7-3.05 10.63a84 84 0 01-3.72 13.94c-2.23 6.18-5.23 12.5-4.21 19a19.52 19.52 0 01.58 4.67 13.56 13.56 0 01-1.83 4.91q-1.12 2.22-2 4.55c-.65 1.66-1.23 3.36-1.74 5.08-.6 2.09-1 4.57.38 6.25a7.62 7.62 0 011.13 1.37 3.67 3.67 0 010 2.36q-1.19 5-2.54 10c-.7 2.6-1.44 5.18-2.2 7.76-5.62 18.87-12 37.55-15.76 56.88-.54 2.78-4.11 4.77-6.87 5.38a9 9 0 01-7.9-2.11c-.19-.17-.37-.36-.54-.54-2.9-3.12-3.33-7.91-3.11-12.23 1-19.89 11-38.1 15.76-57.43a111.1 111.1 0 003.1-21.32c1.11-24 1.56-49.38-5.23-72.45-1.41-4.8-3.08-10.22-.54-14.52 1.6-2.72 4.57-4.33 7.51-5.49a48.31 48.31 0 0137.46 1 11.64 11.64 0 01-.06 1.44 14.76 14.76 0 00.76 6.62 8.41 8.41 0 01.68 2.82zm-82.22 187.26l-1.27 4.62a52.36 52.36 0 01-2.7 8.13 34.92 34.92 0 00-2.4 5.52 17.13 17.13 0 00-.41 4.74 14.15 14.15 0 00.65 4.49 11.15 11.15 0 006.54 6.2 30.48 30.48 0 009.1 1.71 7.36 7.36 0 002.39-.06 6.49 6.49 0 002.31-1.21c4.22-3.09 6.39-8.79 6.77-14a17.2 17.2 0 00-.71-3.58c-.33-.44-3.52 1.36-2.15 2.87 2 2.22-3.89 1.07-6.89.88a25.91 25.91 0 01-3.91-.64l-4.86-1c-1.59-.34-3.42-.89-4-2.41s.66-3.34 1.62-4.82c2.54-3.93 3.2-8.74 3.79-13.38.11-.91 1.25-6.82-1.1-5a6.63 6.63 0 00-1.63 3.07c-.43 1.25-.79 2.56-1.14 3.87z" fill="#303d5c"/><path d="M208.91 597.66c-1.38-1.68-1-4.16-.37-6.25.22-.78.47-1.55.73-2.32l-19.08-6.46c-.07 1.72-.15 3.42-.23 5.12a110.52 110.52 0 01-3.09 21.33c-4.77 19.32-14.78 37.53-15.76 57.41-.23 4.58.26 9.7 3.65 12.78a9 9 0 007.89 2.12c2.77-.61 6.33-2.61 6.88-5.39 3.78-19.33 10.13-38 15.76-56.89q2.63-8.79 4.74-17.72a3.64 3.64 0 000-2.35 7 7 0 00-1.12-1.38z" opacity=".05"/><path d="M156.19 673.49c-1.51 2.6-3.81 4.9-4.16 7.88-.21 1.79.34 3.59.33 5.4a17.55 17.55 0 01-.79 4.41q-2.79 10.07-6.42 19.86a5.45 5.45 0 00-.51 2.7c.24 1.53 1.73 2.54 3.15 3.15 4.55 1.94 9.67 1.81 14.61 1.61a7.67 7.67 0 004.11-1c1.77-1.21 2.21-3.6 2.32-5.74.34-6.2-.71-12.43 0-18.59.25-2.25.72-4.46 1.07-6.69.49-3.1.74-6.36-.28-9.33a21.39 21.39 0 00-3.5-5.87 18.45 18.45 0 00-4.85-4.84c-.58-.34-2.23-1.4-2.82-.74-.3.34-.17 1.25-.21 1.67a17.51 17.51 0 01-.34 1.92 15.83 15.83 0 01-1.71 4.2z" fill="#ee8e9e"/><path d="M192.85 514.93c-.89 1.21-.71 2.89-.35 4.35.63 2.64 1.69 5.17 2.55 7.74a107.7 107.7 0 013.28 14.08c.8 4.3 2.5 9.09 1.81 13.42a95.62 95.62 0 0110.13 31.81c.39 2.85-5.94 6.53-5.82 9.4.24 5.72 4.8 6.18 1.44 10.74-.17.23 1.26 5.34 1.07 5.56-1.37 1.65-3.11 3-4.58 4.51a34.67 34.67 0 00-4.83 7.07c-8.7 15.72-21.28 33.54-17.4 51.09a3.11 3.11 0 01-1.66 3.15 8.6 8.6 0 01-3.68.85h-.6c-2.9-3.12-3.33-7.91-3.11-12.23 1-19.89 11-38.1 15.76-57.43a111.1 111.1 0 003.1-21.32c1.11-24 1.56-49.38-5.23-72.45-1.41-4.8-3.08-10.22-.54-14.52 1.6-2.72 4.57-4.33 7.51-5.49a48.31 48.31 0 0137.46 1 11.64 11.64 0 01-.06 1.44 14.76 14.76 0 00.76 6.62 8.41 8.41 0 01.75 2.88s.34-3.87.33-3.81c-7.75 1.11-15.93 6.18-23.75 7.33a55.43 55.43 0 00-11.91 2.62 5.36 5.36 0 00-2.43 1.59z" opacity=".05"/><path d="M138.86 472.35q-1.57 5-2.77 10.1a8.45 8.45 0 00-.28 3.63c.25 1.14 1 2.16 1.08 3.32.18 1.8-1.07 3.39-1.76 5.06-1.76 4.25.12 9.05 2 13.26l5.52 12.5 4.54 10.26c1.35 3.05 2.69 6.1 4 9.17a297.33 297.33 0 0114.41 43.19 5.32 5.32 0 00.74 1.88c.77 1 2.16 1.32 3.28 1.94 3.4 1.86 3.79 7.44.68 9.76.64 7.51-5 14.76-7.89 21.72-6.68 16-5.47 34-7.76 51.2l2.59-1.52c2.49 1.14 2.4 4.67 3.74 7.06 2 3.59 6.92 4.09 11 3.82a8.52 8.52 0 003.67-.85 3.1 3.1 0 001.66-3.15c-3.87-17.55 8.7-35.37 17.41-51.09a34.63 34.63 0 014.82-7.07c1.48-1.56 3.21-2.87 4.59-4.51 3.84-4.61 4.33-11.11 4.07-17.11a95.78 95.78 0 00-10.9-40.41c.7-4.32-1-9.11-1.8-13.41a105.27 105.27 0 00-3.31-14.07c-.86-2.59-1.91-5.11-2.55-7.75-.35-1.46-.54-3.14.35-4.35a5.39 5.39 0 012.46-1.59 55.43 55.43 0 0111.91-2.62l26.83-3.85c.86-5.51 1.74-11.65 1.14-17.19a26.43 26.43 0 00-18.93-22.11c-1.17-.31-2.54-.51-3.5.23a139.6 139.6 0 00-71.04 4.55z" fill="#303d5c"/><path d="M163.19 327.44a13.17 13.17 0 01-1.17 7.68 12.06 12.06 0 01-3 3.37 23 23 0 01-8.84 4.39c-1.9.48-4 .8-5.29 2.31-1.88 2.27-.62 5.71 1 8.19 2.78 4.32 6.64 8.23 11.59 9.58 4 1.08 8.17.42 12.21 1.12 2.93.51 5.69 1.72 8.58 2.41a25.34 25.34 0 0023.27-6.49c-4.3-3.3-8.76-6.81-11-11.75a16.67 16.67 0 01-.84-11.24c1-3.66 3.35-7.22 2.63-11s-4.4-6.31-8-7.57a52.2 52.2 0 00-10.14-2.01c-1.89-.26-13.89-2.91-14.64-1.6-.42.74 2.07 5.12 2.38 6.09a23.16 23.16 0 011.26 6.52z" fill="#ee8e9e"/><circle cx="178.32" cy="311.86" r="24.34" fill="#ee8e9e"/><path d="M165.46 352.09l16.51 2.78a61.77 61.77 0 0012.33 1.24 34.35 34.35 0 016.8 0c1.56.26 3.05.85 4.61 1.05 1.93.24 3.89-.13 5.82.12 3.58.46 6.53 2.94 9.25 5.31 3.19 2.78 6.62 6 6.87 10.25a3.11 3.11 0 01-.2 1.42 4.17 4.17 0 01-1.23 1.28c-3 2.49-4.73 6.2-6.89 9.48a36.53 36.53 0 01-8.2 8.85c-.72-.46-2.09.75-1.78 1.55s1.1 1.35 1.36 2.16c.59 1.87-1.72 3.25-2.68 5s-.47 3.88-.57 5.87c-.12 2.19-1 4.28-1.27 6.45-.67 5.07 1.84 10.41.07 15.2 2.17-.27 4.13 1.6 4.74 3.69s.22 4.34-.19 6.48a8.91 8.91 0 014.32 8.14 1.4 1.4 0 001 1.94 8.24 8.24 0 015.07 7.63 3.82 3.82 0 00.15 1.62 3.58 3.58 0 001.19 1.23 9.48 9.48 0 013.54 7.42c0 1.93-.8 4-2.51 4.87-3.5 1.78-7.25 2.47-11.09 3.3a97.58 97.58 0 01-10.73 1.91 98.85 98.85 0 01-10 .31l-22.08-.09c-6.21 0-12.42 0-18.61-.47-5.78-.39-11.69-1.11-17.29.41-.7-1.19.42-2.56 1.11-3.75a12.48 12.48 0 001.26-5.2l1.4-14.71a27.07 27.07 0 00.11-6.1c-.3-2.17-1.12-4.22-1.54-6.37-.8-4.12-.07-8.38-.26-12.58a57.61 57.61 0 00-1.93-11l-4.38-18c-.7-2.89-1.07-6.25-2.15-9q-5.05-13-10.59-25.72a2.73 2.73 0 01.2-2.28l3.65-6.54a41.39 41.39 0 013.34-5.33 21 21 0 0112.32-7.56 21.72 21.72 0 0114.33 2.12c1.7.91 3.28 2 5 2.9 2.95 1.4 6.55 2.94 9.82 2.72z" fill="#5369f8"/><path d="M224.04 368.12l5.75 7.67a10.67 10.67 0 011.34 2.12c.86 2 .39 4.36.85 6.51a13.72 13.72 0 001.69 3.89 87.5 87.5 0 007.31 10.87 18.83 18.83 0 004.55 4.49 7.48 7.48 0 006.12 1.09 3.77 3.77 0 00-2 1.82c-2.19 4.34-2.35 9.48-1.42 14.24a14.4 14.4 0 001.6 4.66 6.92 6.92 0 003.66 3.17 5.38 5.38 0 01-6.35 4.56 10.33 10.33 0 01-3.15-1.57l-9.24-6a25.71 25.71 0 01-4.3-3.23c-1.73-1.72-2.93-3.9-4.61-5.67-2.86-3-7.06-4.84-9.08-8.48-1.27-2.28-1.49-5-2.27-7.46-.51-1.63-1.26-3.17-1.75-4.81-1.52-5.06-.42-10.61 1.89-15.36s5.99-8.47 9.41-12.51z" fill="#5369f8"/><path d="M202.37 297.98a32.26 32.26 0 00-8.56-8.91c-4.55-3.39-9.78-6.21-15.45-6.53a16.72 16.72 0 00-6.95 1.13c-.11-6.87-1.81-11.45-6.11-10.76-8 1.29-16.9 4.37-20 11.87-2.31 5.67-.52 12.05.07 18.14a14 14 0 01-.17 4.83c-.66 2.57-2.48 4.65-4.24 6.64a35.21 35.21 0 00-6.09 8.54c-1.44 3.2-1.9 7-.41 10.2a7.35 7.35 0 011 2.69c.1 2.08-2.08 3.4-3.68 4.73-6 5-5.75 14-5.8 21.83a110.71 110.71 0 01-10.39 46.19 14.11 14.11 0 0015.77-2.06 52.55 52.55 0 01-3.58 10.32c5.08 2.46 11.21-1.58 13.76-6.62s2.85-10.9 4.66-16.25 5-10 6.41-15.39c.45-1.78.73-3.68 1.82-5.16a13.58 13.58 0 013.2-2.73c5.24-3.76-2.48-32.25-.43-38.37 3 .67 8.65-14 11.84-29a15.1 15.1 0 006.93.69 8.58 8.58 0 012.47-.17 6.36 6.36 0 012.16.88 54.67 54.67 0 007.38 3.79c5.28 2 11.08 1.71 16.71 1.43a16.65 16.65 0 00-2.32-11.95z" fill="#303d5c"/><path d="M118.45 408.57a110.41 110.41 0 0010.44-46.15c.05-7.8-.21-16.86 5.8-21.83 1.6-1.33 3.78-2.65 3.68-4.73a7.51 7.51 0 00-1-2.69c-1.49-3.18-1-7 .4-10.2a35 35 0 016.1-8.54c1.75-2 3.58-4.07 4.23-6.64a14.22 14.22 0 00.18-4.83c-.6-6.09-2.38-12.47-.07-18.14 3-7.26 11.39-10.37 19.19-11.73a4.39 4.39 0 00-2.1-.14c-8 1.29-16.9 4.37-20 11.87-2.31 5.67-.52 12.05.07 18.14a14 14 0 01-.17 4.83c-.66 2.57-2.48 4.65-4.24 6.64a35.21 35.21 0 00-6.09 8.54c-1.44 3.2-1.9 7-.41 10.2a7.35 7.35 0 011 2.69c.1 2.08-2.08 3.4-3.68 4.73-6 5-5.75 14-5.8 21.83a110.71 110.71 0 01-10.39 46.15 13.68 13.68 0 007.73 1.45 13.2 13.2 0 01-4.87-1.45zm12.19 8.22a52.55 52.55 0 003.55-10.32 13.34 13.34 0 01-3.46 2.29 52.32 52.32 0 01-3 8 7.6 7.6 0 004.7.6 7.47 7.47 0 01-1.79-.57zm43.63-133.12a16.77 16.77 0 014.64-1.08h-.55a16.29 16.29 0 00-4.11.31c.01.22.02.49.02.77zm16.57 24.8a54.55 54.55 0 01-7.37-3.79 6.4 6.4 0 00-2.17-.88 7.49 7.49 0 00-2.26.14 9.26 9.26 0 011.56.74 54.67 54.67 0 007.38 3.79 33 33 0 0012.34 1.6 28.94 28.94 0 01-9.48-1.6zm-18.94-5.19c0 .22-.09.44-.14.66a15.12 15.12 0 003.62.1 16 16 0 01-3.48-.76z" opacity=".1"/><path d="M121.24 416.16a8.94 8.94 0 01-2.4 7.11 15.76 15.76 0 01-3.39 2.49 9 9 0 01-4 1.51 7.61 7.61 0 01-5.14-2.23c-4.24-3.72-6.36-9.23-8.32-14.52-2.59-7-5.17-14.07-6.28-21.46-1.19-7.92-.68-16.12-2.95-23.81 2-4 3.3-8.46 5.59-12.34a57.47 57.47 0 003.85-7.22 25 25 0 00.68-16.66 2.26 2.26 0 012.66.14 5.51 5.51 0 011.6 2.33 20.66 20.66 0 011.6 9.79 3.8 3.8 0 00.27 2.39 3 3 0 002.6 1.1 23.47 23.47 0 006-1.09 55.75 55.75 0 0118.51-1.53 8.93 8.93 0 013.61.88 3.36 3.36 0 011.86 3l-14.8 2.17a6.1 6.1 0 00-3.11 1.06 2.1 2.1 0 00-.42 2.93 6.87 6.87 0 001 .68 3 3 0 01-.12 4.87 3.44 3.44 0 00-1 .7c-.6.81.2 1.88.46 2.86a3.61 3.61 0 01-1.78 3.69 12.37 12.37 0 01-4.13 1.39 44.3 44.3 0 00-8.45 2.87 4.64 4.64 0 00-2.2 1.65c-.73 1.24-.25 2.8.25 4.15l3.86 10.38c.6 1.63 1.21 3.26 2 4.83 1 2 2.19 3.94 3.2 6s1.67 3.85 2.41 5.81c1.93 5.29 5.82 8.49 6.48 14.08z" fill="#ee8e9e"/><path fill="url(#m)" d="M254.79 348.82h46.13v44.66h-46.13z"/><path fill="#7cfcff" d="M255.59 349.59h44.54v43.12h-44.54z"/><path d="M292.41 346.19a4.6 4.6 0 00-1.69 2.47 1 1 0 00.39 1.12 1.12 1.12 0 00.68 0 6.35 6.35 0 003-1.41 3 3 0 00-.89.72 1 1 0 00-.12 1.08 1.41 1.41 0 001 .51 9.57 9.57 0 004.29-.2 5.89 5.89 0 00-1.78 1.05 2.39 2.39 0 00-.81 1.85.92.92 0 00.32.69 1.15 1.15 0 00.48.17 11.56 11.56 0 004 0 2.05 2.05 0 001.68-1 2.52 2.52 0 00-.39-1.93 10.79 10.79 0 01-1-4.88 1.92 1.92 0 00-.14-1 1.78 1.78 0 00-.89-.65c-1.41-.62-3.33-1.48-4.9-1a10.31 10.31 0 00-3.23 2.41z" fill="#ee8e9e"/></svg>